<svg width="402" height="874" viewBox="0 0 402 874" fill="none" xmlns="http://www.w3.org/2000/svg">
<rect width="402" height="874" fill="#F3F4F4"/>
<rect x="13" y="62" width="376" height="738" rx="31" fill="white"/>
<path d="M99.008 120.096H102.2V123.192H99.008V120.096ZM93.416 118.272H96.32V118.536C96.32 119.736 96.24 120.92 96.08 122.088C95.92 123.256 95.656 124.36 95.288 125.4C94.92 126.44 94.424 127.376 93.8 128.208C93.176 129.04 92.392 129.72 91.448 130.248L89.312 127.344C90.128 126.864 90.8 126.296 91.328 125.64C91.872 124.968 92.296 124.248 92.6 123.48C92.904 122.696 93.112 121.888 93.224 121.056C93.352 120.208 93.416 119.368 93.416 118.536V118.272ZM94.184 118.272H97.088V118.536C97.088 119.352 97.144 120.168 97.256 120.984C97.384 121.784 97.6 122.552 97.904 123.288C98.208 124.008 98.624 124.672 99.152 125.28C99.68 125.888 100.352 126.408 101.168 126.84L99.104 129.696C97.84 129.056 96.848 128.168 96.128 127.032C95.408 125.88 94.904 124.576 94.616 123.12C94.328 121.648 94.184 120.12 94.184 118.536V118.272ZM90.272 115.32H100.184V118.416H90.272V115.32ZM93.416 112.464H97.088V117.864H93.416V112.464ZM105.632 111.744H109.304V134.256H105.632V111.744ZM101.072 112.032H104.672V133.32H101.072V112.032ZM124.586 116.448H128.45V119.496H124.586V116.448ZM124.514 121.008H128.378V124.056H124.514V121.008ZM111.914 113.52H124.13V116.544H111.914V113.52ZM118.202 117.12C119.258 117.12 120.186 117.304 120.986 117.672C121.802 118.024 122.442 118.52 122.906 119.16C123.37 119.784 123.602 120.512 123.602 121.344C123.602 122.176 123.37 122.912 122.906 123.552C122.442 124.192 121.802 124.696 120.986 125.064C120.186 125.416 119.258 125.592 118.202 125.592C117.162 125.592 116.234 125.416 115.418 125.064C114.618 124.696 113.986 124.192 113.522 123.552C113.058 122.912 112.826 122.176 112.826 121.344C112.826 120.512 113.058 119.784 113.522 119.16C113.986 118.52 114.618 118.024 115.418 117.672C116.234 117.304 117.162 117.12 118.202 117.12ZM118.202 119.976C117.674 119.976 117.242 120.088 116.906 120.312C116.586 120.52 116.426 120.864 116.426 121.344C116.426 121.84 116.586 122.2 116.906 122.424C117.242 122.632 117.674 122.736 118.202 122.736C118.73 122.736 119.162 122.632 119.498 122.424C119.834 122.2 120.002 121.84 120.002 121.344C120.002 120.864 119.834 120.52 119.498 120.312C119.162 120.088 118.73 119.976 118.202 119.976ZM116.282 111.576H120.17V115.632H116.282V111.576ZM126.962 111.744H130.85V126H126.962V111.744ZM123.098 126.288C124.698 126.288 126.082 126.448 127.25 126.768C128.418 127.088 129.322 127.552 129.962 128.16C130.602 128.752 130.922 129.464 130.922 130.296C130.922 131.128 130.602 131.84 129.962 132.432C129.322 133.04 128.418 133.504 127.25 133.824C126.082 134.144 124.698 134.304 123.098 134.304C121.498 134.304 120.114 134.144 118.946 133.824C117.778 133.504 116.874 133.04 116.234 132.432C115.594 131.84 115.274 131.128 115.274 130.296C115.274 129.464 115.594 128.752 116.234 128.16C116.874 127.552 117.778 127.088 118.946 126.768C120.114 126.448 121.498 126.288 123.098 126.288ZM123.098 129.216C121.866 129.216 120.938 129.296 120.314 129.456C119.69 129.6 119.378 129.88 119.378 130.296C119.378 130.696 119.69 130.984 120.314 131.16C120.938 131.32 121.866 131.4 123.098 131.4C124.33 131.4 125.258 131.32 125.882 131.16C126.506 130.984 126.818 130.696 126.818 130.296C126.818 129.88 126.506 129.6 125.882 129.456C125.258 129.296 124.33 129.216 123.098 129.216ZM154.721 111.744H158.609V134.256H154.721V111.744ZM148.049 114.024H151.889C151.889 115.8 151.737 117.48 151.433 119.064C151.129 120.648 150.601 122.136 149.849 123.528C149.113 124.92 148.073 126.216 146.729 127.416C145.401 128.6 143.705 129.688 141.641 130.68L139.625 127.632C141.785 126.592 143.473 125.464 144.689 124.248C145.921 123.032 146.785 121.648 147.281 120.096C147.793 118.544 148.049 116.76 148.049 114.744V114.024ZM140.921 114.024H149.921V117.072H140.921V114.024ZM175.643 111.768H179.507V128.352H175.643V111.768ZM178.451 117.84H182.315V121.008H178.451V117.84ZM164.723 130.872H180.203V133.944H164.723V130.872ZM164.723 126.648H168.611V131.52H164.723V126.648ZM162.155 113.352H165.995V116.28H169.355V113.352H173.195V124.944H162.155V113.352ZM165.995 119.208V121.92H169.355V119.208H165.995ZM197.162 118.184L192.755 132H188.677L194.994 114.938H197.572L197.162 118.184ZM200.818 132L196.4 118.184L195.943 114.938H198.556L204.896 132H200.818ZM200.63 125.648V128.602H191.736V125.648H200.63ZM210.28 114.938V132H206.472V114.938H210.28ZM220.805 113.448H234.941V116.52H220.805V113.448ZM218.573 128.856H238.949V131.952H218.573V128.856ZM233.405 113.448H237.245V115.344C237.245 116.24 237.229 117.216 237.197 118.272C237.181 119.328 237.093 120.512 236.933 121.824C236.789 123.136 236.533 124.64 236.165 126.336L232.349 125.928C232.877 123.592 233.181 121.568 233.261 119.856C233.357 118.128 233.405 116.624 233.405 115.344V113.448ZM234.053 118.872V121.8L220.565 122.496L220.085 119.232L234.053 118.872ZM225.413 123.696H229.301V129.984H225.413V123.696ZM245.711 115.584H248.879V116.328C248.879 117.656 248.663 118.92 248.231 120.12C247.799 121.32 247.111 122.368 246.167 123.264C245.223 124.144 243.967 124.792 242.399 125.208L240.623 122.208C241.583 121.952 242.391 121.616 243.047 121.2C243.703 120.768 244.223 120.288 244.607 119.76C245.007 119.216 245.287 118.656 245.447 118.08C245.623 117.488 245.711 116.904 245.711 116.328V115.584ZM246.455 115.584H249.599V116.328C249.599 116.856 249.687 117.392 249.863 117.936C250.039 118.48 250.319 119 250.703 119.496C251.103 119.976 251.631 120.416 252.287 120.816C252.943 121.2 253.751 121.512 254.711 121.752L252.959 124.776C251.407 124.392 250.151 123.776 249.191 122.928C248.231 122.08 247.535 121.088 247.103 119.952C246.671 118.8 246.455 117.592 246.455 116.328V115.584ZM241.487 113.88H253.823V116.88H241.487V113.88ZM245.711 111.816H249.599V115.224H245.711V111.816ZM255.527 111.768H259.415V125.208H255.527V111.768ZM251.711 125.544C253.311 125.544 254.695 125.72 255.863 126.072C257.031 126.424 257.927 126.928 258.551 127.584C259.191 128.224 259.511 129.008 259.511 129.936C259.511 131.328 258.807 132.4 257.399 133.152C256.007 133.92 254.111 134.304 251.711 134.304C249.311 134.304 247.415 133.92 246.023 133.152C244.631 132.4 243.935 131.328 243.935 129.936C243.935 128.56 244.631 127.488 246.023 126.72C247.415 125.936 249.311 125.544 251.711 125.544ZM251.711 128.472C250.831 128.472 250.095 128.52 249.503 128.616C248.927 128.712 248.495 128.872 248.207 129.096C247.935 129.304 247.799 129.584 247.799 129.936C247.799 130.448 248.119 130.816 248.759 131.04C249.399 131.264 250.383 131.376 251.711 131.376C253.039 131.376 254.023 131.264 254.663 131.04C255.319 130.816 255.647 130.448 255.647 129.936C255.647 129.584 255.503 129.304 255.215 129.096C254.927 128.872 254.495 128.712 253.919 128.616C253.343 128.52 252.607 128.472 251.711 128.472ZM282.398 111.768H286.262V124.872H282.398V111.768ZM285.206 116.688H289.07V119.856H285.206V116.688ZM268.91 113.088H272.75V115.608H276.11V113.088H279.95V123.936H268.91V113.088ZM272.75 118.56V120.936H276.11V118.56H272.75ZM271.334 125.736H286.382V128.76H275.198V133.152H271.334V125.736ZM271.334 130.992H286.814V134.04H271.334V130.992ZM305.432 111.744H309.32V134.256H305.432V111.744ZM298.76 114.024H302.6C302.6 115.8 302.448 117.48 302.144 119.064C301.84 120.648 301.312 122.136 300.56 123.528C299.824 124.92 298.784 126.216 297.44 127.416C296.112 128.6 294.416 129.688 292.352 130.68L290.336 127.632C292.496 126.592 294.184 125.464 295.4 124.248C296.632 123.032 297.496 121.648 297.992 120.096C298.504 118.544 298.76 116.76 298.76 114.744V114.024ZM291.632 114.024H300.632V117.072H291.632V114.024Z" fill="#002738"/>
</svg>
