<svg width="402" height="874" viewBox="0 0 402 874" fill="none" xmlns="http://www.w3.org/2000/svg">
<g clip-path="url(#clip0_473_3777)">
<rect width="402" height="874" fill="white"/>
<g filter="url(#filter0_d_473_3777)">
<rect y="55" width="402" height="71" fill="white"/>
</g>
<path fill-rule="evenodd" clip-rule="evenodd" d="M28.875 83.5C28.875 83.2016 28.9935 82.9155 29.2045 82.7045C29.4155 82.4935 29.7016 82.375 30 82.375H54C54.2984 82.375 54.5845 82.4935 54.7955 82.7045C55.0065 82.9155 55.125 83.2016 55.125 83.5C55.125 83.7984 55.0065 84.0845 54.7955 84.2955C54.5845 84.5065 54.2984 84.625 54 84.625H30C29.7016 84.625 29.4155 84.5065 29.2045 84.2955C28.9935 84.0845 28.875 83.7984 28.875 83.5ZM28.875 91C28.875 90.7016 28.9935 90.4155 29.2045 90.2045C29.4155 89.9935 29.7016 89.875 30 89.875H46.5C46.7984 89.875 47.0845 89.9935 47.2955 90.2045C47.5065 90.4155 47.625 90.7016 47.625 91C47.625 91.2984 47.5065 91.5845 47.2955 91.7955C47.0845 92.0065 46.7984 92.125 46.5 92.125H30C29.7016 92.125 29.4155 92.0065 29.2045 91.7955C28.9935 91.5845 28.875 91.2984 28.875 91ZM28.875 98.5C28.875 98.2016 28.9935 97.9155 29.2045 97.7045C29.4155 97.4935 29.7016 97.375 30 97.375H37.5C37.7984 97.375 38.0845 97.4935 38.2955 97.7045C38.5065 97.9155 38.625 98.2016 38.625 98.5C38.625 98.7984 38.5065 99.0845 38.2955 99.2955C38.0845 99.5065 37.7984 99.625 37.5 99.625H30C29.7016 99.625 29.4155 99.5065 29.2045 99.2955C28.9935 99.0845 28.875 98.7984 28.875 98.5Z" fill="white"/>
<path d="M121.442 88.76H124.362V90.92H121.442V88.76ZM117.122 86.9H119.142V87.38C119.142 88.34 119.062 89.2933 118.902 90.24C118.755 91.1733 118.515 92.06 118.182 92.9C117.862 93.7267 117.442 94.48 116.922 95.16C116.415 95.8267 115.789 96.3733 115.042 96.8L113.562 94.8C114.215 94.4133 114.769 93.9467 115.222 93.4C115.675 92.84 116.042 92.2333 116.322 91.58C116.615 90.9133 116.822 90.2267 116.942 89.52C117.062 88.8 117.122 88.0867 117.122 87.38V86.9ZM117.642 86.9H119.662V87.38C119.662 88.06 119.722 88.7467 119.842 89.44C119.975 90.1333 120.182 90.7867 120.462 91.4C120.742 92.0133 121.109 92.58 121.562 93.1C122.015 93.6067 122.569 94.0333 123.222 94.38L121.782 96.36C120.795 95.84 119.995 95.12 119.382 94.2C118.769 93.2667 118.322 92.2133 118.042 91.04C117.775 89.8533 117.642 88.6333 117.642 87.38V86.9ZM114.242 84.86H122.502V87H114.242V84.86ZM117.122 82.36H119.662V86.58H117.122V82.36ZM127.262 81.74H129.802V100.26H127.262V81.74ZM123.522 82.04H126.002V99.42H123.522V82.04ZM142.76 85.82H146.14V87.94H142.76V85.82ZM142.72 89.52H146.1V91.62H142.72V89.52ZM132.34 83.4H142.52V85.5H132.34V83.4ZM137.54 86.14C138.394 86.14 139.147 86.2867 139.8 86.58C140.454 86.8733 140.967 87.28 141.34 87.8C141.714 88.32 141.9 88.92 141.9 89.6C141.9 90.28 141.714 90.8867 141.34 91.42C140.967 91.94 140.454 92.3467 139.8 92.64C139.147 92.9333 138.394 93.08 137.54 93.08C136.7 93.08 135.954 92.9333 135.3 92.64C134.647 92.3467 134.134 91.94 133.76 91.42C133.387 90.8867 133.2 90.28 133.2 89.6C133.2 88.92 133.387 88.32 133.76 87.8C134.134 87.28 134.647 86.8733 135.3 86.58C135.954 86.2867 136.7 86.14 137.54 86.14ZM137.54 88.12C136.98 88.12 136.527 88.2467 136.18 88.5C135.847 88.7533 135.68 89.1267 135.68 89.62C135.68 90.1 135.847 90.4667 136.18 90.72C136.527 90.9733 136.98 91.1 137.54 91.1C138.1 91.1 138.554 90.9733 138.9 90.72C139.247 90.4667 139.42 90.1 139.42 89.62C139.42 89.1267 139.247 88.7533 138.9 88.5C138.554 88.2467 138.1 88.12 137.54 88.12ZM136.22 81.6H138.9V84.86H136.22V81.6ZM145.12 81.74H147.8V93.56H145.12V81.74ZM141.52 93.78C142.827 93.78 143.954 93.9067 144.9 94.16C145.847 94.4133 146.574 94.7867 147.08 95.28C147.6 95.76 147.86 96.34 147.86 97.02C147.86 97.7 147.6 98.28 147.08 98.76C146.574 99.2533 145.847 99.6267 144.9 99.88C143.954 100.147 142.827 100.28 141.52 100.28C140.227 100.28 139.107 100.147 138.16 99.88C137.214 99.6267 136.48 99.2533 135.96 98.76C135.44 98.28 135.18 97.7 135.18 97.02C135.18 96.34 135.44 95.76 135.96 95.28C136.48 94.7867 137.214 94.4133 138.16 94.16C139.107 93.9067 140.227 93.78 141.52 93.78ZM141.54 95.8C140.394 95.8 139.514 95.9 138.9 96.1C138.3 96.2867 138 96.5933 138 97.02C138 97.4467 138.3 97.76 138.9 97.96C139.514 98.16 140.394 98.26 141.54 98.26C142.66 98.26 143.527 98.16 144.14 97.96C144.754 97.76 145.06 97.4467 145.06 97.02C145.06 96.5933 144.754 96.2867 144.14 96.1C143.527 95.9 142.66 95.8 141.54 95.8ZM168.342 81.74H171.002V100.26H168.342V81.74ZM162.882 83.66H165.502C165.502 85.0733 165.362 86.4267 165.082 87.72C164.815 89 164.362 90.2067 163.722 91.34C163.095 92.4733 162.228 93.5267 161.122 94.5C160.028 95.46 158.662 96.34 157.022 97.14L155.622 95.04C157.408 94.1733 158.828 93.22 159.882 92.18C160.948 91.1267 161.715 89.94 162.182 88.62C162.648 87.2867 162.882 85.7933 162.882 84.14V83.66ZM156.622 83.66H164.122V85.78H156.622V83.66ZM185.88 81.76H188.54V95.38H185.88V81.76ZM187.8 86.96H191V89.16H187.8V86.96ZM176.6 97.82H189.2V99.96H176.6V97.82ZM176.6 94.02H179.28V98.28H176.6V94.02ZM174.5 83.08H177.14V85.72H180.78V83.08H183.4V92.48H174.5V83.08ZM177.14 87.76V90.38H180.78V87.76H177.14ZM206.401 98.5L205.301 94.72H200.421L199.321 98.5H196.441L201.241 84.16H204.461L209.281 98.5H206.401ZM203.521 88.84C203.468 88.6267 203.395 88.3733 203.301 88.08C203.221 87.7733 203.141 87.46 203.061 87.14C202.995 86.82 202.928 86.52 202.861 86.24C202.808 86.56 202.741 86.88 202.661 87.2C202.581 87.5067 202.501 87.8 202.421 88.08C202.355 88.36 202.288 88.6133 202.221 88.84L201.101 92.52H204.661L203.521 88.84ZM215.873 98.5H209.933V97.04L211.573 96.4V86.34L209.933 85.68V84.22H215.873V85.68L214.253 86.34V96.4L215.873 97.04V98.5ZM224.141 83.28H235.821V85.42H224.141V83.28ZM222.241 96H239.001V98.14H222.241V96ZM234.741 83.28H237.381V84.92C237.381 85.6667 237.368 86.4667 237.341 87.32C237.328 88.1733 237.261 89.1267 237.141 90.18C237.021 91.2333 236.821 92.44 236.541 93.8L233.901 93.52C234.328 91.64 234.575 90.0067 234.641 88.62C234.708 87.22 234.741 85.9867 234.741 84.92V83.28ZM235.221 87.74V89.76L223.921 90.36L223.581 88.1L235.221 87.74ZM228.181 91.56H230.861V96.78H228.181V91.56ZM245.16 84.86H247.34V85.54C247.34 86.6333 247.147 87.6667 246.76 88.64C246.373 89.6 245.793 90.44 245.02 91.16C244.247 91.8667 243.253 92.3933 242.04 92.74L240.82 90.68C241.567 90.4533 242.213 90.1667 242.76 89.82C243.32 89.46 243.773 89.0467 244.12 88.58C244.48 88.1133 244.74 87.6267 244.9 87.12C245.073 86.6 245.16 86.0733 245.16 85.54V84.86ZM245.66 84.86H247.82V85.54C247.82 86.0333 247.907 86.52 248.08 87C248.267 87.48 248.533 87.9333 248.88 88.36C249.24 88.7733 249.693 89.1467 250.24 89.48C250.8 89.8133 251.46 90.0733 252.22 90.26L251 92.36C249.813 92.04 248.82 91.5467 248.02 90.88C247.233 90.2 246.64 89.4 246.24 88.48C245.853 87.56 245.66 86.58 245.66 85.54V84.86ZM241.44 83.68H251.56V85.76H241.44V83.68ZM245.16 81.78H247.84V84.62H245.16V81.78ZM253.38 81.76H256.04V92.92H253.38V81.76ZM249.78 93.24C251.087 93.24 252.213 93.38 253.16 93.66C254.107 93.94 254.833 94.34 255.34 94.86C255.86 95.38 256.12 96.0133 256.12 96.76C256.12 97.88 255.553 98.7467 254.42 99.36C253.287 99.9733 251.74 100.28 249.78 100.28C247.82 100.28 246.273 99.9733 245.14 99.36C244.007 98.7467 243.44 97.88 243.44 96.76C243.44 95.6533 244.007 94.7933 245.14 94.18C246.273 93.5533 247.82 93.24 249.78 93.24ZM249.78 95.26C248.98 95.26 248.3 95.3133 247.74 95.42C247.193 95.5267 246.78 95.6933 246.5 95.92C246.233 96.1467 246.1 96.4267 246.1 96.76C246.1 97.2533 246.407 97.6267 247.02 97.88C247.647 98.12 248.567 98.24 249.78 98.24C250.98 98.24 251.893 98.12 252.52 97.88C253.147 97.6267 253.46 97.2533 253.46 96.76C253.46 96.4267 253.32 96.1467 253.04 95.92C252.76 95.6933 252.347 95.5267 251.8 95.42C251.267 95.3133 250.593 95.26 249.78 95.26ZM275.841 81.76H278.501V92.56H275.841V81.76ZM277.781 85.94H280.961V88.14H277.781V85.94ZM264.461 82.82H267.101V85.16H270.741V82.82H273.361V91.64H264.461V82.82ZM267.101 87.22V89.56H270.741V87.22H267.101ZM266.481 93.38H278.621V95.46H269.121V99.44H266.481V93.38ZM266.481 97.94H278.981V100.06H266.481V97.94ZM295.1 81.74H297.76V100.26H295.1V81.74ZM289.64 83.66H292.26C292.26 85.0733 292.12 86.4267 291.84 87.72C291.573 89 291.12 90.2067 290.48 91.34C289.853 92.4733 288.986 93.5267 287.88 94.5C286.786 95.46 285.42 96.34 283.78 97.14L282.38 95.04C284.166 94.1733 285.586 93.22 286.64 92.18C287.706 91.1267 288.473 89.94 288.94 88.62C289.406 87.2867 289.64 85.7933 289.64 84.14V83.66ZM283.38 83.66H290.88V85.78H283.38V83.66Z" fill="#333D4B"/>
</g>
<defs>
<filter id="filter0_d_473_3777" x="-4" y="55" width="410" height="79" filterUnits="userSpaceOnUse" color-interpolation-filters="sRGB">
<feFlood flood-opacity="0" result="BackgroundImageFix"/>
<feColorMatrix in="SourceAlpha" type="matrix" values="0 0 0 0 0 0 0 0 0 0 0 0 0 0 0 0 0 0 127 0" result="hardAlpha"/>
<feOffset dy="4"/>
<feGaussianBlur stdDeviation="2"/>
<feComposite in2="hardAlpha" operator="out"/>
<feColorMatrix type="matrix" values="0 0 0 0 0 0 0 0 0 0 0 0 0 0 0 0 0 0 0.09 0"/>
<feBlend mode="normal" in2="BackgroundImageFix" result="effect1_dropShadow_473_3777"/>
<feBlend mode="normal" in="SourceGraphic" in2="effect1_dropShadow_473_3777" result="shape"/>
</filter>
<clipPath id="clip0_473_3777">
<rect width="402" height="874" fill="white"/>
</clipPath>
</defs>
</svg>
