<svg width="402" height="874" viewBox="0 0 402 874" fill="none" xmlns="http://www.w3.org/2000/svg">
<rect width="402" height="874" fill="url(#paint0_linear_479_3800)"/>
<path d="M156.38 71.98H165.24V84.26H156.38V71.98ZM162.62 74.08H159V82.18H162.62V74.08ZM167.64 70.26H170.32V88.78H167.64V70.26ZM169.74 77.24H173V79.42H169.74V77.24ZM186.918 70.22H189.578V88.8H186.918V70.22ZM179.598 71.52C180.545 71.52 181.385 71.7933 182.118 72.34C182.852 72.8733 183.425 73.64 183.838 74.64C184.265 75.6267 184.478 76.7933 184.478 78.14C184.478 79.5 184.265 80.68 183.838 81.68C183.425 82.6667 182.852 83.4333 182.118 83.98C181.385 84.5133 180.545 84.78 179.598 84.78C178.665 84.78 177.832 84.5133 177.098 83.98C176.365 83.4333 175.785 82.6667 175.358 81.68C174.945 80.68 174.738 79.5 174.738 78.14C174.738 76.7933 174.945 75.6267 175.358 74.64C175.785 73.64 176.365 72.8733 177.098 72.34C177.832 71.7933 178.665 71.52 179.598 71.52ZM179.598 73.94C179.145 73.94 178.745 74.1 178.398 74.42C178.052 74.74 177.778 75.2133 177.578 75.84C177.392 76.4533 177.298 77.22 177.298 78.14C177.298 79.0467 177.392 79.82 177.578 80.46C177.778 81.0867 178.052 81.56 178.398 81.88C178.745 82.2 179.145 82.36 179.598 82.36C180.065 82.36 180.472 82.2 180.818 81.88C181.165 81.56 181.432 81.0867 181.618 80.46C181.818 79.82 181.918 79.0467 181.918 78.14C181.918 77.22 181.818 76.4533 181.618 75.84C181.432 75.2133 181.165 74.74 180.818 74.42C180.472 74.1 180.065 73.94 179.598 73.94ZM206.157 70.26H208.677V88.78H206.157V70.26ZM200.717 77H203.197V79.32H200.717V77ZM202.477 70.6H204.957V87.9H202.477V70.6ZM192.737 72.34H201.177V74.46H192.737V72.34ZM192.717 84.58L192.437 82.4C193.01 82.4 193.67 82.4 194.417 82.4C195.164 82.3867 195.944 82.3667 196.757 82.34C197.57 82.3 198.377 82.2533 199.177 82.2C199.99 82.1333 200.75 82.0533 201.457 81.96L201.617 83.88C200.67 84.0933 199.65 84.2533 198.557 84.36C197.464 84.4533 196.404 84.5133 195.377 84.54C194.364 84.5667 193.477 84.58 192.717 84.58ZM193.877 73.68H196.277V82.98H193.877V73.68ZM197.617 73.68H199.997V82.98H197.617V73.68ZM223.715 70.22H226.375V88.8H223.715V70.22ZM216.395 71.52C217.342 71.52 218.182 71.7933 218.915 72.34C219.649 72.8733 220.222 73.64 220.635 74.64C221.062 75.6267 221.275 76.7933 221.275 78.14C221.275 79.5 221.062 80.68 220.635 81.68C220.222 82.6667 219.649 83.4333 218.915 83.98C218.182 84.5133 217.342 84.78 216.395 84.78C215.462 84.78 214.629 84.5133 213.895 83.98C213.162 83.4333 212.582 82.6667 212.155 81.68C211.742 80.68 211.535 79.5 211.535 78.14C211.535 76.7933 211.742 75.6267 212.155 74.64C212.582 73.64 213.162 72.8733 213.895 72.34C214.629 71.7933 215.462 71.52 216.395 71.52ZM216.395 73.94C215.942 73.94 215.542 74.1 215.195 74.42C214.849 74.74 214.575 75.2133 214.375 75.84C214.189 76.4533 214.095 77.22 214.095 78.14C214.095 79.0467 214.189 79.82 214.375 80.46C214.575 81.0867 214.849 81.56 215.195 81.88C215.542 82.2 215.942 82.36 216.395 82.36C216.862 82.36 217.269 82.2 217.615 81.88C217.962 81.56 218.229 81.0867 218.415 80.46C218.615 79.82 218.715 79.0467 218.715 78.14C218.715 77.22 218.615 76.4533 218.415 75.84C218.229 75.2133 217.962 74.74 217.615 74.42C217.269 74.1 216.862 73.94 216.395 73.94ZM233.874 73.18H235.994V75.26C235.994 76.3267 235.88 77.3733 235.654 78.4C235.44 79.4267 235.114 80.3933 234.674 81.3C234.247 82.1933 233.707 82.9867 233.054 83.68C232.4 84.36 231.64 84.9 230.774 85.3L229.254 83.2C230.027 82.84 230.7 82.3733 231.274 81.8C231.86 81.2267 232.34 80.5867 232.714 79.88C233.1 79.16 233.387 78.4067 233.574 77.62C233.774 76.82 233.874 76.0333 233.874 75.26V73.18ZM234.454 73.18H236.554V75.26C236.554 75.9933 236.647 76.74 236.834 77.5C237.034 78.2467 237.32 78.96 237.694 79.64C238.067 80.3067 238.54 80.9067 239.114 81.44C239.687 81.9733 240.367 82.4 241.154 82.72L239.694 84.84C238.814 84.4533 238.047 83.9333 237.394 83.28C236.74 82.6267 236.194 81.8733 235.754 81.02C235.314 80.1667 234.987 79.2533 234.774 78.28C234.56 77.2933 234.454 76.2867 234.454 75.26V73.18ZM229.994 72.02H240.394V74.22H229.994V72.02ZM242.114 70.26H244.774V88.78H242.114V70.26Z" fill="black"/>
<rect x="21.5" y="223.5" width="359" height="479" rx="26.5" fill="white"/>
<rect x="21.5" y="223.5" width="359" height="479" rx="26.5" stroke="#DBE9F9"/>
<defs>
<linearGradient id="paint0_linear_479_3800" x1="201" y1="0" x2="201" y2="874" gradientUnits="userSpaceOnUse">
<stop offset="0.269231" stop-color="white"/>
<stop offset="1" stop-color="#E9EAEF"/>
</linearGradient>
</defs>
</svg>
