<svg width="402" height="874" viewBox="0 0 402 874" fill="none" xmlns="http://www.w3.org/2000/svg">
<rect width="402" height="874" fill="white"/>
<path d="M146.421 103.784H157.437V118.928H146.421V103.784ZM153.621 106.808H150.237V115.904H153.621V106.808ZM159.789 101.768H163.677V124.28H159.789V101.768ZM162.837 109.976H166.701V113.144H162.837V109.976ZM182.775 101.72H186.663V124.328H182.775V101.72ZM174.399 103.208C175.551 103.208 176.583 103.544 177.495 104.216C178.407 104.872 179.119 105.808 179.631 107.024C180.159 108.24 180.423 109.68 180.423 111.344C180.423 113.024 180.159 114.48 179.631 115.712C179.119 116.928 178.407 117.872 177.495 118.544C176.583 119.2 175.551 119.528 174.399 119.528C173.247 119.528 172.215 119.2 171.303 118.544C170.391 117.872 169.671 116.928 169.143 115.712C168.631 114.48 168.375 113.024 168.375 111.344C168.375 109.68 168.631 108.24 169.143 107.024C169.671 105.808 170.391 104.872 171.303 104.216C172.215 103.544 173.247 103.208 174.399 103.208ZM174.399 106.736C173.935 106.736 173.527 106.904 173.175 107.24C172.839 107.56 172.575 108.064 172.383 108.752C172.191 109.424 172.095 110.288 172.095 111.344C172.095 112.4 172.191 113.272 172.383 113.96C172.575 114.648 172.839 115.16 173.175 115.496C173.527 115.832 173.935 116 174.399 116C174.863 116 175.263 115.832 175.599 115.496C175.951 115.16 176.223 114.648 176.415 113.96C176.607 113.272 176.703 112.4 176.703 111.344C176.703 110.288 176.607 109.424 176.415 108.752C176.223 108.064 175.951 107.56 175.599 107.24C175.263 106.904 174.863 106.736 174.399 106.736ZM205.857 101.768H209.529V124.28H205.857V101.768ZM199.689 109.76H202.329V113.144H199.689V109.76ZM201.321 102.128H204.921V123.296H201.321V102.128ZM189.945 104.12H200.169V107.168H189.945V104.12ZM189.993 119.408L189.609 116.288C190.297 116.288 191.081 116.288 191.961 116.288C192.857 116.272 193.793 116.248 194.769 116.216C195.761 116.168 196.737 116.112 197.697 116.048C198.673 115.968 199.585 115.872 200.433 115.76L200.673 118.52C199.521 118.792 198.289 118.992 196.977 119.12C195.665 119.248 194.401 119.328 193.185 119.36C191.969 119.392 190.905 119.408 189.993 119.408ZM191.073 106.064H194.529V117.08H191.073V106.064ZM195.537 106.064H198.993V117.08H195.537V106.064ZM226.731 101.72H230.619V124.328H226.731V101.72ZM218.355 103.208C219.507 103.208 220.539 103.544 221.451 104.216C222.363 104.872 223.075 105.808 223.587 107.024C224.115 108.24 224.379 109.68 224.379 111.344C224.379 113.024 224.115 114.48 223.587 115.712C223.075 116.928 222.363 117.872 221.451 118.544C220.539 119.2 219.507 119.528 218.355 119.528C217.203 119.528 216.171 119.2 215.259 118.544C214.347 117.872 213.627 116.928 213.099 115.712C212.587 114.48 212.331 113.024 212.331 111.344C212.331 109.68 212.587 108.24 213.099 107.024C213.627 105.808 214.347 104.872 215.259 104.216C216.171 103.544 217.203 103.208 218.355 103.208ZM218.355 106.736C217.891 106.736 217.483 106.904 217.131 107.24C216.795 107.56 216.531 108.064 216.339 108.752C216.147 109.424 216.051 110.288 216.051 111.344C216.051 112.4 216.147 113.272 216.339 113.96C216.531 114.648 216.795 115.16 217.131 115.496C217.483 115.832 217.891 116 218.355 116C218.819 116 219.219 115.832 219.555 115.496C219.907 115.16 220.179 114.648 220.371 113.96C220.563 113.272 220.659 112.4 220.659 111.344C220.659 110.288 220.563 109.424 220.371 108.752C220.179 108.064 219.907 107.56 219.555 107.24C219.219 106.904 218.819 106.736 218.355 106.736ZM238.893 105.488H241.965V107.408C241.965 108.768 241.853 110.096 241.629 111.392C241.405 112.688 241.045 113.904 240.549 115.04C240.053 116.176 239.405 117.176 238.605 118.04C237.805 118.904 236.829 119.592 235.677 120.104L233.493 117.056C234.501 116.608 235.349 116.032 236.037 115.328C236.741 114.624 237.301 113.84 237.717 112.976C238.133 112.112 238.429 111.208 238.605 110.264C238.797 109.304 238.893 108.352 238.893 107.408V105.488ZM239.781 105.488H242.829V107.408C242.829 108.288 242.917 109.184 243.093 110.096C243.285 110.992 243.581 111.848 243.981 112.664C244.397 113.48 244.941 114.216 245.613 114.872C246.301 115.528 247.149 116.064 248.157 116.48L246.069 119.528C244.917 119.048 243.941 118.392 243.141 117.56C242.341 116.728 241.693 115.776 241.197 114.704C240.701 113.616 240.341 112.456 240.117 111.224C239.893 109.976 239.781 108.704 239.781 107.408V105.488ZM234.477 103.832H247.149V107H234.477V103.832ZM248.709 101.768H252.597V124.28H248.709V101.768Z" fill="#002738"/>
<rect width="402" height="150" transform="translate(0 148)" fill="#FBFBFB"/>
<g filter="url(#filter0_i_172_864)">
<rect y="148" width="402" height="150" fill="#F3F4F4"/>
</g>
<defs>
<filter id="filter0_i_172_864" x="0" y="148" width="402" height="154" filterUnits="userSpaceOnUse" color-interpolation-filters="sRGB">
<feFlood flood-opacity="0" result="BackgroundImageFix"/>
<feBlend mode="normal" in="SourceGraphic" in2="BackgroundImageFix" result="shape"/>
<feColorMatrix in="SourceAlpha" type="matrix" values="0 0 0 0 0 0 0 0 0 0 0 0 0 0 0 0 0 0 127 0" result="hardAlpha"/>
<feOffset dy="4"/>
<feGaussianBlur stdDeviation="2"/>
<feComposite in2="hardAlpha" operator="arithmetic" k2="-1" k3="1"/>
<feColorMatrix type="matrix" values="0 0 0 0 0 0 0 0 0 0 0 0 0 0 0 0 0 0 0.25 0"/>
<feBlend mode="normal" in2="shape" result="effect1_innerShadow_172_864"/>
</filter>
</defs>
</svg>
