<svg width="300" height="57" viewBox="0 0 300 57" fill="none" xmlns="http://www.w3.org/2000/svg">
<rect width="300" height="57" rx="14" fill="#1E59DA"/>
<path d="M82.1086 21.2H84.1486C84.1486 22.56 84.0286 23.88 83.7886 25.16C83.5619 26.4267 83.1419 27.64 82.5286 28.8C81.9286 29.9467 81.0886 31.02 80.0086 32.02C78.9419 33.02 77.5753 33.94 75.9086 34.78L74.7886 33.16C76.2153 32.4533 77.4019 31.68 78.3486 30.84C79.2953 30 80.0419 29.1 80.5886 28.14C81.1353 27.1667 81.5219 26.1267 81.7486 25.02C81.9886 23.9 82.1086 22.7133 82.1086 21.46V21.2ZM75.8486 21.2H83.3486V22.88H75.8486V21.2ZM82.0086 25.72V27.32L75.1886 27.98L74.9086 26.16L82.0086 25.72ZM86.7886 19.36H88.8886V37.64H86.7886V19.36ZM88.3486 26.58H91.6486V28.32H88.3486V26.58ZM100.507 21.2H102.547C102.547 22.56 102.427 23.88 102.187 25.16C101.96 26.4267 101.54 27.64 100.927 28.8C100.327 29.9467 99.487 31.02 98.407 32.02C97.3404 33.02 95.9737 33.94 94.307 34.78L93.187 33.16C94.6137 32.4533 95.8004 31.68 96.747 30.84C97.6937 30 98.4404 29.1 98.987 28.14C99.5337 27.1667 99.9204 26.1267 100.147 25.02C100.387 23.9 100.507 22.7133 100.507 21.46V21.2ZM94.247 21.2H101.747V22.88H94.247V21.2ZM100.407 25.72V27.32L93.587 27.98L93.307 26.16L100.407 25.72ZM105.187 19.36H107.287V37.64H105.187V19.36ZM106.747 26.58H110.047V28.32H106.747V26.58ZM118.725 29.68H120.825V34.06H118.725V29.68ZM119.785 20.46C121.079 20.46 122.225 20.66 123.225 21.06C124.239 21.46 125.039 22.0267 125.625 22.76C126.212 23.4933 126.505 24.3533 126.505 25.34C126.505 26.34 126.212 27.2067 125.625 27.94C125.039 28.6733 124.239 29.2467 123.225 29.66C122.225 30.06 121.079 30.26 119.785 30.26C118.492 30.26 117.339 30.06 116.325 29.66C115.312 29.2467 114.512 28.6733 113.925 27.94C113.339 27.2067 113.045 26.34 113.045 25.34C113.045 24.3533 113.339 23.4933 113.925 22.76C114.512 22.0267 115.312 21.46 116.325 21.06C117.339 20.66 118.492 20.46 119.785 20.46ZM119.785 22.12C118.865 22.12 118.052 22.2533 117.345 22.52C116.652 22.7733 116.105 23.14 115.705 23.62C115.305 24.1 115.105 24.6733 115.105 25.34C115.105 26.0067 115.305 26.5867 115.705 27.08C116.105 27.56 116.652 27.9333 117.345 28.2C118.052 28.4533 118.865 28.58 119.785 28.58C120.692 28.58 121.499 28.4533 122.205 28.2C122.912 27.9333 123.465 27.56 123.865 27.08C124.265 26.5867 124.465 26.0067 124.465 25.34C124.465 24.6733 124.265 24.1 123.865 23.62C123.465 23.14 122.912 22.7733 122.205 22.52C121.499 22.2533 120.692 22.12 119.785 22.12ZM111.525 33.68H128.085V35.4H111.525V33.68ZM129.924 33.78H146.484V35.5H129.924V33.78ZM137.124 30.06H139.224V34.48H137.124V30.06ZM131.884 20.64H144.524V26.44H133.984V29.82H131.924V24.78H142.444V22.34H131.884V20.64ZM131.924 28.98H144.944V30.66H131.924V28.98ZM158.178 20.88H159.898V23.88C159.898 24.9867 159.778 26.0533 159.538 27.08C159.298 28.1067 158.944 29.0667 158.478 29.96C158.024 30.8533 157.471 31.64 156.818 32.32C156.178 33 155.444 33.54 154.618 33.94L153.358 32.22C154.091 31.8867 154.751 31.4333 155.338 30.86C155.938 30.2733 156.444 29.6067 156.858 28.86C157.284 28.1133 157.611 27.3133 157.838 26.46C158.064 25.6067 158.178 24.7467 158.178 23.88V20.88ZM158.558 20.88H160.278V23.88C160.278 24.72 160.384 25.5467 160.598 26.36C160.824 27.1733 161.144 27.94 161.558 28.66C161.971 29.38 162.471 30.0133 163.058 30.56C163.644 31.1067 164.291 31.5467 164.998 31.88L163.778 33.56C162.964 33.1733 162.238 32.6533 161.598 32C160.958 31.3467 160.411 30.5933 159.958 29.74C159.504 28.8867 159.158 27.96 158.918 26.96C158.678 25.96 158.558 24.9333 158.558 23.88V20.88ZM166.458 19.36H168.558V37.68H166.458V19.36ZM176.216 21.24H177.936V22.58C177.936 23.7133 177.736 24.78 177.336 25.78C176.936 26.7667 176.356 27.6267 175.596 28.36C174.849 29.08 173.929 29.6333 172.836 30.02L171.756 28.38C172.716 28.06 173.529 27.6 174.196 27C174.863 26.4 175.363 25.72 175.696 24.96C176.043 24.1867 176.216 23.3933 176.216 22.58V21.24ZM176.616 21.24H178.336V22.56C178.336 23.3333 178.503 24.08 178.836 24.8C179.169 25.52 179.656 26.16 180.296 26.72C180.949 27.28 181.736 27.72 182.656 28.04L181.596 29.68C180.543 29.32 179.643 28.7867 178.896 28.08C178.149 27.36 177.583 26.5267 177.196 25.58C176.809 24.6333 176.616 23.6267 176.616 22.56V21.24ZM172.336 20.56H182.156V22.24H172.336V20.56ZM184.096 19.38H186.176V30.38H184.096V19.38ZM185.616 24H188.756V25.74H185.616V24ZM174.176 31.28H186.176V37.66H184.096V32.98H174.176V31.28ZM202.395 19.38H204.495V37.66H202.395V19.38ZM204.015 26.72H207.315V28.46H204.015V26.72ZM190.215 22.2H200.935V23.88H190.215V22.2ZM195.655 25.18C196.521 25.18 197.295 25.3667 197.975 25.74C198.655 26.1 199.188 26.6 199.575 27.24C199.975 27.88 200.175 28.6133 200.175 29.44C200.175 30.28 199.975 31.02 199.575 31.66C199.188 32.3 198.655 32.8067 197.975 33.18C197.295 33.54 196.515 33.72 195.635 33.72C194.768 33.72 193.995 33.54 193.315 33.18C192.635 32.8067 192.095 32.3 191.695 31.66C191.308 31.02 191.115 30.28 191.115 29.44C191.115 28.6133 191.308 27.88 191.695 27.24C192.095 26.6 192.635 26.1 193.315 25.74C193.995 25.3667 194.775 25.18 195.655 25.18ZM195.635 26.9C195.155 26.9 194.721 27.0067 194.335 27.22C193.948 27.4333 193.641 27.7333 193.415 28.12C193.201 28.4933 193.095 28.9333 193.095 29.44C193.095 29.96 193.201 30.4133 193.415 30.8C193.641 31.1733 193.948 31.4667 194.335 31.68C194.721 31.8933 195.155 32 195.635 32C196.128 32 196.561 31.8933 196.935 31.68C197.321 31.4667 197.621 31.1733 197.835 30.8C198.061 30.4133 198.175 29.96 198.175 29.44C198.175 28.9333 198.061 28.4933 197.835 28.12C197.621 27.7333 197.321 27.4333 196.935 27.22C196.561 27.0067 196.128 26.9 195.635 26.9ZM194.575 19.62H196.675V22.9H194.575V19.62ZM221.713 19.36H223.813V37.64H221.713V19.36ZM216.333 21.3H218.413C218.413 22.66 218.266 23.96 217.973 25.2C217.68 26.44 217.2 27.62 216.533 28.74C215.88 29.8467 215.013 30.8733 213.933 31.82C212.866 32.7667 211.546 33.62 209.973 34.38L208.853 32.72C210.626 31.8667 212.06 30.8933 213.153 29.8C214.246 28.7067 215.046 27.4867 215.553 26.14C216.073 24.78 216.333 23.2867 216.333 21.66V21.3ZM209.753 21.3H217.273V22.98H209.753V21.3Z" fill="white"/>
</svg>
