<svg width="402" height="874" viewBox="0 0 402 874" fill="none" xmlns="http://www.w3.org/2000/svg">
<rect width="402" height="874" fill="#F3F4F4"/>
<path d="M44.192 102.848H50.048V105.416H44.192V102.848ZM38.144 97.592H40.712V100.832C40.712 102.224 40.592 103.576 40.352 104.888C40.112 106.2 39.744 107.424 39.248 108.56C38.752 109.696 38.12 110.696 37.352 111.56C36.6 112.424 35.704 113.12 34.664 113.648L32.672 111.104C33.616 110.656 34.424 110.072 35.096 109.352C35.784 108.632 36.352 107.816 36.8 106.904C37.264 105.976 37.6 105 37.808 103.976C38.032 102.936 38.144 101.888 38.144 100.832V97.592ZM38.792 97.592H41.336V100.832C41.336 101.872 41.44 102.904 41.648 103.928C41.856 104.936 42.168 105.88 42.584 106.76C43.016 107.64 43.568 108.424 44.24 109.112C44.912 109.784 45.712 110.328 46.64 110.744L44.72 113.288C43.68 112.776 42.784 112.104 42.032 111.272C41.28 110.424 40.664 109.456 40.184 108.368C39.72 107.28 39.368 106.096 39.128 104.816C38.904 103.536 38.792 102.208 38.792 100.832V97.592ZM48.44 95.864H51.632V118.16H48.44V95.864ZM70.3021 95.864H73.4941V118.16H70.3021V95.864ZM56.1421 97.64H59.3101V103.064H63.9181V97.64H67.0861V112.976H56.1421V97.64ZM59.3101 105.536V110.432H63.9181V105.536H59.3101ZM85.3963 97.184H88.1562V98.792C88.1562 99.752 88.0203 100.688 87.7483 101.6C87.4923 102.496 87.1083 103.344 86.5963 104.144C86.0843 104.944 85.4523 105.672 84.7003 106.328C83.9643 106.968 83.1163 107.52 82.1562 107.984C81.1963 108.448 80.1403 108.792 78.9883 109.016L77.6203 106.352C78.6123 106.176 79.5163 105.912 80.3323 105.56C81.1643 105.192 81.8923 104.752 82.5163 104.24C83.1403 103.728 83.6683 103.176 84.1003 102.584C84.5323 101.976 84.8523 101.352 85.0603 100.712C85.2843 100.056 85.3963 99.416 85.3963 98.792V97.184ZM86.0203 97.184H88.8043V98.792C88.8043 99.432 88.9083 100.08 89.1163 100.736C89.3403 101.392 89.6603 102.024 90.0763 102.632C90.5083 103.224 91.0363 103.768 91.6603 104.264C92.2843 104.76 93.0043 105.192 93.8203 105.56C94.6363 105.912 95.5563 106.176 96.5803 106.352L95.2123 109.016C94.0603 108.792 93.0043 108.448 92.0443 107.984C91.0843 107.52 90.2283 106.968 89.4763 106.328C88.7403 105.688 88.1083 104.968 87.5803 104.168C87.0683 103.368 86.6763 102.512 86.4043 101.6C86.1483 100.688 86.0203 99.752 86.0203 98.792V97.184ZM77.1403 112.808H97.2763V115.424H77.1403V112.808ZM99.2184 105.872H119.33V108.176H99.2184V105.872ZM101.474 109.304H116.954V114.584H104.666V116.48H101.498V112.568H113.81V111.464H101.474V109.304ZM101.498 115.784H117.578V117.944H101.498V115.784ZM101.666 96.272H116.882V101.528H104.858V103.328H101.714V99.512H113.738V98.432H101.666V96.272ZM101.714 102.68H117.29V104.84H101.714V102.68ZM142.513 95.864H145.705V118.16H142.513V95.864ZM133.729 97.424C134.865 97.424 135.873 97.752 136.753 98.408C137.633 99.048 138.321 99.968 138.817 101.168C139.329 102.352 139.585 103.752 139.585 105.368C139.585 107 139.329 108.416 138.817 109.616C138.321 110.8 137.633 111.72 136.753 112.376C135.873 113.016 134.865 113.336 133.729 113.336C132.609 113.336 131.609 113.016 130.729 112.376C129.849 111.72 129.153 110.8 128.641 109.616C128.145 108.416 127.897 107 127.897 105.368C127.897 103.752 128.145 102.352 128.641 101.168C129.153 99.968 129.849 99.048 130.729 98.408C131.609 97.752 132.609 97.424 133.729 97.424ZM133.729 100.328C133.185 100.328 132.705 100.52 132.289 100.904C131.873 101.288 131.545 101.856 131.305 102.608C131.081 103.344 130.969 104.264 130.969 105.368C130.969 106.456 131.081 107.384 131.305 108.152C131.545 108.904 131.873 109.472 132.289 109.856C132.705 110.24 133.185 110.432 133.729 110.432C134.289 110.432 134.777 110.24 135.193 109.856C135.609 109.472 135.929 108.904 136.153 108.152C136.393 107.384 136.513 106.456 136.513 105.368C136.513 104.264 136.393 103.344 136.153 102.608C135.929 101.856 135.609 101.288 135.193 100.904C134.777 100.52 134.289 100.328 133.729 100.328ZM153.863 103.328H157.031V107.408H153.863V103.328ZM161.663 103.328H164.855V107.408H161.663V103.328ZM149.327 106.448H169.439V108.944H149.327V106.448ZM159.335 110.072C161.735 110.072 163.623 110.424 164.999 111.128C166.375 111.816 167.063 112.808 167.063 114.104C167.063 115.384 166.375 116.376 164.999 117.08C163.623 117.784 161.735 118.136 159.335 118.136C156.935 118.136 155.047 117.784 153.671 117.08C152.311 116.376 151.631 115.384 151.631 114.104C151.631 112.808 152.311 111.816 153.671 111.128C155.047 110.424 156.935 110.072 159.335 110.072ZM159.335 112.472C158.343 112.472 157.511 112.536 156.839 112.664C156.183 112.776 155.687 112.952 155.351 113.192C155.015 113.432 154.847 113.736 154.847 114.104C154.847 114.472 155.015 114.784 155.351 115.04C155.687 115.28 156.183 115.456 156.839 115.568C157.511 115.68 158.343 115.736 159.335 115.736C160.327 115.736 161.151 115.68 161.807 115.568C162.479 115.456 162.983 115.28 163.319 115.04C163.655 114.784 163.823 114.472 163.823 114.104C163.823 113.736 163.655 113.432 163.319 113.192C162.983 112.952 162.479 112.776 161.807 112.664C161.151 112.536 160.327 112.472 159.335 112.472ZM159.383 96.224C161.031 96.224 162.455 96.4 163.655 96.752C164.871 97.088 165.807 97.576 166.463 98.216C167.119 98.856 167.447 99.616 167.447 100.496C167.447 101.376 167.119 102.136 166.463 102.776C165.807 103.4 164.871 103.888 163.655 104.24C162.455 104.576 161.031 104.744 159.383 104.744C157.767 104.744 156.351 104.576 155.135 104.24C153.919 103.888 152.983 103.4 152.327 102.776C151.671 102.136 151.343 101.376 151.343 100.496C151.343 99.616 151.671 98.856 152.327 98.216C152.983 97.576 153.919 97.088 155.135 96.752C156.351 96.4 157.767 96.224 159.383 96.224ZM159.383 98.648C158.391 98.648 157.535 98.72 156.815 98.864C156.095 98.992 155.551 99.192 155.183 99.464C154.831 99.736 154.655 100.08 154.655 100.496C154.655 100.896 154.831 101.232 155.183 101.504C155.551 101.776 156.095 101.984 156.815 102.128C157.535 102.256 158.391 102.32 159.383 102.32C160.407 102.32 161.271 102.256 161.975 102.128C162.679 101.984 163.215 101.776 163.583 101.504C163.951 101.232 164.135 100.896 164.135 100.496C164.135 100.08 163.951 99.736 163.583 99.464C163.215 99.192 162.679 98.992 161.975 98.864C161.271 98.72 160.407 98.648 159.383 98.648ZM185.661 95.912H188.853V118.136H185.661V95.912ZM188.133 104.576H192.045V107.216H188.133V104.576ZM171.309 99.176H184.269V101.72H171.309V99.176ZM177.837 102.992C178.909 102.992 179.869 103.224 180.717 103.688C181.565 104.136 182.229 104.752 182.709 105.536C183.205 106.32 183.453 107.232 183.453 108.272C183.453 109.312 183.205 110.232 182.709 111.032C182.229 111.816 181.565 112.44 180.717 112.904C179.885 113.352 178.925 113.576 177.837 113.576C176.765 113.576 175.797 113.352 174.933 112.904C174.085 112.44 173.413 111.816 172.917 111.032C172.437 110.232 172.197 109.312 172.197 108.272C172.197 107.232 172.437 106.32 172.917 105.536C173.413 104.752 174.085 104.136 174.933 103.688C175.797 103.224 176.765 102.992 177.837 102.992ZM177.837 105.584C177.325 105.584 176.877 105.688 176.493 105.896C176.109 106.104 175.805 106.408 175.581 106.808C175.357 107.208 175.245 107.696 175.245 108.272C175.245 108.832 175.357 109.32 175.581 109.736C175.805 110.136 176.109 110.448 176.493 110.672C176.877 110.88 177.325 110.984 177.837 110.984C178.333 110.984 178.773 110.88 179.157 110.672C179.541 110.448 179.845 110.136 180.069 109.736C180.293 109.32 180.405 108.832 180.405 108.272C180.405 107.696 180.293 107.208 180.069 106.808C179.845 106.408 179.541 106.104 179.157 105.896C178.773 105.688 178.333 105.584 177.837 105.584ZM176.205 96.272H179.421V100.16H176.205V96.272ZM208.819 95.888H212.011V118.112H208.819V95.888ZM202.267 98.192H205.411C205.411 99.888 205.243 101.512 204.907 103.064C204.587 104.6 204.043 106.048 203.275 107.408C202.523 108.768 201.483 110.032 200.155 111.2C198.843 112.352 197.203 113.408 195.235 114.368L193.555 111.848C195.699 110.808 197.403 109.664 198.667 108.416C199.947 107.152 200.867 105.728 201.427 104.144C201.987 102.544 202.267 100.752 202.267 98.768V98.192ZM194.755 98.192H203.755V100.736H194.755V98.192ZM228.762 96.776C229.882 96.776 230.882 96.984 231.762 97.4C232.642 97.8 233.33 98.36 233.826 99.08C234.338 99.784 234.594 100.6 234.594 101.528C234.594 102.456 234.338 103.28 233.826 104C233.33 104.704 232.642 105.264 231.762 105.68C230.882 106.08 229.882 106.28 228.762 106.28C227.642 106.28 226.642 106.08 225.762 105.68C224.882 105.264 224.186 104.704 223.674 104C223.178 103.28 222.93 102.456 222.93 101.528C222.93 100.6 223.178 99.784 223.674 99.08C224.186 98.36 224.882 97.8 225.762 97.4C226.642 96.984 227.642 96.776 228.762 96.776ZM228.762 99.368C228.234 99.368 227.762 99.456 227.346 99.632C226.93 99.792 226.602 100.032 226.362 100.352C226.122 100.672 226.002 101.064 226.002 101.528C226.002 101.992 226.122 102.384 226.362 102.704C226.602 103.008 226.93 103.248 227.346 103.424C227.762 103.584 228.234 103.664 228.762 103.664C229.306 103.664 229.786 103.584 230.202 103.424C230.618 103.248 230.946 103.008 231.186 102.704C231.426 102.384 231.546 101.992 231.546 101.528C231.546 101.064 231.426 100.672 231.186 100.352C230.946 100.032 230.618 99.792 230.202 99.632C229.786 99.456 229.306 99.368 228.762 99.368ZM227.25 108.512H230.466V117.44H227.25V108.512ZM236.97 95.888H240.162V118.112H236.97V95.888ZM221.994 110.192L221.634 107.6C222.914 107.6 224.346 107.592 225.93 107.576C227.53 107.544 229.17 107.472 230.85 107.36C232.53 107.248 234.154 107.072 235.722 106.832L235.914 109.16C234.314 109.48 232.69 109.712 231.042 109.856C229.394 110 227.794 110.088 226.242 110.12C224.69 110.152 223.274 110.176 221.994 110.192ZM243.616 99.248H254.248V101.768H243.616V99.248ZM248.968 102.776C249.912 102.776 250.744 103 251.464 103.448C252.2 103.896 252.776 104.52 253.192 105.32C253.624 106.104 253.84 107.016 253.84 108.056C253.84 109.096 253.624 110.016 253.192 110.816C252.776 111.6 252.2 112.216 251.464 112.664C250.744 113.112 249.912 113.336 248.968 113.336C248.024 113.336 247.184 113.112 246.448 112.664C245.712 112.216 245.136 111.6 244.72 110.816C244.304 110.016 244.096 109.096 244.096 108.056C244.096 107.016 244.304 106.104 244.72 105.32C245.136 104.52 245.712 103.896 246.448 103.448C247.2 103 248.04 102.776 248.968 102.776ZM248.968 105.416C248.584 105.416 248.232 105.52 247.912 105.728C247.592 105.936 247.344 106.24 247.168 106.64C246.992 107.024 246.904 107.496 246.904 108.056C246.904 108.616 246.992 109.096 247.168 109.496C247.344 109.896 247.592 110.2 247.912 110.408C248.232 110.6 248.584 110.696 248.968 110.696C249.368 110.696 249.72 110.6 250.024 110.408C250.328 110.2 250.568 109.896 250.744 109.496C250.92 109.096 251.008 108.616 251.008 108.056C251.008 107.496 250.92 107.024 250.744 106.64C250.568 106.24 250.328 105.936 250.024 105.728C249.72 105.52 249.368 105.416 248.968 105.416ZM259.696 95.888H262.72V118.112H259.696V95.888ZM257.032 104.936H260.68V107.504H257.032V104.936ZM255.016 96.296H257.992V117.176H255.016V96.296ZM247.408 96.488H250.552V100.832H247.408V96.488ZM276.926 102.848H282.782V105.416H276.926V102.848ZM270.878 97.592H273.446V100.832C273.446 102.224 273.326 103.576 273.086 104.888C272.846 106.2 272.478 107.424 271.982 108.56C271.486 109.696 270.854 110.696 270.086 111.56C269.334 112.424 268.438 113.12 267.398 113.648L265.406 111.104C266.35 110.656 267.158 110.072 267.83 109.352C268.518 108.632 269.086 107.816 269.534 106.904C269.998 105.976 270.334 105 270.542 103.976C270.766 102.936 270.878 101.888 270.878 100.832V97.592ZM271.526 97.592H274.07V100.832C274.07 101.872 274.174 102.904 274.382 103.928C274.59 104.936 274.902 105.88 275.318 106.76C275.75 107.64 276.302 108.424 276.974 109.112C277.646 109.784 278.446 110.328 279.374 110.744L277.454 113.288C276.414 112.776 275.518 112.104 274.766 111.272C274.014 110.424 273.398 109.456 272.918 108.368C272.454 107.28 272.102 106.096 271.862 104.816C271.638 103.536 271.526 102.208 271.526 100.832V97.592ZM281.174 95.864H284.366V118.16H281.174V95.864ZM290.269 101.888H305.677V104.432H290.269V101.888ZM287.797 106.736H307.909V109.28H287.797V106.736ZM290.269 96.68H293.461V103.16H290.269V96.68ZM290.077 115.088H305.797V117.656H290.077V115.088ZM290.077 111.032H293.269V115.784H290.077V111.032ZM48.296 123.888H51.488V146.112H48.296V123.888ZM41.744 126.192H44.888C44.888 127.888 44.72 129.512 44.384 131.064C44.064 132.6 43.52 134.048 42.752 135.408C42 136.768 40.96 138.032 39.632 139.2C38.32 140.352 36.68 141.408 34.712 142.368L33.032 139.848C35.176 138.808 36.88 137.664 38.144 136.416C39.424 135.152 40.344 133.728 40.904 132.144C41.464 130.544 41.744 128.752 41.744 126.768V126.192ZM34.232 126.192H43.232V128.736H34.232V126.192ZM57.6061 124.704H60.7501V126.864H69.4381V124.704H72.6061V133.752H57.6061V124.704ZM60.7501 129.336V131.256H69.4381V129.336H60.7501ZM55.0381 135.648H75.1501V138.168H55.0381V135.648ZM63.4861 132.432H66.6541V136.704H63.4861V132.432ZM57.4861 143.184H72.8941V145.752H57.4861V143.184ZM57.4861 139.488H60.6781V144.144H57.4861V139.488ZM95.1648 129.264H99.3888V131.856H95.1648V129.264ZM98.5008 123.912H101.717V137.112H98.5008V123.912ZM94.1808 137.592C95.7488 137.592 97.1008 137.76 98.2368 138.096C99.3728 138.432 100.245 138.92 100.853 139.56C101.477 140.2 101.789 140.968 101.789 141.864C101.789 143.24 101.109 144.296 99.7488 145.032C98.3888 145.784 96.5328 146.16 94.1808 146.16C91.8288 146.16 89.9728 145.784 88.6128 145.032C87.2528 144.296 86.5728 143.24 86.5728 141.864C86.5728 140.968 86.8768 140.2 87.4848 139.56C88.1088 138.92 88.9888 138.432 90.1248 138.096C91.2608 137.76 92.6128 137.592 94.1808 137.592ZM94.1808 140.016C93.2208 140.016 92.4128 140.088 91.7568 140.232C91.1008 140.36 90.5968 140.56 90.2448 140.832C89.9088 141.104 89.7408 141.448 89.7408 141.864C89.7408 142.28 89.9088 142.632 90.2448 142.92C90.5968 143.192 91.1008 143.4 91.7568 143.544C92.4128 143.672 93.2208 143.736 94.1808 143.736C95.1408 143.736 95.9488 143.672 96.6048 143.544C97.2608 143.4 97.7568 143.192 98.0928 142.92C98.4288 142.632 98.5968 142.28 98.5968 141.864C98.5968 141.448 98.4288 141.104 98.0928 140.832C97.7568 140.56 97.2608 140.36 96.6048 140.232C95.9488 140.088 95.1408 140.016 94.1808 140.016ZM88.2528 126.12H90.8448V127.536C90.8448 128.944 90.6208 130.288 90.1728 131.568C89.7248 132.848 89.0368 133.976 88.1088 134.952C87.1968 135.912 86.0288 136.632 84.6048 137.112L82.9968 134.592C83.9088 134.288 84.6928 133.88 85.3488 133.368C86.0208 132.856 86.5648 132.288 86.9808 131.664C87.4128 131.024 87.7328 130.352 87.9408 129.648C88.1488 128.944 88.2528 128.24 88.2528 127.536V126.12ZM88.9248 126.12H91.4688V127.512C91.4688 128.392 91.6448 129.256 91.9968 130.104C92.3488 130.952 92.8928 131.72 93.6288 132.408C94.3808 133.096 95.3408 133.64 96.5088 134.04L94.9488 136.536C93.5728 136.072 92.4368 135.392 91.5408 134.496C90.6608 133.584 90.0048 132.528 89.5728 131.328C89.1408 130.112 88.9248 128.84 88.9248 127.512V126.12ZM83.8608 125.256H95.8128V127.776H83.8608V125.256ZM105.195 140.952H125.331V143.544H105.195V140.952ZM113.643 136.2H116.811V141.576H113.643V136.2ZM107.307 125.304H110.499V128.736H119.955V125.304H123.123V136.872H107.307V125.304ZM110.499 131.232V134.328H119.955V131.232H110.499ZM141.457 123.864H144.673V146.088H141.457V123.864ZM143.857 132.384H147.769V135H143.857V132.384ZM135.625 126.168H138.769C138.769 128.392 138.449 130.496 137.809 132.48C137.185 134.464 136.145 136.288 134.689 137.952C133.249 139.6 131.297 141.04 128.833 142.272L127.033 139.848C128.985 138.84 130.593 137.704 131.857 136.44C133.137 135.176 134.081 133.744 134.689 132.144C135.313 130.528 135.625 128.728 135.625 126.744V126.168ZM128.257 126.168H137.281V128.736H128.257V126.168ZM170.64 123.912H173.856V135.288H170.64V123.912ZM158.808 136.176H173.856V142.176H162V144.84H158.832V139.872H170.664V138.624H158.808V136.176ZM158.832 143.496H174.456V145.992H158.832V143.496ZM156.264 125.232H168.24V127.704H156.264V125.232ZM156.024 134.904L155.712 132.36C157.008 132.36 158.416 132.352 159.936 132.336C161.456 132.304 163 132.248 164.568 132.168C166.152 132.088 167.656 131.96 169.08 131.784L169.248 134.04C167.776 134.296 166.264 134.48 164.712 134.592C163.176 134.704 161.664 134.784 160.176 134.832C158.688 134.864 157.304 134.888 156.024 134.904ZM158.04 126.36H161.088V133.632H158.04V126.36ZM163.416 126.36H166.488V133.632H163.416V126.36ZM181.822 135.192H185.014V141.408H181.822V135.192ZM189.886 135.192H193.078V141.408H189.886V135.192ZM177.406 140.952H197.542V143.544H177.406V140.952ZM187.438 124.992C189.038 124.992 190.462 125.24 191.71 125.736C192.974 126.232 193.958 126.928 194.662 127.824C195.382 128.704 195.742 129.752 195.742 130.968C195.742 132.168 195.382 133.216 194.662 134.112C193.958 134.992 192.974 135.68 191.71 136.176C190.462 136.672 189.038 136.92 187.438 136.92C185.854 136.92 184.43 136.672 183.166 136.176C181.918 135.68 180.934 134.992 180.214 134.112C179.494 133.216 179.134 132.168 179.134 130.968C179.134 129.752 179.494 128.704 180.214 127.824C180.934 126.928 181.918 126.232 183.166 125.736C184.43 125.24 185.854 124.992 187.438 124.992ZM187.438 127.464C186.414 127.464 185.51 127.608 184.726 127.896C183.958 128.168 183.358 128.56 182.926 129.072C182.494 129.584 182.278 130.216 182.278 130.968C182.278 131.688 182.494 132.312 182.926 132.84C183.358 133.352 183.958 133.752 184.726 134.04C185.51 134.312 186.414 134.448 187.438 134.448C188.478 134.448 189.382 134.312 190.15 134.04C190.934 133.752 191.534 133.352 191.95 132.84C192.382 132.312 192.598 131.688 192.598 130.968C192.598 130.216 192.382 129.584 191.95 129.072C191.534 128.56 190.934 128.168 190.15 127.896C189.382 127.608 188.478 127.464 187.438 127.464ZM199.46 127.248H210.092V129.768H199.46V127.248ZM204.812 130.776C205.756 130.776 206.588 131 207.308 131.448C208.044 131.896 208.62 132.52 209.036 133.32C209.468 134.104 209.684 135.016 209.684 136.056C209.684 137.096 209.468 138.016 209.036 138.816C208.62 139.6 208.044 140.216 207.308 140.664C206.588 141.112 205.756 141.336 204.812 141.336C203.868 141.336 203.028 141.112 202.292 140.664C201.556 140.216 200.98 139.6 200.564 138.816C200.148 138.016 199.94 137.096 199.94 136.056C199.94 135.016 200.148 134.104 200.564 133.32C200.98 132.52 201.556 131.896 202.292 131.448C203.044 131 203.884 130.776 204.812 130.776ZM204.812 133.416C204.428 133.416 204.076 133.52 203.756 133.728C203.436 133.936 203.188 134.24 203.012 134.64C202.836 135.024 202.748 135.496 202.748 136.056C202.748 136.616 202.836 137.096 203.012 137.496C203.188 137.896 203.436 138.2 203.756 138.408C204.076 138.6 204.428 138.696 204.812 138.696C205.212 138.696 205.564 138.6 205.868 138.408C206.172 138.2 206.412 137.896 206.588 137.496C206.764 137.096 206.852 136.616 206.852 136.056C206.852 135.496 206.764 135.024 206.588 134.64C206.412 134.24 206.172 133.936 205.868 133.728C205.564 133.52 205.212 133.416 204.812 133.416ZM215.54 123.888H218.564V146.112H215.54V123.888ZM212.876 132.936H216.524V135.504H212.876V132.936ZM210.86 124.296H213.836V145.176H210.86V124.296ZM203.252 124.488H206.396V128.832H203.252V124.488ZM225.978 135.192H229.17V141.408H225.978V135.192ZM234.042 135.192H237.234V141.408H234.042V135.192ZM221.562 140.952H241.698V143.544H221.562V140.952ZM231.594 124.992C233.194 124.992 234.618 125.24 235.866 125.736C237.13 126.232 238.114 126.928 238.818 127.824C239.538 128.704 239.898 129.752 239.898 130.968C239.898 132.168 239.538 133.216 238.818 134.112C238.114 134.992 237.13 135.68 235.866 136.176C234.618 136.672 233.194 136.92 231.594 136.92C230.01 136.92 228.586 136.672 227.322 136.176C226.074 135.68 225.09 134.992 224.37 134.112C223.65 133.216 223.29 132.168 223.29 130.968C223.29 129.752 223.65 128.704 224.37 127.824C225.09 126.928 226.074 126.232 227.322 125.736C228.586 125.24 230.01 124.992 231.594 124.992ZM231.594 127.464C230.57 127.464 229.666 127.608 228.882 127.896C228.114 128.168 227.514 128.56 227.082 129.072C226.65 129.584 226.434 130.216 226.434 130.968C226.434 131.688 226.65 132.312 227.082 132.84C227.514 133.352 228.114 133.752 228.882 134.04C229.666 134.312 230.57 134.448 231.594 134.448C232.634 134.448 233.538 134.312 234.306 134.04C235.09 133.752 235.69 133.352 236.106 132.84C236.538 132.312 236.754 131.688 236.754 130.968C236.754 130.216 236.538 129.584 236.106 129.072C235.69 128.56 235.09 128.168 234.306 127.896C233.538 127.608 232.634 127.464 231.594 127.464ZM247.777 126.938L247.391 138.785H244.578L244.18 126.938H247.777ZM244.086 142.453C244.086 141.953 244.258 141.539 244.602 141.211C244.953 140.875 245.414 140.707 245.984 140.707C246.562 140.707 247.023 140.875 247.367 141.211C247.711 141.539 247.883 141.953 247.883 142.453C247.883 142.938 247.711 143.348 247.367 143.684C247.023 144.02 246.562 144.188 245.984 144.188C245.414 144.188 244.953 144.02 244.602 143.684C244.258 143.348 244.086 142.938 244.086 142.453Z" fill="#002738"/>
<g filter="url(#filter0_d_248_634)">
<path d="M32 203C32 194.716 38.7157 188 47 188H348C356.284 188 363 194.716 363 203V239C363 247.284 356.284 254 348 254H47C38.7157 254 32 247.284 32 239V203Z" fill="white" shape-rendering="crispEdges"/>
<path d="M180.762 215.72H184.282V217.88H180.762V215.72ZM183.542 211.26H186.222V222.26H183.542V211.26ZM179.942 222.66C181.249 222.66 182.376 222.8 183.322 223.08C184.269 223.36 184.996 223.767 185.502 224.3C186.022 224.833 186.282 225.473 186.282 226.22C186.282 227.367 185.716 228.247 184.582 228.86C183.449 229.487 181.902 229.8 179.942 229.8C177.982 229.8 176.436 229.487 175.302 228.86C174.169 228.247 173.602 227.367 173.602 226.22C173.602 225.473 173.856 224.833 174.362 224.3C174.882 223.767 175.616 223.36 176.562 223.08C177.509 222.8 178.636 222.66 179.942 222.66ZM179.942 224.68C179.142 224.68 178.469 224.74 177.922 224.86C177.376 224.967 176.956 225.133 176.662 225.36C176.382 225.587 176.242 225.873 176.242 226.22C176.242 226.567 176.382 226.86 176.662 227.1C176.956 227.327 177.376 227.5 177.922 227.62C178.469 227.727 179.142 227.78 179.942 227.78C180.742 227.78 181.416 227.727 181.962 227.62C182.509 227.5 182.922 227.327 183.202 227.1C183.482 226.86 183.622 226.567 183.622 226.22C183.622 225.873 183.482 225.587 183.202 225.36C182.922 225.133 182.509 224.967 181.962 224.86C181.416 224.74 180.742 224.68 179.942 224.68ZM175.002 213.1H177.162V214.28C177.162 215.453 176.976 216.573 176.602 217.64C176.229 218.707 175.656 219.647 174.882 220.46C174.122 221.26 173.149 221.86 171.962 222.26L170.622 220.16C171.382 219.907 172.036 219.567 172.582 219.14C173.142 218.713 173.596 218.24 173.942 217.72C174.302 217.187 174.569 216.627 174.742 216.04C174.916 215.453 175.002 214.867 175.002 214.28V213.1ZM175.562 213.1H177.682V214.26C177.682 214.993 177.829 215.713 178.122 216.42C178.416 217.127 178.869 217.767 179.482 218.34C180.109 218.913 180.909 219.367 181.882 219.7L180.582 221.78C179.436 221.393 178.489 220.827 177.742 220.08C177.009 219.32 176.462 218.44 176.102 217.44C175.742 216.427 175.562 215.367 175.562 214.26V213.1ZM171.342 212.38H181.302V214.48H171.342V212.38ZM202.481 211.26H205.021V229.78H202.481V211.26ZM198.941 211.56H201.421V228.96H198.941V211.56ZM196.961 217.24H200.061V219.34H196.961V217.24ZM196.841 221.56H199.941V223.68H196.841V221.56ZM189.101 214.02H197.821V216.14H189.101V214.02ZM193.421 216.98C194.181 216.98 194.854 217.173 195.441 217.56C196.041 217.933 196.507 218.453 196.841 219.12C197.187 219.787 197.361 220.56 197.361 221.44C197.361 222.307 197.187 223.08 196.841 223.76C196.507 224.427 196.041 224.953 195.441 225.34C194.854 225.727 194.181 225.92 193.421 225.92C192.661 225.92 191.981 225.733 191.381 225.36C190.794 224.973 190.327 224.44 189.981 223.76C189.634 223.08 189.461 222.307 189.461 221.44C189.461 220.56 189.634 219.787 189.981 219.12C190.327 218.453 190.794 217.933 191.381 217.56C191.981 217.173 192.661 216.98 193.421 216.98ZM193.421 219.22C193.101 219.22 192.814 219.307 192.561 219.48C192.321 219.653 192.134 219.907 192.001 220.24C191.867 220.573 191.801 220.973 191.801 221.44C191.801 221.907 191.867 222.307 192.001 222.64C192.134 222.973 192.321 223.233 192.561 223.42C192.814 223.593 193.101 223.68 193.421 223.68C193.741 223.68 194.021 223.593 194.261 223.42C194.514 223.233 194.707 222.973 194.841 222.64C194.974 222.307 195.041 221.907 195.041 221.44C195.041 220.973 194.974 220.573 194.841 220.24C194.707 219.907 194.514 219.653 194.261 219.48C194.021 219.307 193.741 219.22 193.421 219.22ZM192.141 211.7H194.761V215.32H192.141V211.7ZM215.879 211.58C217.213 211.58 218.379 211.74 219.379 212.06C220.379 212.367 221.153 212.813 221.699 213.4C222.259 213.973 222.539 214.647 222.539 215.42C222.539 216.207 222.259 216.887 221.699 217.46C221.153 218.033 220.379 218.48 219.379 218.8C218.379 219.107 217.213 219.26 215.879 219.26C214.559 219.26 213.399 219.107 212.399 218.8C211.399 218.48 210.619 218.033 210.059 217.46C209.499 216.887 209.219 216.207 209.219 215.42C209.219 214.647 209.499 213.973 210.059 213.4C210.619 212.813 211.399 212.367 212.399 212.06C213.399 211.74 214.559 211.58 215.879 211.58ZM215.879 213.7C215.106 213.7 214.433 213.767 213.859 213.9C213.299 214.033 212.859 214.227 212.539 214.48C212.233 214.733 212.079 215.047 212.079 215.42C212.079 215.793 212.233 216.113 212.539 216.38C212.859 216.633 213.299 216.827 213.859 216.96C214.433 217.08 215.106 217.14 215.879 217.14C216.666 217.14 217.339 217.08 217.899 216.96C218.473 216.827 218.913 216.633 219.219 216.38C219.526 216.113 219.679 215.793 219.679 215.42C219.679 215.047 219.526 214.733 219.219 214.48C218.913 214.227 218.473 214.033 217.899 213.9C217.339 213.767 216.666 213.7 215.879 213.7ZM207.539 220.22H224.279V222.32H207.539V220.22ZM209.419 227.32H222.639V229.46H209.419V227.32ZM209.419 224.02H212.079V228.54H209.419V224.02ZM213.239 220.96H215.899V225.6H213.239V220.96ZM217.719 220.98H220.379V225.6H217.719V220.98Z" fill="white"/>
</g>
<path d="M53 212C53 207.029 57.0294 203 62 203H124C128.971 203 133 207.029 133 212V230C133 234.971 128.971 239 124 239H62C57.0294 239 53 234.971 53 230V212Z" fill="#BFE8F8"/>
<path d="M89.5851 214.254H91.4471V227.26H89.5851V214.254ZM84.4611 215.164C85.1238 215.164 85.7118 215.355 86.2251 215.738C86.7384 216.111 87.1398 216.648 87.4291 217.348C87.7278 218.039 87.8771 218.855 87.8771 219.798C87.8771 220.75 87.7278 221.576 87.4291 222.276C87.1398 222.967 86.7384 223.503 86.2251 223.886C85.7118 224.259 85.1238 224.446 84.4611 224.446C83.8078 224.446 83.2244 224.259 82.7111 223.886C82.1978 223.503 81.7918 222.967 81.4931 222.276C81.2038 221.576 81.0591 220.75 81.0591 219.798C81.0591 218.855 81.2038 218.039 81.4931 217.348C81.7918 216.648 82.1978 216.111 82.7111 215.738C83.2244 215.355 83.8078 215.164 84.4611 215.164ZM84.4611 216.858C84.1438 216.858 83.8638 216.97 83.6211 217.194C83.3784 217.418 83.1871 217.749 83.0471 218.188C82.9164 218.617 82.8511 219.154 82.8511 219.798C82.8511 220.433 82.9164 220.974 83.0471 221.422C83.1871 221.861 83.3784 222.192 83.6211 222.416C83.8638 222.64 84.1438 222.752 84.4611 222.752C84.7878 222.752 85.0724 222.64 85.3151 222.416C85.5578 222.192 85.7444 221.861 85.8751 221.422C86.0151 220.974 86.0851 220.433 86.0851 219.798C86.0851 219.154 86.0151 218.617 85.8751 218.188C85.7444 217.749 85.5578 217.418 85.3151 217.194C85.0724 216.97 84.7878 216.858 84.4611 216.858ZM93.574 220.82H105.306V222.29H93.574V220.82ZM95.002 214.52H103.878V217.978H96.864V219.392H95.03V216.662H102.044V215.934H95.002V214.52ZM95.03 218.706H104.13V220.12H95.03V218.706ZM95.044 223.06H103.948V227.106H95.044V223.06ZM102.114 224.516H96.878V225.636H102.114V224.516Z" fill="#002738"/>
<g filter="url(#filter1_d_248_634)">
<path d="M32 297C32 288.716 38.7157 282 47 282H348C356.284 282 363 288.716 363 297V333C363 341.284 356.284 348 348 348H47C38.7157 348 32 341.284 32 333V297Z" fill="white"/>
<path d="M166.426 319.803V322H156.699V320.125L161.299 315.193C161.761 314.679 162.126 314.227 162.393 313.836C162.66 313.439 162.852 313.084 162.969 312.771C163.092 312.452 163.154 312.15 163.154 311.863C163.154 311.434 163.083 311.066 162.939 310.76C162.796 310.447 162.585 310.206 162.305 310.037C162.031 309.868 161.693 309.783 161.289 309.783C160.859 309.783 160.488 309.887 160.176 310.096C159.87 310.304 159.635 310.594 159.473 310.965C159.316 311.336 159.238 311.756 159.238 312.225H156.416C156.416 311.378 156.618 310.604 157.021 309.9C157.425 309.191 157.995 308.628 158.73 308.211C159.466 307.788 160.339 307.576 161.348 307.576C162.344 307.576 163.184 307.739 163.867 308.064C164.557 308.383 165.078 308.846 165.43 309.451C165.788 310.05 165.967 310.766 165.967 311.6C165.967 312.068 165.892 312.527 165.742 312.977C165.592 313.419 165.378 313.862 165.098 314.305C164.824 314.741 164.492 315.184 164.102 315.633C163.711 316.082 163.278 316.548 162.803 317.029L160.332 319.803H166.426ZM177.754 313.641V316.102C177.754 317.169 177.64 318.09 177.412 318.865C177.184 319.633 176.855 320.265 176.426 320.76C176.003 321.248 175.498 321.609 174.912 321.844C174.326 322.078 173.675 322.195 172.959 322.195C172.386 322.195 171.852 322.124 171.357 321.98C170.863 321.831 170.417 321.6 170.02 321.287C169.629 320.975 169.29 320.581 169.004 320.105C168.724 319.624 168.509 319.051 168.359 318.387C168.21 317.723 168.135 316.961 168.135 316.102V313.641C168.135 312.573 168.249 311.658 168.477 310.896C168.711 310.128 169.04 309.5 169.463 309.012C169.893 308.523 170.4 308.165 170.986 307.938C171.572 307.703 172.223 307.586 172.939 307.586C173.512 307.586 174.043 307.661 174.531 307.811C175.026 307.954 175.472 308.178 175.869 308.484C176.266 308.79 176.605 309.184 176.885 309.666C177.165 310.141 177.38 310.711 177.529 311.375C177.679 312.033 177.754 312.788 177.754 313.641ZM174.932 316.473V313.26C174.932 312.745 174.902 312.296 174.844 311.912C174.792 311.528 174.71 311.202 174.6 310.936C174.489 310.662 174.352 310.441 174.189 310.271C174.027 310.102 173.841 309.979 173.633 309.9C173.424 309.822 173.193 309.783 172.939 309.783C172.62 309.783 172.337 309.845 172.09 309.969C171.849 310.092 171.644 310.291 171.475 310.564C171.305 310.831 171.175 311.189 171.084 311.639C170.999 312.081 170.957 312.622 170.957 313.26V316.473C170.957 316.987 170.983 317.439 171.035 317.83C171.094 318.221 171.178 318.556 171.289 318.836C171.406 319.109 171.543 319.334 171.699 319.51C171.862 319.679 172.048 319.803 172.256 319.881C172.471 319.959 172.705 319.998 172.959 319.998C173.271 319.998 173.548 319.936 173.789 319.812C174.036 319.682 174.245 319.48 174.414 319.207C174.59 318.927 174.72 318.562 174.805 318.113C174.889 317.664 174.932 317.117 174.932 316.473ZM189.238 313.641V316.102C189.238 317.169 189.124 318.09 188.896 318.865C188.669 319.633 188.34 320.265 187.91 320.76C187.487 321.248 186.982 321.609 186.396 321.844C185.811 322.078 185.16 322.195 184.443 322.195C183.87 322.195 183.337 322.124 182.842 321.98C182.347 321.831 181.901 321.6 181.504 321.287C181.113 320.975 180.775 320.581 180.488 320.105C180.208 319.624 179.993 319.051 179.844 318.387C179.694 317.723 179.619 316.961 179.619 316.102V313.641C179.619 312.573 179.733 311.658 179.961 310.896C180.195 310.128 180.524 309.5 180.947 309.012C181.377 308.523 181.885 308.165 182.471 307.938C183.057 307.703 183.708 307.586 184.424 307.586C184.997 307.586 185.527 307.661 186.016 307.811C186.51 307.954 186.956 308.178 187.354 308.484C187.751 308.79 188.089 309.184 188.369 309.666C188.649 310.141 188.864 310.711 189.014 311.375C189.163 312.033 189.238 312.788 189.238 313.641ZM186.416 316.473V313.26C186.416 312.745 186.387 312.296 186.328 311.912C186.276 311.528 186.195 311.202 186.084 310.936C185.973 310.662 185.837 310.441 185.674 310.271C185.511 310.102 185.326 309.979 185.117 309.9C184.909 309.822 184.678 309.783 184.424 309.783C184.105 309.783 183.822 309.845 183.574 309.969C183.333 310.092 183.128 310.291 182.959 310.564C182.79 310.831 182.66 311.189 182.568 311.639C182.484 312.081 182.441 312.622 182.441 313.26V316.473C182.441 316.987 182.467 317.439 182.52 317.83C182.578 318.221 182.663 318.556 182.773 318.836C182.891 319.109 183.027 319.334 183.184 319.51C183.346 319.679 183.532 319.803 183.74 319.881C183.955 319.959 184.189 319.998 184.443 319.998C184.756 319.998 185.033 319.936 185.273 319.812C185.521 319.682 185.729 319.48 185.898 319.207C186.074 318.927 186.204 318.562 186.289 318.113C186.374 317.664 186.416 317.117 186.416 316.473ZM193.799 315.525L191.553 314.988L192.363 307.781H200.352V310.057H194.678L194.326 313.211C194.515 313.1 194.801 312.983 195.186 312.859C195.57 312.729 195.999 312.664 196.475 312.664C197.165 312.664 197.777 312.771 198.311 312.986C198.844 313.201 199.297 313.514 199.668 313.924C200.046 314.334 200.332 314.835 200.527 315.428C200.723 316.02 200.82 316.691 200.82 317.439C200.82 318.071 200.723 318.673 200.527 319.246C200.332 319.812 200.036 320.32 199.639 320.77C199.242 321.212 198.743 321.561 198.145 321.814C197.546 322.068 196.836 322.195 196.016 322.195C195.404 322.195 194.811 322.104 194.238 321.922C193.672 321.74 193.161 321.469 192.705 321.111C192.256 320.753 191.895 320.32 191.621 319.812C191.354 319.298 191.214 318.712 191.201 318.055H193.994C194.033 318.458 194.137 318.807 194.307 319.1C194.482 319.386 194.714 319.607 195 319.764C195.286 319.92 195.622 319.998 196.006 319.998C196.364 319.998 196.67 319.93 196.924 319.793C197.178 319.656 197.383 319.467 197.539 319.227C197.695 318.979 197.809 318.693 197.881 318.367C197.959 318.035 197.998 317.677 197.998 317.293C197.998 316.909 197.952 316.561 197.861 316.248C197.77 315.936 197.63 315.665 197.441 315.438C197.253 315.21 197.012 315.034 196.719 314.91C196.432 314.786 196.097 314.725 195.713 314.725C195.192 314.725 194.788 314.806 194.502 314.969C194.222 315.132 193.988 315.317 193.799 315.525ZM202.891 320.643C202.891 320.226 203.034 319.878 203.32 319.598C203.613 319.318 204.001 319.178 204.482 319.178C204.964 319.178 205.348 319.318 205.635 319.598C205.928 319.878 206.074 320.226 206.074 320.643C206.074 321.059 205.928 321.408 205.635 321.688C205.348 321.967 204.964 322.107 204.482 322.107C204.001 322.107 203.613 321.967 203.32 321.688C203.034 321.408 202.891 321.059 202.891 320.643ZM218.008 313.641V316.102C218.008 317.169 217.894 318.09 217.666 318.865C217.438 319.633 217.109 320.265 216.68 320.76C216.257 321.248 215.752 321.609 215.166 321.844C214.58 322.078 213.929 322.195 213.213 322.195C212.64 322.195 212.106 322.124 211.611 321.98C211.117 321.831 210.671 321.6 210.273 321.287C209.883 320.975 209.544 320.581 209.258 320.105C208.978 319.624 208.763 319.051 208.613 318.387C208.464 317.723 208.389 316.961 208.389 316.102V313.641C208.389 312.573 208.503 311.658 208.73 310.896C208.965 310.128 209.294 309.5 209.717 309.012C210.146 308.523 210.654 308.165 211.24 307.938C211.826 307.703 212.477 307.586 213.193 307.586C213.766 307.586 214.297 307.661 214.785 307.811C215.28 307.954 215.726 308.178 216.123 308.484C216.52 308.79 216.859 309.184 217.139 309.666C217.419 310.141 217.633 310.711 217.783 311.375C217.933 312.033 218.008 312.788 218.008 313.641ZM215.186 316.473V313.26C215.186 312.745 215.156 312.296 215.098 311.912C215.046 311.528 214.964 311.202 214.854 310.936C214.743 310.662 214.606 310.441 214.443 310.271C214.281 310.102 214.095 309.979 213.887 309.9C213.678 309.822 213.447 309.783 213.193 309.783C212.874 309.783 212.591 309.845 212.344 309.969C212.103 310.092 211.898 310.291 211.729 310.564C211.559 310.831 211.429 311.189 211.338 311.639C211.253 312.081 211.211 312.622 211.211 313.26V316.473C211.211 316.987 211.237 317.439 211.289 317.83C211.348 318.221 211.432 318.556 211.543 318.836C211.66 319.109 211.797 319.334 211.953 319.51C212.116 319.679 212.301 319.803 212.51 319.881C212.725 319.959 212.959 319.998 213.213 319.998C213.525 319.998 213.802 319.936 214.043 319.812C214.29 319.682 214.499 319.48 214.668 319.207C214.844 318.927 214.974 318.562 215.059 318.113C215.143 317.664 215.186 317.117 215.186 316.473ZM227.178 307.635H227.588V309.881H227.422C226.68 309.881 226.019 309.992 225.439 310.213C224.86 310.434 224.368 310.75 223.965 311.16C223.568 311.564 223.262 312.052 223.047 312.625C222.839 313.198 222.734 313.839 222.734 314.549V316.912C222.734 317.42 222.783 317.869 222.881 318.26C222.985 318.644 223.132 318.966 223.32 319.227C223.516 319.48 223.743 319.673 224.004 319.803C224.264 319.926 224.557 319.988 224.883 319.988C225.189 319.988 225.465 319.923 225.713 319.793C225.967 319.663 226.182 319.48 226.357 319.246C226.54 319.005 226.676 318.725 226.768 318.406C226.865 318.081 226.914 317.726 226.914 317.342C226.914 316.958 226.865 316.603 226.768 316.277C226.676 315.952 226.54 315.672 226.357 315.438C226.175 315.197 225.954 315.011 225.693 314.881C225.433 314.751 225.14 314.686 224.814 314.686C224.372 314.686 223.981 314.79 223.643 314.998C223.311 315.2 223.05 315.46 222.861 315.779C222.673 316.098 222.572 316.434 222.559 316.785L221.709 316.238C221.729 315.737 221.833 315.262 222.021 314.812C222.217 314.363 222.484 313.966 222.822 313.621C223.167 313.27 223.581 312.996 224.062 312.801C224.544 312.599 225.088 312.498 225.693 312.498C226.357 312.498 226.94 312.625 227.441 312.879C227.949 313.133 228.372 313.481 228.711 313.924C229.049 314.367 229.303 314.878 229.473 315.457C229.642 316.036 229.727 316.655 229.727 317.312C229.727 318.003 229.613 318.644 229.385 319.236C229.163 319.829 228.841 320.346 228.418 320.789C228.001 321.232 227.5 321.577 226.914 321.824C226.328 322.072 225.671 322.195 224.941 322.195C224.186 322.195 223.499 322.059 222.881 321.785C222.269 321.505 221.742 321.115 221.299 320.613C220.856 320.112 220.514 319.516 220.273 318.826C220.039 318.136 219.922 317.381 219.922 316.561V315.467C219.922 314.321 220.088 313.273 220.42 312.322C220.758 311.365 221.243 310.538 221.875 309.842C222.507 309.139 223.268 308.595 224.16 308.211C225.052 307.827 226.058 307.635 227.178 307.635ZM231.66 320.643C231.66 320.226 231.803 319.878 232.09 319.598C232.383 319.318 232.77 319.178 233.252 319.178C233.734 319.178 234.118 319.318 234.404 319.598C234.697 319.878 234.844 320.226 234.844 320.643C234.844 321.059 234.697 321.408 234.404 321.688C234.118 321.967 233.734 322.107 233.252 322.107C232.77 322.107 232.383 321.967 232.09 321.688C231.803 321.408 231.66 321.059 231.66 320.643ZM244.062 307.752V322H241.25V310.994L237.871 312.068V309.852L243.76 307.752H244.062ZM258.262 313.641V316.102C258.262 317.169 258.148 318.09 257.92 318.865C257.692 319.633 257.363 320.265 256.934 320.76C256.51 321.248 256.006 321.609 255.42 321.844C254.834 322.078 254.183 322.195 253.467 322.195C252.894 322.195 252.36 322.124 251.865 321.98C251.37 321.831 250.924 321.6 250.527 321.287C250.137 320.975 249.798 320.581 249.512 320.105C249.232 319.624 249.017 319.051 248.867 318.387C248.717 317.723 248.643 316.961 248.643 316.102V313.641C248.643 312.573 248.757 311.658 248.984 310.896C249.219 310.128 249.548 309.5 249.971 309.012C250.4 308.523 250.908 308.165 251.494 307.938C252.08 307.703 252.731 307.586 253.447 307.586C254.02 307.586 254.551 307.661 255.039 307.811C255.534 307.954 255.98 308.178 256.377 308.484C256.774 308.79 257.113 309.184 257.393 309.666C257.673 310.141 257.887 310.711 258.037 311.375C258.187 312.033 258.262 312.788 258.262 313.641ZM255.439 316.473V313.26C255.439 312.745 255.41 312.296 255.352 311.912C255.299 311.528 255.218 311.202 255.107 310.936C254.997 310.662 254.86 310.441 254.697 310.271C254.535 310.102 254.349 309.979 254.141 309.9C253.932 309.822 253.701 309.783 253.447 309.783C253.128 309.783 252.845 309.845 252.598 309.969C252.357 310.092 252.152 310.291 251.982 310.564C251.813 310.831 251.683 311.189 251.592 311.639C251.507 312.081 251.465 312.622 251.465 313.26V316.473C251.465 316.987 251.491 317.439 251.543 317.83C251.602 318.221 251.686 318.556 251.797 318.836C251.914 319.109 252.051 319.334 252.207 319.51C252.37 319.679 252.555 319.803 252.764 319.881C252.979 319.959 253.213 319.998 253.467 319.998C253.779 319.998 254.056 319.936 254.297 319.812C254.544 319.682 254.753 319.48 254.922 319.207C255.098 318.927 255.228 318.562 255.312 318.113C255.397 317.664 255.439 317.117 255.439 316.473Z" fill="white"/>
<path d="M53 306C53 301.029 57.0294 297 62 297H124C128.971 297 133 301.029 133 306V324C133 328.971 128.971 333 124 333H62C57.0294 333 53 328.971 53 324V306Z" fill="#BFE8F8"/>
<path d="M70.1402 309.052H71.5962V310.55C71.5962 311.287 71.4935 312.006 71.2882 312.706C71.0829 313.397 70.7609 314.017 70.3222 314.568C69.8835 315.119 69.3095 315.543 68.6002 315.842L67.6342 314.414C68.2315 314.143 68.7122 313.803 69.0762 313.392C69.4495 312.972 69.7202 312.515 69.8882 312.02C70.0562 311.525 70.1402 311.035 70.1402 310.55V309.052ZM70.4902 309.052H71.9462V310.55C71.9462 311.017 72.0255 311.474 72.1842 311.922C72.3429 312.361 72.5995 312.762 72.9542 313.126C73.3182 313.49 73.7802 313.789 74.3402 314.022L73.3602 315.436C72.6882 315.165 72.1375 314.783 71.7082 314.288C71.2882 313.784 70.9802 313.215 70.7842 312.58C70.5882 311.936 70.4902 311.259 70.4902 310.55V309.052ZM77.0842 308.282H78.8622V316.206H77.0842V308.282ZM75.5302 311.432H77.5882V312.93H75.5302V311.432ZM74.3542 308.52H76.0902V315.8H74.3542V308.52ZM74.4662 316.388C75.3715 316.388 76.1555 316.486 76.8182 316.682C77.4902 316.869 78.0082 317.144 78.3722 317.508C78.7362 317.872 78.9182 318.306 78.9182 318.81C78.9182 319.323 78.7362 319.762 78.3722 320.126C78.0082 320.49 77.4902 320.765 76.8182 320.952C76.1555 321.148 75.3715 321.246 74.4662 321.246C73.5609 321.246 72.7722 321.148 72.1002 320.952C71.4282 320.765 70.9102 320.49 70.5462 320.126C70.1822 319.762 70.0002 319.323 70.0002 318.81C70.0002 318.306 70.1822 317.872 70.5462 317.508C70.9102 317.144 71.4282 316.869 72.1002 316.682C72.7722 316.486 73.5609 316.388 74.4662 316.388ZM74.4662 317.788C73.6262 317.788 72.9775 317.872 72.5202 318.04C72.0722 318.208 71.8482 318.465 71.8482 318.81C71.8482 319.155 72.0722 319.417 72.5202 319.594C72.9775 319.762 73.6262 319.846 74.4662 319.846C75.0169 319.846 75.4835 319.809 75.8662 319.734C76.2582 319.65 76.5522 319.533 76.7482 319.384C76.9535 319.235 77.0562 319.043 77.0562 318.81C77.0562 318.465 76.8322 318.208 76.3842 318.04C75.9362 317.872 75.2969 317.788 74.4662 317.788ZM89.6691 308.268H91.5451V317.802H89.6691V308.268ZM86.5331 309.724H90.2991V311.18H86.5331V309.724ZM82.9771 319.524H91.8251V321.022H82.9771V319.524ZM82.9771 316.962H84.8391V320.294H82.9771V316.962ZM81.3951 309.094H83.2431V315.184H81.3951V309.094ZM81.3951 314.624H82.4311C83.3738 314.624 84.2744 314.596 85.1331 314.54C86.0011 314.484 86.8971 314.377 87.8211 314.218L88.0031 315.73C87.0511 315.898 86.1271 316.01 85.2311 316.066C84.3351 316.122 83.4018 316.15 82.4311 316.15H81.3951V314.624ZM86.5331 312.132H90.2991V313.602H86.5331V312.132ZM96.948 314.932H98.81V317.76H96.948V314.932ZM102.618 308.268H104.48V318.096H102.618V308.268ZM95.142 319.524H104.774V321.022H95.142V319.524ZM95.142 317.158H97.004V319.93H95.142V317.158ZM93.756 315.492L93.518 314.008C94.3113 313.999 95.1747 313.989 96.108 313.98C97.0413 313.961 97.9933 313.924 98.964 313.868C99.9347 313.812 100.868 313.728 101.764 313.616L101.89 314.946C100.966 315.105 100.023 315.226 99.062 315.31C98.11 315.385 97.1813 315.431 96.276 315.45C95.3707 315.469 94.5307 315.483 93.756 315.492ZM100.182 315.8H103.038V317.074H100.182V315.8ZM97.69 308.716C98.3247 308.716 98.8847 308.814 99.37 309.01C99.8553 309.206 100.233 309.477 100.504 309.822C100.784 310.167 100.924 310.573 100.924 311.04C100.924 311.497 100.784 311.903 100.504 312.258C100.233 312.603 99.8553 312.869 99.37 313.056C98.8847 313.243 98.3247 313.336 97.69 313.336C97.0553 313.336 96.4907 313.243 95.996 313.056C95.5107 312.869 95.1327 312.603 94.862 312.258C94.5913 311.903 94.456 311.497 94.456 311.04C94.456 310.573 94.5913 310.167 94.862 309.822C95.1327 309.477 95.5107 309.206 95.996 309.01C96.4907 308.814 97.0553 308.716 97.69 308.716ZM97.69 310.074C97.2607 310.074 96.906 310.153 96.626 310.312C96.3553 310.471 96.22 310.713 96.22 311.04C96.22 311.348 96.3553 311.586 96.626 311.754C96.906 311.913 97.2607 311.992 97.69 311.992C98.1287 311.992 98.4787 311.913 98.74 311.754C99.0107 311.586 99.146 311.348 99.146 311.04C99.146 310.825 99.0853 310.648 98.964 310.508C98.8427 310.368 98.6747 310.261 98.46 310.186C98.2453 310.111 97.9887 310.074 97.69 310.074ZM110.093 308.646C110.765 308.646 111.358 308.777 111.871 309.038C112.394 309.29 112.804 309.64 113.103 310.088C113.411 310.527 113.565 311.035 113.565 311.614C113.565 312.193 113.411 312.706 113.103 313.154C112.804 313.593 112.394 313.938 111.871 314.19C111.358 314.442 110.765 314.568 110.093 314.568C109.44 314.568 108.852 314.442 108.329 314.19C107.806 313.938 107.391 313.593 107.083 313.154C106.784 312.706 106.635 312.193 106.635 311.614C106.635 311.035 106.784 310.522 107.083 310.074C107.391 309.626 107.806 309.276 108.329 309.024C108.852 308.772 109.44 308.646 110.093 308.646ZM110.107 310.158C109.79 310.158 109.505 310.219 109.253 310.34C109.001 310.452 108.8 310.615 108.651 310.83C108.511 311.045 108.441 311.306 108.441 311.614C108.441 311.922 108.511 312.188 108.651 312.412C108.8 312.627 108.996 312.79 109.239 312.902C109.491 313.014 109.78 313.07 110.107 313.07C110.424 313.07 110.704 313.014 110.947 312.902C111.199 312.79 111.395 312.627 111.535 312.412C111.684 312.188 111.759 311.922 111.759 311.614C111.759 311.306 111.684 311.045 111.535 310.83C111.395 310.615 111.199 310.452 110.947 310.34C110.695 310.219 110.415 310.158 110.107 310.158ZM115.357 308.282H117.219V314.764H115.357V308.282ZM108.581 315.296H117.219V318.838H110.429V320.42H108.595V317.494H115.371V316.724H108.581V315.296ZM108.595 319.65H117.541V321.106H108.595V319.65Z" fill="#002738"/>
</g>
<g filter="url(#filter2_d_248_634)">
<path d="M32 499C32 490.716 38.7157 484 47 484H177C185.284 484 192 490.716 192 499V533C192 541.284 185.284 548 177 548H47C38.7157 548 32 541.284 32 533V499Z" fill="white"/>
<path d="M203 499C203 490.716 209.716 484 218 484H348C356.284 484 363 490.716 363 499V533C363 541.284 356.284 548 348 548H218C209.716 548 203 541.284 203 533V499Z" fill="white"/>
</g>
<g filter="url(#filter3_d_248_634)">
<path d="M32 585C32 580.029 36.0294 576 41 576H95C99.9706 576 104 580.029 104 585V603C104 607.971 99.9706 612 95 612H41C36.0294 612 32 607.971 32 603V585Z" fill="#BFE8F8"/>
<path d="M57.1731 587.786H65.9791V592.364H57.1731V587.786ZM64.1451 589.242H59.0071V590.908H64.1451V589.242ZM55.7311 593.596H67.4631V595.066H55.7311V593.596ZM60.6591 592.042H62.5071V594.002H60.6591V592.042ZM57.0331 596.004H66.0491V600.246H64.1871V597.46H57.0331V596.004ZM71.408 594.324H73.256V597.81H71.408V594.324ZM75.482 594.338H77.33V597.824H75.482V594.338ZM68.524 597.32H80.27V598.818H68.524V597.32ZM69.42 588.29H79.304V589.788H69.42V588.29ZM69.49 593.414H79.262V594.884H69.49V593.414ZM71.184 589.522H73.046V593.624H71.184V589.522ZM75.678 589.522H77.54V593.624H75.678V589.522Z" fill="#002738"/>
<path d="M32 632C32 627.029 36.0294 623 41 623H354C358.971 623 363 627.029 363 632V680C363 684.971 358.971 689 354 689H41C36.0294 689 32 684.971 32 680V632Z" fill="white"/>
</g>
<defs>
<filter id="filter0_d_248_634" x="28" y="188" width="339" height="74" filterUnits="userSpaceOnUse" color-interpolation-filters="sRGB">
<feFlood flood-opacity="0" result="BackgroundImageFix"/>
<feColorMatrix in="SourceAlpha" type="matrix" values="0 0 0 0 0 0 0 0 0 0 0 0 0 0 0 0 0 0 127 0" result="hardAlpha"/>
<feOffset dy="4"/>
<feGaussianBlur stdDeviation="2"/>
<feComposite in2="hardAlpha" operator="out"/>
<feColorMatrix type="matrix" values="0 0 0 0 0 0 0 0 0 0 0 0 0 0 0 0 0 0 0.19 0"/>
<feBlend mode="normal" in2="BackgroundImageFix" result="effect1_dropShadow_248_634"/>
<feBlend mode="normal" in="SourceGraphic" in2="effect1_dropShadow_248_634" result="shape"/>
</filter>
<filter id="filter1_d_248_634" x="28" y="282" width="339" height="74" filterUnits="userSpaceOnUse" color-interpolation-filters="sRGB">
<feFlood flood-opacity="0" result="BackgroundImageFix"/>
<feColorMatrix in="SourceAlpha" type="matrix" values="0 0 0 0 0 0 0 0 0 0 0 0 0 0 0 0 0 0 127 0" result="hardAlpha"/>
<feOffset dy="4"/>
<feGaussianBlur stdDeviation="2"/>
<feComposite in2="hardAlpha" operator="out"/>
<feColorMatrix type="matrix" values="0 0 0 0 0 0 0 0 0 0 0 0 0 0 0 0 0 0 0.19 0"/>
<feBlend mode="normal" in2="BackgroundImageFix" result="effect1_dropShadow_248_634"/>
<feBlend mode="normal" in="SourceGraphic" in2="effect1_dropShadow_248_634" result="shape"/>
</filter>
<filter id="filter2_d_248_634" x="28" y="484" width="339" height="72" filterUnits="userSpaceOnUse" color-interpolation-filters="sRGB">
<feFlood flood-opacity="0" result="BackgroundImageFix"/>
<feColorMatrix in="SourceAlpha" type="matrix" values="0 0 0 0 0 0 0 0 0 0 0 0 0 0 0 0 0 0 127 0" result="hardAlpha"/>
<feOffset dy="4"/>
<feGaussianBlur stdDeviation="2"/>
<feComposite in2="hardAlpha" operator="out"/>
<feColorMatrix type="matrix" values="0 0 0 0 0 0 0 0 0 0 0 0 0 0 0 0 0 0 0.19 0"/>
<feBlend mode="normal" in2="BackgroundImageFix" result="effect1_dropShadow_248_634"/>
<feBlend mode="normal" in="SourceGraphic" in2="effect1_dropShadow_248_634" result="shape"/>
</filter>
<filter id="filter3_d_248_634" x="28" y="576" width="339" height="121" filterUnits="userSpaceOnUse" color-interpolation-filters="sRGB">
<feFlood flood-opacity="0" result="BackgroundImageFix"/>
<feColorMatrix in="SourceAlpha" type="matrix" values="0 0 0 0 0 0 0 0 0 0 0 0 0 0 0 0 0 0 127 0" result="hardAlpha"/>
<feOffset dy="4"/>
<feGaussianBlur stdDeviation="2"/>
<feComposite in2="hardAlpha" operator="out"/>
<feColorMatrix type="matrix" values="0 0 0 0 0 0 0 0 0 0 0 0 0 0 0 0 0 0 0.19 0"/>
<feBlend mode="normal" in2="BackgroundImageFix" result="effect1_dropShadow_248_634"/>
<feBlend mode="normal" in="SourceGraphic" in2="effect1_dropShadow_248_634" result="shape"/>
</filter>
</defs>
</svg>
