<svg width="402" height="874" viewBox="0 0 402 874" fill="none" xmlns="http://www.w3.org/2000/svg">
<rect width="402" height="874" fill="#F3F4F4"/>
<path d="M44.192 102.848H50.048V105.416H44.192V102.848ZM38.144 97.592H40.712V100.832C40.712 102.224 40.592 103.576 40.352 104.888C40.112 106.2 39.744 107.424 39.248 108.56C38.752 109.696 38.12 110.696 37.352 111.56C36.6 112.424 35.704 113.12 34.664 113.648L32.672 111.104C33.616 110.656 34.424 110.072 35.096 109.352C35.784 108.632 36.352 107.816 36.8 106.904C37.264 105.976 37.6 105 37.808 103.976C38.032 102.936 38.144 101.888 38.144 100.832V97.592ZM38.792 97.592H41.336V100.832C41.336 101.872 41.44 102.904 41.648 103.928C41.856 104.936 42.168 105.88 42.584 106.76C43.016 107.64 43.568 108.424 44.24 109.112C44.912 109.784 45.712 110.328 46.64 110.744L44.72 113.288C43.68 112.776 42.784 112.104 42.032 111.272C41.28 110.424 40.664 109.456 40.184 108.368C39.72 107.28 39.368 106.096 39.128 104.816C38.904 103.536 38.792 102.208 38.792 100.832V97.592ZM48.44 95.864H51.632V118.16H48.44V95.864ZM70.3021 95.864H73.4941V118.16H70.3021V95.864ZM56.1421 97.64H59.3101V103.064H63.9181V97.64H67.0861V112.976H56.1421V97.64ZM59.3101 105.536V110.432H63.9181V105.536H59.3101ZM85.3963 97.184H88.1562V98.792C88.1562 99.752 88.0203 100.688 87.7483 101.6C87.4923 102.496 87.1083 103.344 86.5963 104.144C86.0843 104.944 85.4523 105.672 84.7003 106.328C83.9643 106.968 83.1163 107.52 82.1562 107.984C81.1963 108.448 80.1403 108.792 78.9883 109.016L77.6203 106.352C78.6123 106.176 79.5163 105.912 80.3323 105.56C81.1643 105.192 81.8923 104.752 82.5163 104.24C83.1403 103.728 83.6683 103.176 84.1003 102.584C84.5323 101.976 84.8523 101.352 85.0603 100.712C85.2843 100.056 85.3963 99.416 85.3963 98.792V97.184ZM86.0203 97.184H88.8043V98.792C88.8043 99.432 88.9083 100.08 89.1163 100.736C89.3403 101.392 89.6603 102.024 90.0763 102.632C90.5083 103.224 91.0363 103.768 91.6603 104.264C92.2843 104.76 93.0043 105.192 93.8203 105.56C94.6363 105.912 95.5563 106.176 96.5803 106.352L95.2123 109.016C94.0603 108.792 93.0043 108.448 92.0443 107.984C91.0843 107.52 90.2283 106.968 89.4763 106.328C88.7403 105.688 88.1083 104.968 87.5803 104.168C87.0683 103.368 86.6763 102.512 86.4043 101.6C86.1483 100.688 86.0203 99.752 86.0203 98.792V97.184ZM77.1403 112.808H97.2763V115.424H77.1403V112.808ZM99.2184 105.872H119.33V108.176H99.2184V105.872ZM101.474 109.304H116.954V114.584H104.666V116.48H101.498V112.568H113.81V111.464H101.474V109.304ZM101.498 115.784H117.578V117.944H101.498V115.784ZM101.666 96.272H116.882V101.528H104.858V103.328H101.714V99.512H113.738V98.432H101.666V96.272ZM101.714 102.68H117.29V104.84H101.714V102.68ZM142.513 95.864H145.705V118.16H142.513V95.864ZM133.729 97.424C134.865 97.424 135.873 97.752 136.753 98.408C137.633 99.048 138.321 99.968 138.817 101.168C139.329 102.352 139.585 103.752 139.585 105.368C139.585 107 139.329 108.416 138.817 109.616C138.321 110.8 137.633 111.72 136.753 112.376C135.873 113.016 134.865 113.336 133.729 113.336C132.609 113.336 131.609 113.016 130.729 112.376C129.849 111.72 129.153 110.8 128.641 109.616C128.145 108.416 127.897 107 127.897 105.368C127.897 103.752 128.145 102.352 128.641 101.168C129.153 99.968 129.849 99.048 130.729 98.408C131.609 97.752 132.609 97.424 133.729 97.424ZM133.729 100.328C133.185 100.328 132.705 100.52 132.289 100.904C131.873 101.288 131.545 101.856 131.305 102.608C131.081 103.344 130.969 104.264 130.969 105.368C130.969 106.456 131.081 107.384 131.305 108.152C131.545 108.904 131.873 109.472 132.289 109.856C132.705 110.24 133.185 110.432 133.729 110.432C134.289 110.432 134.777 110.24 135.193 109.856C135.609 109.472 135.929 108.904 136.153 108.152C136.393 107.384 136.513 106.456 136.513 105.368C136.513 104.264 136.393 103.344 136.153 102.608C135.929 101.856 135.609 101.288 135.193 100.904C134.777 100.52 134.289 100.328 133.729 100.328ZM153.863 103.328H157.031V107.408H153.863V103.328ZM161.663 103.328H164.855V107.408H161.663V103.328ZM149.327 106.448H169.439V108.944H149.327V106.448ZM159.335 110.072C161.735 110.072 163.623 110.424 164.999 111.128C166.375 111.816 167.063 112.808 167.063 114.104C167.063 115.384 166.375 116.376 164.999 117.08C163.623 117.784 161.735 118.136 159.335 118.136C156.935 118.136 155.047 117.784 153.671 117.08C152.311 116.376 151.631 115.384 151.631 114.104C151.631 112.808 152.311 111.816 153.671 111.128C155.047 110.424 156.935 110.072 159.335 110.072ZM159.335 112.472C158.343 112.472 157.511 112.536 156.839 112.664C156.183 112.776 155.687 112.952 155.351 113.192C155.015 113.432 154.847 113.736 154.847 114.104C154.847 114.472 155.015 114.784 155.351 115.04C155.687 115.28 156.183 115.456 156.839 115.568C157.511 115.68 158.343 115.736 159.335 115.736C160.327 115.736 161.151 115.68 161.807 115.568C162.479 115.456 162.983 115.28 163.319 115.04C163.655 114.784 163.823 114.472 163.823 114.104C163.823 113.736 163.655 113.432 163.319 113.192C162.983 112.952 162.479 112.776 161.807 112.664C161.151 112.536 160.327 112.472 159.335 112.472ZM159.383 96.224C161.031 96.224 162.455 96.4 163.655 96.752C164.871 97.088 165.807 97.576 166.463 98.216C167.119 98.856 167.447 99.616 167.447 100.496C167.447 101.376 167.119 102.136 166.463 102.776C165.807 103.4 164.871 103.888 163.655 104.24C162.455 104.576 161.031 104.744 159.383 104.744C157.767 104.744 156.351 104.576 155.135 104.24C153.919 103.888 152.983 103.4 152.327 102.776C151.671 102.136 151.343 101.376 151.343 100.496C151.343 99.616 151.671 98.856 152.327 98.216C152.983 97.576 153.919 97.088 155.135 96.752C156.351 96.4 157.767 96.224 159.383 96.224ZM159.383 98.648C158.391 98.648 157.535 98.72 156.815 98.864C156.095 98.992 155.551 99.192 155.183 99.464C154.831 99.736 154.655 100.08 154.655 100.496C154.655 100.896 154.831 101.232 155.183 101.504C155.551 101.776 156.095 101.984 156.815 102.128C157.535 102.256 158.391 102.32 159.383 102.32C160.407 102.32 161.271 102.256 161.975 102.128C162.679 101.984 163.215 101.776 163.583 101.504C163.951 101.232 164.135 100.896 164.135 100.496C164.135 100.08 163.951 99.736 163.583 99.464C163.215 99.192 162.679 98.992 161.975 98.864C161.271 98.72 160.407 98.648 159.383 98.648ZM185.661 95.912H188.853V118.136H185.661V95.912ZM188.133 104.576H192.045V107.216H188.133V104.576ZM171.309 99.176H184.269V101.72H171.309V99.176ZM177.837 102.992C178.909 102.992 179.869 103.224 180.717 103.688C181.565 104.136 182.229 104.752 182.709 105.536C183.205 106.32 183.453 107.232 183.453 108.272C183.453 109.312 183.205 110.232 182.709 111.032C182.229 111.816 181.565 112.44 180.717 112.904C179.885 113.352 178.925 113.576 177.837 113.576C176.765 113.576 175.797 113.352 174.933 112.904C174.085 112.44 173.413 111.816 172.917 111.032C172.437 110.232 172.197 109.312 172.197 108.272C172.197 107.232 172.437 106.32 172.917 105.536C173.413 104.752 174.085 104.136 174.933 103.688C175.797 103.224 176.765 102.992 177.837 102.992ZM177.837 105.584C177.325 105.584 176.877 105.688 176.493 105.896C176.109 106.104 175.805 106.408 175.581 106.808C175.357 107.208 175.245 107.696 175.245 108.272C175.245 108.832 175.357 109.32 175.581 109.736C175.805 110.136 176.109 110.448 176.493 110.672C176.877 110.88 177.325 110.984 177.837 110.984C178.333 110.984 178.773 110.88 179.157 110.672C179.541 110.448 179.845 110.136 180.069 109.736C180.293 109.32 180.405 108.832 180.405 108.272C180.405 107.696 180.293 107.208 180.069 106.808C179.845 106.408 179.541 106.104 179.157 105.896C178.773 105.688 178.333 105.584 177.837 105.584ZM176.205 96.272H179.421V100.16H176.205V96.272ZM208.819 95.888H212.011V118.112H208.819V95.888ZM202.267 98.192H205.411C205.411 99.888 205.243 101.512 204.907 103.064C204.587 104.6 204.043 106.048 203.275 107.408C202.523 108.768 201.483 110.032 200.155 111.2C198.843 112.352 197.203 113.408 195.235 114.368L193.555 111.848C195.699 110.808 197.403 109.664 198.667 108.416C199.947 107.152 200.867 105.728 201.427 104.144C201.987 102.544 202.267 100.752 202.267 98.768V98.192ZM194.755 98.192H203.755V100.736H194.755V98.192ZM228.762 96.776C229.882 96.776 230.882 96.984 231.762 97.4C232.642 97.8 233.33 98.36 233.826 99.08C234.338 99.784 234.594 100.6 234.594 101.528C234.594 102.456 234.338 103.28 233.826 104C233.33 104.704 232.642 105.264 231.762 105.68C230.882 106.08 229.882 106.28 228.762 106.28C227.642 106.28 226.642 106.08 225.762 105.68C224.882 105.264 224.186 104.704 223.674 104C223.178 103.28 222.93 102.456 222.93 101.528C222.93 100.6 223.178 99.784 223.674 99.08C224.186 98.36 224.882 97.8 225.762 97.4C226.642 96.984 227.642 96.776 228.762 96.776ZM228.762 99.368C228.234 99.368 227.762 99.456 227.346 99.632C226.93 99.792 226.602 100.032 226.362 100.352C226.122 100.672 226.002 101.064 226.002 101.528C226.002 101.992 226.122 102.384 226.362 102.704C226.602 103.008 226.93 103.248 227.346 103.424C227.762 103.584 228.234 103.664 228.762 103.664C229.306 103.664 229.786 103.584 230.202 103.424C230.618 103.248 230.946 103.008 231.186 102.704C231.426 102.384 231.546 101.992 231.546 101.528C231.546 101.064 231.426 100.672 231.186 100.352C230.946 100.032 230.618 99.792 230.202 99.632C229.786 99.456 229.306 99.368 228.762 99.368ZM227.25 108.512H230.466V117.44H227.25V108.512ZM236.97 95.888H240.162V118.112H236.97V95.888ZM221.994 110.192L221.634 107.6C222.914 107.6 224.346 107.592 225.93 107.576C227.53 107.544 229.17 107.472 230.85 107.36C232.53 107.248 234.154 107.072 235.722 106.832L235.914 109.16C234.314 109.48 232.69 109.712 231.042 109.856C229.394 110 227.794 110.088 226.242 110.12C224.69 110.152 223.274 110.176 221.994 110.192ZM243.616 99.248H254.248V101.768H243.616V99.248ZM248.968 102.776C249.912 102.776 250.744 103 251.464 103.448C252.2 103.896 252.776 104.52 253.192 105.32C253.624 106.104 253.84 107.016 253.84 108.056C253.84 109.096 253.624 110.016 253.192 110.816C252.776 111.6 252.2 112.216 251.464 112.664C250.744 113.112 249.912 113.336 248.968 113.336C248.024 113.336 247.184 113.112 246.448 112.664C245.712 112.216 245.136 111.6 244.72 110.816C244.304 110.016 244.096 109.096 244.096 108.056C244.096 107.016 244.304 106.104 244.72 105.32C245.136 104.52 245.712 103.896 246.448 103.448C247.2 103 248.04 102.776 248.968 102.776ZM248.968 105.416C248.584 105.416 248.232 105.52 247.912 105.728C247.592 105.936 247.344 106.24 247.168 106.64C246.992 107.024 246.904 107.496 246.904 108.056C246.904 108.616 246.992 109.096 247.168 109.496C247.344 109.896 247.592 110.2 247.912 110.408C248.232 110.6 248.584 110.696 248.968 110.696C249.368 110.696 249.72 110.6 250.024 110.408C250.328 110.2 250.568 109.896 250.744 109.496C250.92 109.096 251.008 108.616 251.008 108.056C251.008 107.496 250.92 107.024 250.744 106.64C250.568 106.24 250.328 105.936 250.024 105.728C249.72 105.52 249.368 105.416 248.968 105.416ZM259.696 95.888H262.72V118.112H259.696V95.888ZM257.032 104.936H260.68V107.504H257.032V104.936ZM255.016 96.296H257.992V117.176H255.016V96.296ZM247.408 96.488H250.552V100.832H247.408V96.488ZM276.926 102.848H282.782V105.416H276.926V102.848ZM270.878 97.592H273.446V100.832C273.446 102.224 273.326 103.576 273.086 104.888C272.846 106.2 272.478 107.424 271.982 108.56C271.486 109.696 270.854 110.696 270.086 111.56C269.334 112.424 268.438 113.12 267.398 113.648L265.406 111.104C266.35 110.656 267.158 110.072 267.83 109.352C268.518 108.632 269.086 107.816 269.534 106.904C269.998 105.976 270.334 105 270.542 103.976C270.766 102.936 270.878 101.888 270.878 100.832V97.592ZM271.526 97.592H274.07V100.832C274.07 101.872 274.174 102.904 274.382 103.928C274.59 104.936 274.902 105.88 275.318 106.76C275.75 107.64 276.302 108.424 276.974 109.112C277.646 109.784 278.446 110.328 279.374 110.744L277.454 113.288C276.414 112.776 275.518 112.104 274.766 111.272C274.014 110.424 273.398 109.456 272.918 108.368C272.454 107.28 272.102 106.096 271.862 104.816C271.638 103.536 271.526 102.208 271.526 100.832V97.592ZM281.174 95.864H284.366V118.16H281.174V95.864ZM290.269 101.888H305.677V104.432H290.269V101.888ZM287.797 106.736H307.909V109.28H287.797V106.736ZM290.269 96.68H293.461V103.16H290.269V96.68ZM290.077 115.088H305.797V117.656H290.077V115.088ZM290.077 111.032H293.269V115.784H290.077V111.032ZM48.296 123.888H51.488V146.112H48.296V123.888ZM41.744 126.192H44.888C44.888 127.888 44.72 129.512 44.384 131.064C44.064 132.6 43.52 134.048 42.752 135.408C42 136.768 40.96 138.032 39.632 139.2C38.32 140.352 36.68 141.408 34.712 142.368L33.032 139.848C35.176 138.808 36.88 137.664 38.144 136.416C39.424 135.152 40.344 133.728 40.904 132.144C41.464 130.544 41.744 128.752 41.744 126.768V126.192ZM34.232 126.192H43.232V128.736H34.232V126.192ZM57.6061 124.704H60.7501V126.864H69.4381V124.704H72.6061V133.752H57.6061V124.704ZM60.7501 129.336V131.256H69.4381V129.336H60.7501ZM55.0381 135.648H75.1501V138.168H55.0381V135.648ZM63.4861 132.432H66.6541V136.704H63.4861V132.432ZM57.4861 143.184H72.8941V145.752H57.4861V143.184ZM57.4861 139.488H60.6781V144.144H57.4861V139.488ZM95.1648 129.264H99.3888V131.856H95.1648V129.264ZM98.5008 123.912H101.717V137.112H98.5008V123.912ZM94.1808 137.592C95.7488 137.592 97.1008 137.76 98.2368 138.096C99.3728 138.432 100.245 138.92 100.853 139.56C101.477 140.2 101.789 140.968 101.789 141.864C101.789 143.24 101.109 144.296 99.7488 145.032C98.3888 145.784 96.5328 146.16 94.1808 146.16C91.8288 146.16 89.9728 145.784 88.6128 145.032C87.2528 144.296 86.5728 143.24 86.5728 141.864C86.5728 140.968 86.8768 140.2 87.4848 139.56C88.1088 138.92 88.9888 138.432 90.1248 138.096C91.2608 137.76 92.6128 137.592 94.1808 137.592ZM94.1808 140.016C93.2208 140.016 92.4128 140.088 91.7568 140.232C91.1008 140.36 90.5968 140.56 90.2448 140.832C89.9088 141.104 89.7408 141.448 89.7408 141.864C89.7408 142.28 89.9088 142.632 90.2448 142.92C90.5968 143.192 91.1008 143.4 91.7568 143.544C92.4128 143.672 93.2208 143.736 94.1808 143.736C95.1408 143.736 95.9488 143.672 96.6048 143.544C97.2608 143.4 97.7568 143.192 98.0928 142.92C98.4288 142.632 98.5968 142.28 98.5968 141.864C98.5968 141.448 98.4288 141.104 98.0928 140.832C97.7568 140.56 97.2608 140.36 96.6048 140.232C95.9488 140.088 95.1408 140.016 94.1808 140.016ZM88.2528 126.12H90.8448V127.536C90.8448 128.944 90.6208 130.288 90.1728 131.568C89.7248 132.848 89.0368 133.976 88.1088 134.952C87.1968 135.912 86.0288 136.632 84.6048 137.112L82.9968 134.592C83.9088 134.288 84.6928 133.88 85.3488 133.368C86.0208 132.856 86.5648 132.288 86.9808 131.664C87.4128 131.024 87.7328 130.352 87.9408 129.648C88.1488 128.944 88.2528 128.24 88.2528 127.536V126.12ZM88.9248 126.12H91.4688V127.512C91.4688 128.392 91.6448 129.256 91.9968 130.104C92.3488 130.952 92.8928 131.72 93.6288 132.408C94.3808 133.096 95.3408 133.64 96.5088 134.04L94.9488 136.536C93.5728 136.072 92.4368 135.392 91.5408 134.496C90.6608 133.584 90.0048 132.528 89.5728 131.328C89.1408 130.112 88.9248 128.84 88.9248 127.512V126.12ZM83.8608 125.256H95.8128V127.776H83.8608V125.256ZM105.195 140.952H125.331V143.544H105.195V140.952ZM113.643 136.2H116.811V141.576H113.643V136.2ZM107.307 125.304H110.499V128.736H119.955V125.304H123.123V136.872H107.307V125.304ZM110.499 131.232V134.328H119.955V131.232H110.499ZM141.457 123.864H144.673V146.088H141.457V123.864ZM143.857 132.384H147.769V135H143.857V132.384ZM135.625 126.168H138.769C138.769 128.392 138.449 130.496 137.809 132.48C137.185 134.464 136.145 136.288 134.689 137.952C133.249 139.6 131.297 141.04 128.833 142.272L127.033 139.848C128.985 138.84 130.593 137.704 131.857 136.44C133.137 135.176 134.081 133.744 134.689 132.144C135.313 130.528 135.625 128.728 135.625 126.744V126.168ZM128.257 126.168H137.281V128.736H128.257V126.168ZM170.64 123.912H173.856V135.288H170.64V123.912ZM158.808 136.176H173.856V142.176H162V144.84H158.832V139.872H170.664V138.624H158.808V136.176ZM158.832 143.496H174.456V145.992H158.832V143.496ZM156.264 125.232H168.24V127.704H156.264V125.232ZM156.024 134.904L155.712 132.36C157.008 132.36 158.416 132.352 159.936 132.336C161.456 132.304 163 132.248 164.568 132.168C166.152 132.088 167.656 131.96 169.08 131.784L169.248 134.04C167.776 134.296 166.264 134.48 164.712 134.592C163.176 134.704 161.664 134.784 160.176 134.832C158.688 134.864 157.304 134.888 156.024 134.904ZM158.04 126.36H161.088V133.632H158.04V126.36ZM163.416 126.36H166.488V133.632H163.416V126.36ZM181.822 135.192H185.014V141.408H181.822V135.192ZM189.886 135.192H193.078V141.408H189.886V135.192ZM177.406 140.952H197.542V143.544H177.406V140.952ZM187.438 124.992C189.038 124.992 190.462 125.24 191.71 125.736C192.974 126.232 193.958 126.928 194.662 127.824C195.382 128.704 195.742 129.752 195.742 130.968C195.742 132.168 195.382 133.216 194.662 134.112C193.958 134.992 192.974 135.68 191.71 136.176C190.462 136.672 189.038 136.92 187.438 136.92C185.854 136.92 184.43 136.672 183.166 136.176C181.918 135.68 180.934 134.992 180.214 134.112C179.494 133.216 179.134 132.168 179.134 130.968C179.134 129.752 179.494 128.704 180.214 127.824C180.934 126.928 181.918 126.232 183.166 125.736C184.43 125.24 185.854 124.992 187.438 124.992ZM187.438 127.464C186.414 127.464 185.51 127.608 184.726 127.896C183.958 128.168 183.358 128.56 182.926 129.072C182.494 129.584 182.278 130.216 182.278 130.968C182.278 131.688 182.494 132.312 182.926 132.84C183.358 133.352 183.958 133.752 184.726 134.04C185.51 134.312 186.414 134.448 187.438 134.448C188.478 134.448 189.382 134.312 190.15 134.04C190.934 133.752 191.534 133.352 191.95 132.84C192.382 132.312 192.598 131.688 192.598 130.968C192.598 130.216 192.382 129.584 191.95 129.072C191.534 128.56 190.934 128.168 190.15 127.896C189.382 127.608 188.478 127.464 187.438 127.464ZM199.46 127.248H210.092V129.768H199.46V127.248ZM204.812 130.776C205.756 130.776 206.588 131 207.308 131.448C208.044 131.896 208.62 132.52 209.036 133.32C209.468 134.104 209.684 135.016 209.684 136.056C209.684 137.096 209.468 138.016 209.036 138.816C208.62 139.6 208.044 140.216 207.308 140.664C206.588 141.112 205.756 141.336 204.812 141.336C203.868 141.336 203.028 141.112 202.292 140.664C201.556 140.216 200.98 139.6 200.564 138.816C200.148 138.016 199.94 137.096 199.94 136.056C199.94 135.016 200.148 134.104 200.564 133.32C200.98 132.52 201.556 131.896 202.292 131.448C203.044 131 203.884 130.776 204.812 130.776ZM204.812 133.416C204.428 133.416 204.076 133.52 203.756 133.728C203.436 133.936 203.188 134.24 203.012 134.64C202.836 135.024 202.748 135.496 202.748 136.056C202.748 136.616 202.836 137.096 203.012 137.496C203.188 137.896 203.436 138.2 203.756 138.408C204.076 138.6 204.428 138.696 204.812 138.696C205.212 138.696 205.564 138.6 205.868 138.408C206.172 138.2 206.412 137.896 206.588 137.496C206.764 137.096 206.852 136.616 206.852 136.056C206.852 135.496 206.764 135.024 206.588 134.64C206.412 134.24 206.172 133.936 205.868 133.728C205.564 133.52 205.212 133.416 204.812 133.416ZM215.54 123.888H218.564V146.112H215.54V123.888ZM212.876 132.936H216.524V135.504H212.876V132.936ZM210.86 124.296H213.836V145.176H210.86V124.296ZM203.252 124.488H206.396V128.832H203.252V124.488ZM225.978 135.192H229.17V141.408H225.978V135.192ZM234.042 135.192H237.234V141.408H234.042V135.192ZM221.562 140.952H241.698V143.544H221.562V140.952ZM231.594 124.992C233.194 124.992 234.618 125.24 235.866 125.736C237.13 126.232 238.114 126.928 238.818 127.824C239.538 128.704 239.898 129.752 239.898 130.968C239.898 132.168 239.538 133.216 238.818 134.112C238.114 134.992 237.13 135.68 235.866 136.176C234.618 136.672 233.194 136.92 231.594 136.92C230.01 136.92 228.586 136.672 227.322 136.176C226.074 135.68 225.09 134.992 224.37 134.112C223.65 133.216 223.29 132.168 223.29 130.968C223.29 129.752 223.65 128.704 224.37 127.824C225.09 126.928 226.074 126.232 227.322 125.736C228.586 125.24 230.01 124.992 231.594 124.992ZM231.594 127.464C230.57 127.464 229.666 127.608 228.882 127.896C228.114 128.168 227.514 128.56 227.082 129.072C226.65 129.584 226.434 130.216 226.434 130.968C226.434 131.688 226.65 132.312 227.082 132.84C227.514 133.352 228.114 133.752 228.882 134.04C229.666 134.312 230.57 134.448 231.594 134.448C232.634 134.448 233.538 134.312 234.306 134.04C235.09 133.752 235.69 133.352 236.106 132.84C236.538 132.312 236.754 131.688 236.754 130.968C236.754 130.216 236.538 129.584 236.106 129.072C235.69 128.56 235.09 128.168 234.306 127.896C233.538 127.608 232.634 127.464 231.594 127.464ZM247.777 126.938L247.391 138.785H244.578L244.18 126.938H247.777ZM244.086 142.453C244.086 141.953 244.258 141.539 244.602 141.211C244.953 140.875 245.414 140.707 245.984 140.707C246.562 140.707 247.023 140.875 247.367 141.211C247.711 141.539 247.883 141.953 247.883 142.453C247.883 142.938 247.711 143.348 247.367 143.684C247.023 144.02 246.562 144.188 245.984 144.188C245.414 144.188 244.953 144.02 244.602 143.684C244.258 143.348 244.086 142.938 244.086 142.453Z" fill="#002738"/>
<g filter="url(#filter0_d_15_174)">
<path d="M32 203C32 194.716 38.7157 188 47 188H348C356.284 188 363 194.716 363 203V239C363 247.284 356.284 254 348 254H47C38.7157 254 32 247.284 32 239V203Z" fill="white" shape-rendering="crispEdges"/>
</g>
<path d="M53 212C53 207.029 57.0294 203 62 203H124C128.971 203 133 207.029 133 212V230C133 234.971 128.971 239 124 239H62C57.0294 239 53 234.971 53 230V212Z" fill="#BFE8F8"/>
<path d="M89.5851 214.254H91.4471V227.26H89.5851V214.254ZM84.4611 215.164C85.1238 215.164 85.7118 215.355 86.2251 215.738C86.7384 216.111 87.1398 216.648 87.4291 217.348C87.7278 218.039 87.8771 218.855 87.8771 219.798C87.8771 220.75 87.7278 221.576 87.4291 222.276C87.1398 222.967 86.7384 223.503 86.2251 223.886C85.7118 224.259 85.1238 224.446 84.4611 224.446C83.8078 224.446 83.2244 224.259 82.7111 223.886C82.1978 223.503 81.7918 222.967 81.4931 222.276C81.2038 221.576 81.0591 220.75 81.0591 219.798C81.0591 218.855 81.2038 218.039 81.4931 217.348C81.7918 216.648 82.1978 216.111 82.7111 215.738C83.2244 215.355 83.8078 215.164 84.4611 215.164ZM84.4611 216.858C84.1438 216.858 83.8638 216.97 83.6211 217.194C83.3784 217.418 83.1871 217.749 83.0471 218.188C82.9164 218.617 82.8511 219.154 82.8511 219.798C82.8511 220.433 82.9164 220.974 83.0471 221.422C83.1871 221.861 83.3784 222.192 83.6211 222.416C83.8638 222.64 84.1438 222.752 84.4611 222.752C84.7878 222.752 85.0724 222.64 85.3151 222.416C85.5578 222.192 85.7444 221.861 85.8751 221.422C86.0151 220.974 86.0851 220.433 86.0851 219.798C86.0851 219.154 86.0151 218.617 85.8751 218.188C85.7444 217.749 85.5578 217.418 85.3151 217.194C85.0724 216.97 84.7878 216.858 84.4611 216.858ZM93.574 220.82H105.306V222.29H93.574V220.82ZM95.002 214.52H103.878V217.978H96.864V219.392H95.03V216.662H102.044V215.934H95.002V214.52ZM95.03 218.706H104.13V220.12H95.03V218.706ZM95.044 223.06H103.948V227.106H95.044V223.06ZM102.114 224.516H96.878V225.636H102.114V224.516Z" fill="#002738"/>
<g filter="url(#filter1_d_15_174)">
<path d="M32 297C32 288.716 38.7157 282 47 282H348C356.284 282 363 288.716 363 297V333C363 341.284 356.284 348 348 348H47C38.7157 348 32 341.284 32 333V297Z" fill="white"/>
<path d="M53 306C53 301.029 57.0294 297 62 297H124C128.971 297 133 301.029 133 306V324C133 328.971 128.971 333 124 333H62C57.0294 333 53 328.971 53 324V306Z" fill="#BFE8F8"/>
<path d="M70.1402 309.052H71.5962V310.55C71.5962 311.287 71.4935 312.006 71.2882 312.706C71.0829 313.397 70.7609 314.017 70.3222 314.568C69.8835 315.119 69.3095 315.543 68.6002 315.842L67.6342 314.414C68.2315 314.143 68.7122 313.803 69.0762 313.392C69.4495 312.972 69.7202 312.515 69.8882 312.02C70.0562 311.525 70.1402 311.035 70.1402 310.55V309.052ZM70.4902 309.052H71.9462V310.55C71.9462 311.017 72.0255 311.474 72.1842 311.922C72.3429 312.361 72.5995 312.762 72.9542 313.126C73.3182 313.49 73.7802 313.789 74.3402 314.022L73.3602 315.436C72.6882 315.165 72.1375 314.783 71.7082 314.288C71.2882 313.784 70.9802 313.215 70.7842 312.58C70.5882 311.936 70.4902 311.259 70.4902 310.55V309.052ZM77.0842 308.282H78.8622V316.206H77.0842V308.282ZM75.5302 311.432H77.5882V312.93H75.5302V311.432ZM74.3542 308.52H76.0902V315.8H74.3542V308.52ZM74.4662 316.388C75.3715 316.388 76.1555 316.486 76.8182 316.682C77.4902 316.869 78.0082 317.144 78.3722 317.508C78.7362 317.872 78.9182 318.306 78.9182 318.81C78.9182 319.323 78.7362 319.762 78.3722 320.126C78.0082 320.49 77.4902 320.765 76.8182 320.952C76.1555 321.148 75.3715 321.246 74.4662 321.246C73.5609 321.246 72.7722 321.148 72.1002 320.952C71.4282 320.765 70.9102 320.49 70.5462 320.126C70.1822 319.762 70.0002 319.323 70.0002 318.81C70.0002 318.306 70.1822 317.872 70.5462 317.508C70.9102 317.144 71.4282 316.869 72.1002 316.682C72.7722 316.486 73.5609 316.388 74.4662 316.388ZM74.4662 317.788C73.6262 317.788 72.9775 317.872 72.5202 318.04C72.0722 318.208 71.8482 318.465 71.8482 318.81C71.8482 319.155 72.0722 319.417 72.5202 319.594C72.9775 319.762 73.6262 319.846 74.4662 319.846C75.0169 319.846 75.4835 319.809 75.8662 319.734C76.2582 319.65 76.5522 319.533 76.7482 319.384C76.9535 319.235 77.0562 319.043 77.0562 318.81C77.0562 318.465 76.8322 318.208 76.3842 318.04C75.9362 317.872 75.2969 317.788 74.4662 317.788ZM89.6691 308.268H91.5451V317.802H89.6691V308.268ZM86.5331 309.724H90.2991V311.18H86.5331V309.724ZM82.9771 319.524H91.8251V321.022H82.9771V319.524ZM82.9771 316.962H84.8391V320.294H82.9771V316.962ZM81.3951 309.094H83.2431V315.184H81.3951V309.094ZM81.3951 314.624H82.4311C83.3738 314.624 84.2744 314.596 85.1331 314.54C86.0011 314.484 86.8971 314.377 87.8211 314.218L88.0031 315.73C87.0511 315.898 86.1271 316.01 85.2311 316.066C84.3351 316.122 83.4018 316.15 82.4311 316.15H81.3951V314.624ZM86.5331 312.132H90.2991V313.602H86.5331V312.132ZM96.948 314.932H98.81V317.76H96.948V314.932ZM102.618 308.268H104.48V318.096H102.618V308.268ZM95.142 319.524H104.774V321.022H95.142V319.524ZM95.142 317.158H97.004V319.93H95.142V317.158ZM93.756 315.492L93.518 314.008C94.3113 313.999 95.1747 313.989 96.108 313.98C97.0413 313.961 97.9933 313.924 98.964 313.868C99.9347 313.812 100.868 313.728 101.764 313.616L101.89 314.946C100.966 315.105 100.023 315.226 99.062 315.31C98.11 315.385 97.1813 315.431 96.276 315.45C95.3707 315.469 94.5307 315.483 93.756 315.492ZM100.182 315.8H103.038V317.074H100.182V315.8ZM97.69 308.716C98.3247 308.716 98.8847 308.814 99.37 309.01C99.8553 309.206 100.233 309.477 100.504 309.822C100.784 310.167 100.924 310.573 100.924 311.04C100.924 311.497 100.784 311.903 100.504 312.258C100.233 312.603 99.8553 312.869 99.37 313.056C98.8847 313.243 98.3247 313.336 97.69 313.336C97.0553 313.336 96.4907 313.243 95.996 313.056C95.5107 312.869 95.1327 312.603 94.862 312.258C94.5913 311.903 94.456 311.497 94.456 311.04C94.456 310.573 94.5913 310.167 94.862 309.822C95.1327 309.477 95.5107 309.206 95.996 309.01C96.4907 308.814 97.0553 308.716 97.69 308.716ZM97.69 310.074C97.2607 310.074 96.906 310.153 96.626 310.312C96.3553 310.471 96.22 310.713 96.22 311.04C96.22 311.348 96.3553 311.586 96.626 311.754C96.906 311.913 97.2607 311.992 97.69 311.992C98.1287 311.992 98.4787 311.913 98.74 311.754C99.0107 311.586 99.146 311.348 99.146 311.04C99.146 310.825 99.0853 310.648 98.964 310.508C98.8427 310.368 98.6747 310.261 98.46 310.186C98.2453 310.111 97.9887 310.074 97.69 310.074ZM110.093 308.646C110.765 308.646 111.358 308.777 111.871 309.038C112.394 309.29 112.804 309.64 113.103 310.088C113.411 310.527 113.565 311.035 113.565 311.614C113.565 312.193 113.411 312.706 113.103 313.154C112.804 313.593 112.394 313.938 111.871 314.19C111.358 314.442 110.765 314.568 110.093 314.568C109.44 314.568 108.852 314.442 108.329 314.19C107.806 313.938 107.391 313.593 107.083 313.154C106.784 312.706 106.635 312.193 106.635 311.614C106.635 311.035 106.784 310.522 107.083 310.074C107.391 309.626 107.806 309.276 108.329 309.024C108.852 308.772 109.44 308.646 110.093 308.646ZM110.107 310.158C109.79 310.158 109.505 310.219 109.253 310.34C109.001 310.452 108.8 310.615 108.651 310.83C108.511 311.045 108.441 311.306 108.441 311.614C108.441 311.922 108.511 312.188 108.651 312.412C108.8 312.627 108.996 312.79 109.239 312.902C109.491 313.014 109.78 313.07 110.107 313.07C110.424 313.07 110.704 313.014 110.947 312.902C111.199 312.79 111.395 312.627 111.535 312.412C111.684 312.188 111.759 311.922 111.759 311.614C111.759 311.306 111.684 311.045 111.535 310.83C111.395 310.615 111.199 310.452 110.947 310.34C110.695 310.219 110.415 310.158 110.107 310.158ZM115.357 308.282H117.219V314.764H115.357V308.282ZM108.581 315.296H117.219V318.838H110.429V320.42H108.595V317.494H115.371V316.724H108.581V315.296ZM108.595 319.65H117.541V321.106H108.595V319.65Z" fill="#002738"/>
</g>
<g filter="url(#filter2_d_15_174)">
<path d="M32 399C32 390.716 38.7157 384 47 384H177C185.284 384 192 390.716 192 399V433C192 441.284 185.284 448 177 448H47C38.7157 448 32 441.284 32 433V399Z" fill="white"/>
<path d="M203 399C203 390.716 209.716 384 218 384H348C356.284 384 363 390.716 363 399V433C363 441.284 356.284 448 348 448H218C209.716 448 203 441.284 203 433V399Z" fill="white"/>
</g>
<g filter="url(#filter3_d_15_174)">
<path d="M32 499C32 490.716 38.7157 484 47 484H177C185.284 484 192 490.716 192 499V533C192 541.284 185.284 548 177 548H47C38.7157 548 32 541.284 32 533V499Z" fill="white"/>
<path d="M203 499C203 490.716 209.716 484 218 484H348C356.284 484 363 490.716 363 499V533C363 541.284 356.284 548 348 548H218C209.716 548 203 541.284 203 533V499Z" fill="white"/>
</g>
<g filter="url(#filter4_d_15_174)">
<path d="M32 585C32 580.029 36.0294 576 41 576H95C99.9706 576 104 580.029 104 585V603C104 607.971 99.9706 612 95 612H41C36.0294 612 32 607.971 32 603V585Z" fill="#BFE8F8"/>
<path d="M57.1731 587.786H65.9791V592.364H57.1731V587.786ZM64.1451 589.242H59.0071V590.908H64.1451V589.242ZM55.7311 593.596H67.4631V595.066H55.7311V593.596ZM60.6591 592.042H62.5071V594.002H60.6591V592.042ZM57.0331 596.004H66.0491V600.246H64.1871V597.46H57.0331V596.004ZM71.408 594.324H73.256V597.81H71.408V594.324ZM75.482 594.338H77.33V597.824H75.482V594.338ZM68.524 597.32H80.27V598.818H68.524V597.32ZM69.42 588.29H79.304V589.788H69.42V588.29ZM69.49 593.414H79.262V594.884H69.49V593.414ZM71.184 589.522H73.046V593.624H71.184V589.522ZM75.678 589.522H77.54V593.624H75.678V589.522Z" fill="#002738"/>
<path d="M32 632C32 627.029 36.0294 623 41 623H354C358.971 623 363 627.029 363 632V680C363 684.971 358.971 689 354 689H41C36.0294 689 32 684.971 32 680V632Z" fill="white"/>
</g>
<defs>
<filter id="filter0_d_15_174" x="28" y="188" width="339" height="74" filterUnits="userSpaceOnUse" color-interpolation-filters="sRGB">
<feFlood flood-opacity="0" result="BackgroundImageFix"/>
<feColorMatrix in="SourceAlpha" type="matrix" values="0 0 0 0 0 0 0 0 0 0 0 0 0 0 0 0 0 0 127 0" result="hardAlpha"/>
<feOffset dy="4"/>
<feGaussianBlur stdDeviation="2"/>
<feComposite in2="hardAlpha" operator="out"/>
<feColorMatrix type="matrix" values="0 0 0 0 0 0 0 0 0 0 0 0 0 0 0 0 0 0 0.19 0"/>
<feBlend mode="normal" in2="BackgroundImageFix" result="effect1_dropShadow_15_174"/>
<feBlend mode="normal" in="SourceGraphic" in2="effect1_dropShadow_15_174" result="shape"/>
</filter>
<filter id="filter1_d_15_174" x="28" y="282" width="339" height="74" filterUnits="userSpaceOnUse" color-interpolation-filters="sRGB">
<feFlood flood-opacity="0" result="BackgroundImageFix"/>
<feColorMatrix in="SourceAlpha" type="matrix" values="0 0 0 0 0 0 0 0 0 0 0 0 0 0 0 0 0 0 127 0" result="hardAlpha"/>
<feOffset dy="4"/>
<feGaussianBlur stdDeviation="2"/>
<feComposite in2="hardAlpha" operator="out"/>
<feColorMatrix type="matrix" values="0 0 0 0 0 0 0 0 0 0 0 0 0 0 0 0 0 0 0.19 0"/>
<feBlend mode="normal" in2="BackgroundImageFix" result="effect1_dropShadow_15_174"/>
<feBlend mode="normal" in="SourceGraphic" in2="effect1_dropShadow_15_174" result="shape"/>
</filter>
<filter id="filter2_d_15_174" x="20" y="376" width="355" height="88" filterUnits="userSpaceOnUse" color-interpolation-filters="sRGB">
<feFlood flood-opacity="0" result="BackgroundImageFix"/>
<feColorMatrix in="SourceAlpha" type="matrix" values="0 0 0 0 0 0 0 0 0 0 0 0 0 0 0 0 0 0 127 0" result="hardAlpha"/>
<feOffset dy="4"/>
<feGaussianBlur stdDeviation="2"/>
<feComposite in2="hardAlpha" operator="out"/>
<feColorMatrix type="matrix" values="0 0 0 0 0 0 0 0 0 0 0 0 0 0 0 0 0 0 0.19 0"/>
<feBlend mode="normal" in2="BackgroundImageFix" result="effect1_dropShadow_15_174"/>
<feBlend mode="normal" in="SourceGraphic" in2="effect1_dropShadow_15_174" result="shape"/>
</filter>
<filter id="filter3_d_15_174" x="28" y="484" width="339" height="72" filterUnits="userSpaceOnUse" color-interpolation-filters="sRGB">
<feFlood flood-opacity="0" result="BackgroundImageFix"/>
<feColorMatrix in="SourceAlpha" type="matrix" values="0 0 0 0 0 0 0 0 0 0 0 0 0 0 0 0 0 0 127 0" result="hardAlpha"/>
<feOffset dy="4"/>
<feGaussianBlur stdDeviation="2"/>
<feComposite in2="hardAlpha" operator="out"/>
<feColorMatrix type="matrix" values="0 0 0 0 0 0 0 0 0 0 0 0 0 0 0 0 0 0 0.19 0"/>
<feBlend mode="normal" in2="BackgroundImageFix" result="effect1_dropShadow_15_174"/>
<feBlend mode="normal" in="SourceGraphic" in2="effect1_dropShadow_15_174" result="shape"/>
</filter>
<filter id="filter4_d_15_174" x="28" y="576" width="339" height="121" filterUnits="userSpaceOnUse" color-interpolation-filters="sRGB">
<feFlood flood-opacity="0" result="BackgroundImageFix"/>
<feColorMatrix in="SourceAlpha" type="matrix" values="0 0 0 0 0 0 0 0 0 0 0 0 0 0 0 0 0 0 127 0" result="hardAlpha"/>
<feOffset dy="4"/>
<feGaussianBlur stdDeviation="2"/>
<feComposite in2="hardAlpha" operator="out"/>
<feColorMatrix type="matrix" values="0 0 0 0 0 0 0 0 0 0 0 0 0 0 0 0 0 0 0.19 0"/>
<feBlend mode="normal" in2="BackgroundImageFix" result="effect1_dropShadow_15_174"/>
<feBlend mode="normal" in="SourceGraphic" in2="effect1_dropShadow_15_174" result="shape"/>
</filter>
</defs>
</svg>
