<svg width="402" height="874" viewBox="0 0 402 874" fill="none" xmlns="http://www.w3.org/2000/svg">
<g clip-path="url(#clip0_460_3670)">
<rect width="402" height="874" fill="#E9EAEF"/>
<rect x="38" y="574" width="115" height="40" rx="12" fill="white"/>
<path d="M166.5 597.15C165.76 597.15 165.11 597.005 164.55 596.715C163.99 596.425 163.555 595.975 163.245 595.365C162.935 594.745 162.78 593.96 162.78 593.01C162.78 592.01 162.945 591.2 163.275 590.58C163.615 589.96 164.07 589.505 164.64 589.215C165.22 588.915 165.88 588.765 166.62 588.765C167.07 588.765 167.49 588.815 167.88 588.915C168.28 589.005 168.61 589.11 168.87 589.23L168.39 590.52C168.11 590.41 167.81 590.315 167.49 590.235C167.18 590.155 166.885 590.115 166.605 590.115C166.105 590.115 165.69 590.225 165.36 590.445C165.04 590.655 164.8 590.975 164.64 591.405C164.49 591.825 164.415 592.355 164.415 592.995C164.415 593.605 164.495 594.12 164.655 594.54C164.815 594.96 165.05 595.28 165.36 595.5C165.68 595.71 166.075 595.815 166.545 595.815C166.995 595.815 167.39 595.765 167.73 595.665C168.07 595.565 168.39 595.435 168.69 595.275V596.655C168.4 596.825 168.085 596.95 167.745 597.03C167.405 597.11 166.99 597.15 166.5 597.15ZM179.659 588.765C180.569 588.765 181.254 589 181.714 589.47C182.174 589.94 182.404 590.695 182.404 591.735V597H180.814V591.945C180.814 591.325 180.689 590.86 180.439 590.55C180.199 590.23 179.819 590.07 179.299 590.07C178.579 590.07 178.064 590.295 177.754 590.745C177.444 591.185 177.289 591.825 177.289 592.665V597H175.714V591.945C175.714 591.535 175.654 591.19 175.534 590.91C175.424 590.63 175.259 590.42 175.039 590.28C174.819 590.14 174.534 590.07 174.184 590.07C173.684 590.07 173.289 590.18 172.999 590.4C172.709 590.62 172.499 590.945 172.369 591.375C172.249 591.795 172.189 592.31 172.189 592.92V597H170.599V588.915H171.859L172.084 589.995H172.174C172.344 589.715 172.549 589.485 172.789 589.305C173.039 589.125 173.314 588.99 173.614 588.9C173.914 588.81 174.224 588.765 174.544 588.765C175.154 588.765 175.669 588.875 176.089 589.095C176.509 589.305 176.814 589.63 177.004 590.07H177.124C177.384 589.62 177.744 589.29 178.204 589.08C178.664 588.87 179.149 588.765 179.659 588.765Z" fill="black"/>
<rect x="214" y="574" width="115" height="40" rx="12" fill="white"/>
<path d="M348.82 591.3C348.82 591.51 348.81 591.75 348.79 592.02C348.78 592.29 348.765 592.54 348.745 592.77H348.79C348.87 592.67 348.965 592.55 349.075 592.41C349.195 592.26 349.315 592.11 349.435 591.96C349.555 591.81 349.665 591.68 349.765 591.57L352.24 588.915H354.085L350.83 592.38L354.295 597H352.42L349.75 593.385L348.82 594.165V597H347.245V585.6H348.82V591.3ZM358.414 588.765C358.934 588.765 359.404 588.865 359.824 589.065C360.244 589.265 360.599 589.57 360.889 589.98H360.964L361.144 588.915H362.434V597.105C362.434 597.865 362.299 598.505 362.029 599.025C361.759 599.545 361.344 599.935 360.784 600.195C360.234 600.465 359.539 600.6 358.699 600.6C358.119 600.6 357.584 600.56 357.094 600.48C356.604 600.4 356.154 600.275 355.744 600.105V598.71C356.034 598.85 356.339 598.965 356.659 599.055C356.979 599.155 357.319 599.225 357.679 599.265C358.039 599.315 358.409 599.34 358.789 599.34C359.449 599.34 359.959 599.15 360.319 598.77C360.679 598.4 360.859 597.875 360.859 597.195V596.925C360.859 596.795 360.864 596.625 360.874 596.415C360.884 596.195 360.894 596.035 360.904 595.935H360.844C360.564 596.355 360.219 596.665 359.809 596.865C359.409 597.055 358.944 597.15 358.414 597.15C357.394 597.15 356.594 596.785 356.014 596.055C355.444 595.315 355.159 594.29 355.159 592.98C355.159 592.1 355.289 591.35 355.549 590.73C355.809 590.1 356.179 589.615 356.659 589.275C357.149 588.935 357.734 588.765 358.414 588.765ZM358.744 590.085C358.324 590.085 357.969 590.2 357.679 590.43C357.389 590.65 357.169 590.975 357.019 591.405C356.869 591.835 356.794 592.365 356.794 592.995C356.794 593.935 356.959 594.65 357.289 595.14C357.629 595.63 358.124 595.875 358.774 595.875C359.154 595.875 359.474 595.825 359.734 595.725C360.004 595.625 360.224 595.47 360.394 595.26C360.574 595.05 360.704 594.785 360.784 594.465C360.874 594.135 360.919 593.74 360.919 593.28V592.98C360.919 592.29 360.839 591.735 360.679 591.315C360.529 590.885 360.294 590.575 359.974 590.385C359.654 590.185 359.244 590.085 358.744 590.085Z" fill="black"/>
<path d="M44.91 265.72H57.21V272.68H55.11V267.42H44.91V265.72ZM55.11 254.4H57.21V264.88H55.11V254.4ZM43.25 255.38H45.33V262.84H43.25V255.38ZM43.25 261.9H44.77C46.1167 261.9 47.5034 261.847 48.93 261.74C50.3567 261.633 51.83 261.427 53.35 261.12L53.61 262.82C52.05 263.127 50.5367 263.347 49.07 263.48C47.6034 263.6 46.17 263.66 44.77 263.66H43.25V261.9ZM61.3485 256.24H63.4085V266.9H61.3485V256.24ZM61.3485 266.34H62.5685C63.6485 266.34 64.6885 266.307 65.6885 266.24C66.6885 266.173 67.7485 266.027 68.8685 265.8L69.1285 267.56C67.9818 267.8 66.8818 267.96 65.8285 268.04C64.7885 268.107 63.7018 268.14 62.5685 268.14H61.3485V266.34ZM74.1685 254.36H76.1685V272.64H74.1685V254.36ZM66.4285 260.34H70.8085V262.06H66.4285V260.34ZM70.2885 254.74H72.2685V271.76H70.2885V254.74ZM91.9069 254.38H94.0069V264.78H91.9069V254.38ZM82.0669 265.68H94.0069V272.42H82.0669V265.68ZM91.9669 267.36H84.1069V270.76H91.9669V267.36ZM84.1469 255.28C85.0802 255.28 85.9136 255.467 86.6469 255.84C87.3802 256.2 87.9536 256.707 88.3669 257.36C88.7936 258 89.0069 258.747 89.0069 259.6C89.0069 260.453 88.7936 261.207 88.3669 261.86C87.9536 262.5 87.3802 263.007 86.6469 263.38C85.9136 263.74 85.0802 263.92 84.1469 263.92C83.2136 263.92 82.3802 263.74 81.6469 263.38C80.9136 263.007 80.3336 262.5 79.9069 261.86C79.4936 261.207 79.2869 260.453 79.2869 259.6C79.2869 258.747 79.4936 258 79.9069 257.36C80.3336 256.707 80.9136 256.2 81.6469 255.84C82.3802 255.467 83.2136 255.28 84.1469 255.28ZM84.1469 257.02C83.6136 257.02 83.1336 257.127 82.7069 257.34C82.2802 257.553 81.9469 257.853 81.7069 258.24C81.4669 258.627 81.3469 259.08 81.3469 259.6C81.3469 260.12 81.4669 260.573 81.7069 260.96C81.9469 261.347 82.2802 261.647 82.7069 261.86C83.1336 262.073 83.6136 262.18 84.1469 262.18C84.6936 262.18 85.1736 262.073 85.5869 261.86C86.0136 261.647 86.3469 261.347 86.5869 260.96C86.8402 260.573 86.9669 260.12 86.9669 259.6C86.9669 259.08 86.8402 258.627 86.5869 258.24C86.3469 257.853 86.0136 257.553 85.5869 257.34C85.1736 257.127 84.6936 257.02 84.1469 257.02Z" fill="black"/>
<rect x="41" y="285" width="323" height="40" rx="12" fill="white"/>
<path d="M45.5 353.5H47.16V355.8C47.16 356.76 47 357.707 46.68 358.64C46.36 359.56 45.8867 360.393 45.26 361.14C44.6467 361.887 43.8667 362.467 42.92 362.88L41.8 361.26C42.6267 360.887 43.3133 360.407 43.86 359.82C44.4067 359.22 44.8133 358.573 45.08 357.88C45.36 357.173 45.5 356.48 45.5 355.8V353.5ZM45.88 353.5H47.52V355.8C47.52 356.453 47.6533 357.1 47.92 357.74C48.1867 358.38 48.5867 358.96 49.12 359.48C49.6533 360 50.3067 360.42 51.08 360.74L49.98 362.32C49.0733 361.96 48.3133 361.447 47.7 360.78C47.0867 360.113 46.6267 359.353 46.32 358.5C46.0267 357.633 45.88 356.733 45.88 355.8V353.5ZM55.4 352.38H57.4V363.62H55.4V352.38ZM52.8 357.08H56V358.78H52.8V357.08ZM51.5 352.72H53.48V363.04H51.5V352.72ZM51.3 363.94C52.5667 363.94 53.66 364.073 54.58 364.34C55.5133 364.607 56.2267 364.993 56.72 365.5C57.2267 365.993 57.48 366.593 57.48 367.3C57.48 367.993 57.2267 368.587 56.72 369.08C56.2267 369.587 55.5133 369.967 54.58 370.22C53.66 370.487 52.5667 370.62 51.3 370.62C50.0467 370.62 48.9533 370.487 48.02 370.22C47.0867 369.967 46.3667 369.587 45.86 369.08C45.3667 368.587 45.12 367.993 45.12 367.3C45.12 366.593 45.3667 365.993 45.86 365.5C46.3667 364.993 47.0867 364.607 48.02 364.34C48.9533 364.073 50.0467 363.94 51.3 363.94ZM51.3 365.54C50.02 365.54 49.0133 365.693 48.28 366C47.56 366.293 47.2 366.727 47.2 367.3C47.2 367.847 47.56 368.273 48.28 368.58C49.0133 368.887 50.02 369.04 51.3 369.04C52.1533 369.04 52.8867 368.973 53.5 368.84C54.1133 368.693 54.58 368.493 54.9 368.24C55.22 367.987 55.38 367.673 55.38 367.3C55.38 366.727 55.02 366.293 54.3 366C53.5933 365.693 52.5933 365.54 51.3 365.54ZM73.3584 352.38H75.4584V365.86H73.3584V352.38ZM68.5184 354.6H74.0984V356.26H68.5184V354.6ZM63.5984 368.58H75.9184V370.28H63.5984V368.58ZM63.5984 364.7H65.6984V369.42H63.5984V364.7ZM61.3584 353.62H63.4384V362.24H61.3584V353.62ZM61.3584 361.58H62.7584C64.0784 361.58 65.3584 361.54 66.5984 361.46C67.8518 361.38 69.1584 361.213 70.5184 360.96L70.7384 362.68C69.3251 362.947 67.9784 363.12 66.6984 363.2C65.4318 363.28 64.1184 363.32 62.7584 363.32H61.3584V361.58ZM68.5184 358.04H74.0984V359.72H68.5184V358.04ZM83.3969 359.86H85.4969V363.1H83.3969V359.86ZM91.7569 352.38H93.8569V363.04H91.7569V352.38ZM78.9169 360.54L78.6969 359.04C79.8569 359.04 81.1035 359.033 82.4369 359.02C83.7702 359.007 85.1235 358.973 86.4969 358.92C87.8702 358.853 89.2035 358.753 90.4969 358.62L90.5969 359.94C89.2769 360.127 87.9369 360.267 86.5769 360.36C85.2169 360.44 83.8835 360.493 82.5769 360.52C81.2835 360.533 80.0635 360.54 78.9169 360.54ZM81.3769 363.68H93.8569V367.68H83.4769V369.48H81.4169V366.32H91.7969V365.12H81.3769V363.68ZM81.4169 369H94.3969V370.48H81.4169V369ZM88.3169 360.96H92.4169V362.26H88.3169V360.96ZM84.5369 352.68C85.4435 352.68 86.2369 352.793 86.9169 353.02C87.5969 353.233 88.1235 353.547 88.4969 353.96C88.8835 354.373 89.0769 354.867 89.0769 355.44C89.0769 355.987 88.8835 356.467 88.4969 356.88C88.1235 357.293 87.5969 357.613 86.9169 357.84C86.2369 358.053 85.4435 358.16 84.5369 358.16C83.6435 358.16 82.8502 358.053 82.1569 357.84C81.4769 357.613 80.9502 357.293 80.5769 356.88C80.2035 356.467 80.0169 355.987 80.0169 355.44C80.0169 354.867 80.2035 354.373 80.5769 353.96C80.9502 353.547 81.4769 353.233 82.1569 353.02C82.8502 352.793 83.6435 352.68 84.5369 352.68ZM84.5369 354.1C83.7635 354.1 83.1369 354.22 82.6569 354.46C82.1902 354.687 81.9569 355.013 81.9569 355.44C81.9569 355.853 82.1902 356.18 82.6569 356.42C83.1369 356.647 83.7635 356.76 84.5369 356.76C85.3235 356.76 85.9502 356.647 86.4169 356.42C86.8835 356.18 87.1169 355.853 87.1169 355.44C87.1169 355.013 86.8835 354.687 86.4169 354.46C85.9502 354.22 85.3235 354.1 84.5369 354.1ZM102.255 352.98C103.175 352.98 103.995 353.153 104.715 353.5C105.435 353.847 106.002 354.333 106.415 354.96C106.829 355.573 107.035 356.287 107.035 357.1C107.035 357.9 106.829 358.607 106.415 359.22C106.002 359.833 105.435 360.313 104.715 360.66C103.995 361.007 103.175 361.18 102.255 361.18C101.335 361.18 100.515 361.007 99.7953 360.66C99.0753 360.313 98.502 359.833 98.0753 359.22C97.662 358.607 97.4553 357.9 97.4553 357.1C97.4553 356.287 97.662 355.573 98.0753 354.96C98.502 354.333 99.0753 353.847 99.7953 353.5C100.515 353.153 101.335 352.98 102.255 352.98ZM102.255 354.68C101.722 354.68 101.249 354.78 100.835 354.98C100.422 355.18 100.095 355.46 99.8553 355.82C99.6153 356.18 99.4953 356.6 99.4953 357.08C99.4953 357.573 99.6153 358 99.8553 358.36C100.095 358.72 100.422 359 100.835 359.2C101.249 359.387 101.722 359.48 102.255 359.48C102.789 359.48 103.262 359.387 103.675 359.2C104.089 359 104.415 358.72 104.655 358.36C104.895 358 105.015 357.573 105.015 357.08C105.015 356.6 104.895 356.18 104.655 355.82C104.415 355.46 104.082 355.18 103.655 354.98C103.242 354.78 102.775 354.68 102.255 354.68ZM110.075 352.38H112.175V361.64H110.075V352.38ZM100.195 362.46H112.175V367.16H102.295V369.66H100.235V365.62H110.115V364.1H100.195V362.46ZM100.235 368.78H112.735V370.42H100.235V368.78Z" fill="black"/>
<rect x="43" y="384" width="94" height="40" rx="12" fill="white"/>
<rect x="156" y="384" width="94" height="40" rx="12" fill="white"/>
<rect x="269" y="384" width="94" height="40" rx="12" fill="white"/>
<path d="M44.36 448.36H46.1V450.14C46.1 451.34 45.9 452.46 45.5 453.5C45.1 454.527 44.5133 455.427 43.74 456.2C42.98 456.96 42.0467 457.547 40.94 457.96L39.84 456.26C40.8267 455.927 41.6533 455.453 42.32 454.84C42.9867 454.213 43.4933 453.493 43.84 452.68C44.1867 451.867 44.36 451.02 44.36 450.14V448.36ZM44.78 448.36H46.48V450.04C46.48 450.88 46.64 451.68 46.96 452.44C47.2933 453.2 47.78 453.867 48.42 454.44C49.06 455.013 49.84 455.453 50.76 455.76L49.66 457.4C48.62 457.027 47.7333 456.48 47 455.76C46.2667 455.04 45.7133 454.193 45.34 453.22C44.9667 452.247 44.78 451.187 44.78 450.04V448.36ZM52.96 447.38H55.06V458.14H52.96V447.38ZM48.98 458.64C50.8867 458.64 52.3867 458.947 53.48 459.56C54.5867 460.173 55.14 461.033 55.14 462.14C55.14 463.247 54.5867 464.1 53.48 464.7C52.3867 465.313 50.8867 465.62 48.98 465.62C47.0733 465.62 45.5667 465.313 44.46 464.7C43.3533 464.1 42.8 463.247 42.8 462.14C42.8 461.033 43.3533 460.173 44.46 459.56C45.5667 458.947 47.0733 458.64 48.98 458.64ZM48.98 460.28C48.1133 460.28 47.3733 460.353 46.76 460.5C46.16 460.633 45.7 460.84 45.38 461.12C45.06 461.4 44.9 461.74 44.9 462.14C44.9 462.527 45.06 462.86 45.38 463.14C45.7 463.42 46.16 463.633 46.76 463.78C47.3733 463.927 48.1133 464 48.98 464C49.8467 464 50.58 463.927 51.18 463.78C51.78 463.633 52.24 463.42 52.56 463.14C52.8933 462.86 53.06 462.527 53.06 462.14C53.06 461.74 52.8933 461.4 52.56 461.12C52.24 460.84 51.78 460.633 51.18 460.5C50.58 460.353 49.8467 460.28 48.98 460.28ZM49.28 451H53.34V452.72H49.28V451ZM67.0184 449.82H71.8584V451.44H67.0184V449.82ZM67.0184 453.16H71.8584V454.78H67.0184V453.16ZM71.3584 447.38H73.4584V456.84H71.3584V447.38ZM61.5584 457.64H73.4584V462.22H63.6584V464.82H61.5984V460.68H71.3784V459.28H61.5584V457.64ZM61.5984 463.78H74.0584V465.42H61.5984V463.78ZM59.1584 448.18H61.2384V450.56H65.5184V448.18H67.5784V456.2H59.1584V448.18ZM61.2384 452.18V454.56H65.5184V452.18H61.2384Z" fill="black"/>
<path d="M46.36 555.46H49.56V557.16H46.36V555.46ZM42.42 553.22H44.02V553.96C44.02 554.893 43.9333 555.813 43.76 556.72C43.5867 557.613 43.3267 558.467 42.98 559.28C42.6467 560.093 42.22 560.827 41.7 561.48C41.18 562.12 40.5733 562.64 39.88 563.04L38.68 561.46C39.3067 561.087 39.8533 560.627 40.32 560.08C40.8 559.533 41.1933 558.927 41.5 558.26C41.8067 557.58 42.0333 556.88 42.18 556.16C42.34 555.427 42.42 554.693 42.42 553.96V553.22ZM42.8 553.22H44.4V553.96C44.4 554.667 44.4733 555.373 44.62 556.08C44.78 556.773 45.0133 557.44 45.32 558.08C45.64 558.707 46.0333 559.28 46.5 559.8C46.9667 560.307 47.5133 560.727 48.14 561.06L46.98 562.64C46.0467 562.133 45.2667 561.433 44.64 560.54C44.0267 559.633 43.5667 558.613 43.26 557.48C42.9533 556.347 42.8 555.173 42.8 553.96V553.22ZM39.26 551.6H47.52V553.32H39.26V551.6ZM42.42 549H44.42V552.94H42.42V549ZM52.5 548.36H54.5V566.64H52.5V548.36ZM48.84 548.74H50.8V565.76H48.84V548.74ZM67.6184 552.6H71.1784V554.28H67.6184V552.6ZM67.5784 556.2H71.1384V557.88H67.5784V556.2ZM57.3584 550.22H67.4984V551.88H57.3584V550.22ZM62.4984 552.68C63.3384 552.68 64.0718 552.827 64.6984 553.12C65.3251 553.4 65.8184 553.793 66.1784 554.3C66.5384 554.807 66.7184 555.4 66.7184 556.08C66.7184 556.76 66.5384 557.36 66.1784 557.88C65.8184 558.387 65.3251 558.787 64.6984 559.08C64.0718 559.36 63.3384 559.5 62.4984 559.5C61.6851 559.5 60.9584 559.36 60.3184 559.08C59.6918 558.787 59.1984 558.387 58.8384 557.88C58.4784 557.36 58.2984 556.76 58.2984 556.08C58.2984 555.4 58.4784 554.807 58.8384 554.3C59.1984 553.793 59.6918 553.4 60.3184 553.12C60.9584 552.827 61.6851 552.68 62.4984 552.68ZM62.4984 554.28C61.8318 554.28 61.2918 554.44 60.8784 554.76C60.4784 555.08 60.2784 555.527 60.2784 556.1C60.2784 556.66 60.4784 557.107 60.8784 557.44C61.2918 557.76 61.8318 557.92 62.4984 557.92C63.1784 557.92 63.7251 557.76 64.1384 557.44C64.5518 557.107 64.7584 556.66 64.7584 556.1C64.7584 555.527 64.5518 555.08 64.1384 554.76C63.7251 554.44 63.1784 554.28 62.4984 554.28ZM61.4784 548.22H63.5784V551.38H61.4784V548.22ZM70.3584 548.36H72.4584V560.1H70.3584V548.36ZM66.3984 560.32C67.6651 560.32 68.7584 560.447 69.6784 560.7C70.5984 560.94 71.3051 561.3 71.7984 561.78C72.3051 562.247 72.5584 562.813 72.5584 563.48C72.5584 564.133 72.3051 564.693 71.7984 565.16C71.3051 565.64 70.5984 566 69.6784 566.24C68.7584 566.493 67.6651 566.62 66.3984 566.62C65.1184 566.62 64.0184 566.493 63.0984 566.24C62.1784 566 61.4651 565.64 60.9584 565.16C60.4651 564.693 60.2184 564.133 60.2184 563.48C60.2184 562.813 60.4651 562.247 60.9584 561.78C61.4651 561.3 62.1784 560.94 63.0984 560.7C64.0184 560.447 65.1184 560.32 66.3984 560.32ZM66.3984 561.94C65.1451 561.94 64.1651 562.067 63.4584 562.32C62.7651 562.573 62.4184 562.96 62.4184 563.48C62.4184 563.973 62.7651 564.353 63.4584 564.62C64.1651 564.887 65.1451 565.02 66.3984 565.02C67.6384 565.02 68.6051 564.887 69.2984 564.62C70.0051 564.353 70.3584 563.973 70.3584 563.48C70.3584 562.96 70.0051 562.573 69.2984 562.32C68.6051 562.067 67.6384 561.94 66.3984 561.94ZM90.7322 552.96H94.5722V554.68H90.7322V552.96ZM93.9522 548.38H96.0522V559.26H93.9522V548.38ZM89.9722 559.74C91.2522 559.74 92.3455 559.88 93.2522 560.16C94.1722 560.427 94.8789 560.82 95.3722 561.34C95.8789 561.847 96.1322 562.467 96.1322 563.2C96.1322 564.293 95.5789 565.14 94.4722 565.74C93.3789 566.34 91.8789 566.64 89.9722 566.64C88.0655 566.64 86.5589 566.34 85.4522 565.74C84.3455 565.14 83.7922 564.293 83.7922 563.2C83.7922 562.467 84.0389 561.847 84.5322 561.34C85.0389 560.82 85.7522 560.427 86.6722 560.16C87.6055 559.88 88.7055 559.74 89.9722 559.74ZM89.9722 561.34C89.1055 561.34 88.3655 561.413 87.7522 561.56C87.1522 561.707 86.6922 561.913 86.3722 562.18C86.0522 562.447 85.8922 562.787 85.8922 563.2C85.8922 563.587 86.0522 563.92 86.3722 564.2C86.6922 564.48 87.1522 564.693 87.7522 564.84C88.3655 564.973 89.1055 565.04 89.9722 565.04C90.8389 565.04 91.5722 564.973 92.1722 564.84C92.7722 564.693 93.2322 564.48 93.5522 564.2C93.8855 563.92 94.0522 563.587 94.0522 563.2C94.0522 562.787 93.8855 562.447 93.5522 562.18C93.2322 561.913 92.7722 561.707 92.1722 561.56C91.5722 561.413 90.8389 561.34 89.9722 561.34ZM85.3722 550.22H87.0922V551.54C87.0922 552.687 86.8855 553.767 86.4722 554.78C86.0722 555.78 85.4922 556.667 84.7322 557.44C83.9722 558.2 83.0522 558.773 81.9722 559.16L80.9122 557.5C81.6189 557.247 82.2455 556.913 82.7922 556.5C83.3522 556.087 83.8255 555.613 84.2122 555.08C84.5989 554.547 84.8855 553.98 85.0722 553.38C85.2722 552.78 85.3722 552.167 85.3722 551.54V550.22ZM85.7922 550.22H87.4922V551.54C87.4922 552.287 87.6589 553.02 87.9922 553.74C88.3255 554.46 88.8122 555.107 89.4522 555.68C90.0922 556.24 90.8722 556.687 91.7922 557.02L90.7522 558.66C89.6989 558.287 88.7989 557.747 88.0522 557.04C87.3189 556.32 86.7589 555.487 86.3722 554.54C85.9855 553.58 85.7922 552.58 85.7922 551.54V550.22ZM81.5122 549.6H91.2922V551.3H81.5122V549.6ZM99.3106 562.7H115.871V564.42H99.3106V562.7ZM106.511 558.52H108.611V563.14H106.511V558.52ZM101.171 549.6H103.251V552.66H111.891V549.6H113.971V559.02H101.171V549.6ZM103.251 554.34V557.34H111.891V554.34H103.251Z" fill="black"/>
<path d="M41 646.12H53.34V652.44H41V646.12ZM51.26 647.76H43.04V650.78H51.26V647.76ZM38.92 654.48H55.44V656.16H38.92V654.48ZM46.12 652.04H48.2V655.02H46.12V652.04ZM40.74 657.78H53.42V663.66H51.32V659.46H40.74V657.78ZM61.6784 655.28H63.7584V660.38H61.6784V655.28ZM67.3584 655.3H69.4384V660.38H67.3584V655.3ZM57.3184 659.82H73.8784V661.52H57.3184V659.82ZM58.6784 646.94H72.4184V648.64H58.6784V646.94ZM58.7584 654.22H72.3784V655.9H58.7584V654.22ZM61.3784 648.34H63.4584V654.5H61.3784V648.34ZM67.6384 648.34H69.7184V654.5H67.6384V648.34Z" fill="black"/>
<rect x="154" y="703" width="65" height="40" rx="12" fill="white"/>
<path d="M232.185 716.66H233.475V718.91C233.475 719.74 233.385 720.54 233.205 721.31C233.025 722.08 232.76 722.8 232.41 723.47C232.07 724.14 231.655 724.73 231.165 725.24C230.685 725.75 230.135 726.155 229.515 726.455L228.57 725.165C229.12 724.915 229.615 724.575 230.055 724.145C230.505 723.705 230.885 723.205 231.195 722.645C231.515 722.085 231.76 721.485 231.93 720.845C232.1 720.205 232.185 719.56 232.185 718.91V716.66ZM232.47 716.66H233.76V718.91C233.76 719.54 233.84 720.16 234 720.77C234.17 721.38 234.41 721.955 234.72 722.495C235.03 723.035 235.405 723.51 235.845 723.92C236.285 724.33 236.77 724.66 237.3 724.91L236.385 726.17C235.775 725.88 235.23 725.49 234.75 725C234.27 724.51 233.86 723.945 233.52 723.305C233.18 722.665 232.92 721.97 232.74 721.22C232.56 720.47 232.47 719.7 232.47 718.91V716.66ZM238.395 715.52H239.97V729.26H238.395V715.52ZM251.609 715.535H253.184V725.45H251.609V715.535ZM252.719 719.54H255.119V720.83H252.719V719.54ZM247.829 716.57H249.509C249.509 717.78 249.254 718.87 248.744 719.84C248.234 720.81 247.499 721.645 246.539 722.345C245.589 723.045 244.444 723.595 243.104 723.995L242.444 722.735C243.584 722.405 244.554 721.97 245.354 721.43C246.164 720.89 246.779 720.27 247.199 719.57C247.619 718.87 247.829 718.115 247.829 717.305V716.57ZM243.029 716.57H248.654V717.845H243.029V716.57ZM244.499 727.685H253.724V728.96H244.499V727.685ZM244.499 724.445H246.074V728.24H244.499V724.445Z" fill="black"/>
<rect x="265" y="703" width="65" height="40" rx="12" fill="white"/>
<path d="M345.03 716.09H346.695C346.695 717.85 346.17 719.315 345.12 720.485C344.08 721.655 342.52 722.505 340.44 723.035L339.84 721.805C341.05 721.505 342.035 721.11 342.795 720.62C343.565 720.13 344.13 719.565 344.49 718.925C344.85 718.285 345.03 717.595 345.03 716.855V716.09ZM340.515 716.09H346.02V717.35H340.515V716.09ZM345.15 718.415V719.495L340.065 719.87L339.825 718.625L345.15 718.415ZM348.825 715.52H350.385V722.615H348.825V715.52ZM349.965 718.505H352.32V719.795H349.965V718.505ZM341.535 723.2H350.385V726.665H343.125V728.48H341.565V725.51H348.825V724.43H341.535V723.2ZM341.565 727.865H350.835V729.065H341.565V727.865ZM353.489 726.335H365.909V727.625H353.489V726.335ZM358.889 723.545H360.464V726.86H358.889V723.545ZM354.959 716.48H364.439V720.83H356.534V723.365H354.989V719.585H362.879V717.755H354.959V716.48ZM354.989 722.735H364.754V723.995H354.989V722.735ZM377.023 715.52H378.598V729.26H377.023V715.52ZM368.053 724.7H369.223C370.013 724.7 370.768 724.69 371.488 724.67C372.218 724.64 372.943 724.59 373.663 724.52C374.383 724.45 375.128 724.355 375.898 724.235L376.048 725.51C374.868 725.71 373.738 725.845 372.658 725.915C371.578 725.975 370.433 726.005 369.223 726.005H368.053V724.7ZM368.023 716.75H374.428V721.82H369.643V725.195H368.053V720.575H372.823V718.025H368.023V716.75Z" fill="black"/>
<path d="M43.1006 716.96H44.4656V717.455C44.4656 717.945 44.3756 718.41 44.1956 718.85C44.0256 719.28 43.7756 719.685 43.4456 720.065C43.1156 720.435 42.7256 720.765 42.2756 721.055C41.8356 721.345 41.3406 721.59 40.7906 721.79C40.2506 721.99 39.6706 722.14 39.0506 722.24L38.4656 720.995C39.0056 720.925 39.5056 720.81 39.9656 720.65C40.4356 720.49 40.8606 720.295 41.2406 720.065C41.6306 719.835 41.9606 719.58 42.2306 719.3C42.5106 719.02 42.7256 718.725 42.8756 718.415C43.0256 718.105 43.1006 717.785 43.1006 717.455V716.96ZM43.5206 716.96H44.8856V717.455C44.8856 717.785 44.9556 718.105 45.0956 718.415C45.2456 718.725 45.4606 719.02 45.7406 719.3C46.0206 719.58 46.3506 719.835 46.7306 720.065C47.1106 720.295 47.5356 720.49 48.0056 720.65C48.4756 720.81 48.9806 720.925 49.5206 720.995L48.9356 722.24C48.3156 722.14 47.7306 721.99 47.1806 721.79C46.6406 721.59 46.1456 721.345 45.6956 721.055C45.2456 720.765 44.8556 720.435 44.5256 720.065C44.2056 719.685 43.9556 719.28 43.7756 718.85C43.6056 718.41 43.5206 717.945 43.5206 717.455V716.96ZM43.1756 724.1H44.7356V729.23H43.1756V724.1ZM37.7906 723.23H50.1806V724.505H37.7906V723.23ZM38.9306 716.315H49.0256V717.56H38.9306V716.315Z" fill="black"/>
<rect x="58" y="702" width="65" height="40" rx="12" fill="white"/>
<path d="M134.511 723.8H136.086V726.05H134.511V723.8ZM140.496 715.535H142.071V729.245H140.496V715.535ZM131.061 726.77L130.866 725.48C131.716 725.48 132.636 725.475 133.626 725.465C134.626 725.445 135.646 725.405 136.686 725.345C137.726 725.285 138.731 725.195 139.701 725.075L139.821 726.215C138.811 726.385 137.791 726.51 136.761 726.59C135.741 726.67 134.741 726.72 133.761 726.74C132.791 726.76 131.891 726.77 131.061 726.77ZM131.136 717.14H139.431V718.385H131.136V717.14ZM135.276 719.045C135.946 719.045 136.531 719.155 137.031 719.375C137.531 719.585 137.921 719.88 138.201 720.26C138.491 720.64 138.636 721.09 138.636 721.61C138.636 722.12 138.491 722.57 138.201 722.96C137.921 723.34 137.531 723.635 137.031 723.845C136.531 724.055 135.946 724.16 135.276 724.16C134.626 724.16 134.046 724.055 133.536 723.845C133.036 723.635 132.646 723.34 132.366 722.96C132.086 722.57 131.946 722.12 131.946 721.61C131.946 721.09 132.086 720.64 132.366 720.26C132.646 719.88 133.036 719.585 133.536 719.375C134.046 719.155 134.626 719.045 135.276 719.045ZM135.276 720.245C134.736 720.245 134.291 720.37 133.941 720.62C133.601 720.86 133.431 721.19 133.431 721.61C133.431 722.03 133.601 722.36 133.941 722.6C134.291 722.84 134.736 722.96 135.276 722.96C135.836 722.96 136.286 722.84 136.626 722.6C136.966 722.36 137.136 722.03 137.136 721.61C137.136 721.19 136.966 720.86 136.626 720.62C136.286 720.37 135.836 720.245 135.276 720.245ZM134.511 715.55H136.086V717.83H134.511V715.55Z" fill="black"/>
<path d="M53.192 141.848H59.048V144.416H53.192V141.848ZM47.144 136.592H49.712V139.832C49.712 141.224 49.592 142.576 49.352 143.888C49.112 145.2 48.744 146.424 48.248 147.56C47.752 148.696 47.12 149.696 46.352 150.56C45.6 151.424 44.704 152.12 43.664 152.648L41.672 150.104C42.616 149.656 43.424 149.072 44.096 148.352C44.784 147.632 45.352 146.816 45.8 145.904C46.264 144.976 46.6 144 46.808 142.976C47.032 141.936 47.144 140.888 47.144 139.832V136.592ZM47.792 136.592H50.336V139.832C50.336 140.872 50.44 141.904 50.648 142.928C50.856 143.936 51.168 144.88 51.584 145.76C52.016 146.64 52.568 147.424 53.24 148.112C53.912 148.784 54.712 149.328 55.64 149.744L53.72 152.288C52.68 151.776 51.784 151.104 51.032 150.272C50.28 149.424 49.664 148.456 49.184 147.368C48.72 146.28 48.368 145.096 48.128 143.816C47.904 142.536 47.792 141.208 47.792 139.832V136.592ZM57.44 134.864H60.632V157.16H57.44V134.864ZM79.3021 134.864H82.4941V157.16H79.3021V134.864ZM65.1421 136.64H68.3101V142.064H72.9181V136.64H76.0861V151.976H65.1421V136.64ZM68.3101 144.536V149.432H72.9181V144.536H68.3101ZM94.3963 136.184H97.1562V137.792C97.1562 138.752 97.0203 139.688 96.7483 140.6C96.4923 141.496 96.1083 142.344 95.5963 143.144C95.0843 143.944 94.4523 144.672 93.7003 145.328C92.9643 145.968 92.1163 146.52 91.1562 146.984C90.1963 147.448 89.1403 147.792 87.9883 148.016L86.6203 145.352C87.6123 145.176 88.5163 144.912 89.3323 144.56C90.1643 144.192 90.8923 143.752 91.5163 143.24C92.1403 142.728 92.6683 142.176 93.1003 141.584C93.5323 140.976 93.8523 140.352 94.0603 139.712C94.2843 139.056 94.3963 138.416 94.3963 137.792V136.184ZM95.0203 136.184H97.8043V137.792C97.8043 138.432 97.9083 139.08 98.1163 139.736C98.3403 140.392 98.6603 141.024 99.0763 141.632C99.5083 142.224 100.036 142.768 100.66 143.264C101.284 143.76 102.004 144.192 102.82 144.56C103.636 144.912 104.556 145.176 105.58 145.352L104.212 148.016C103.06 147.792 102.004 147.448 101.044 146.984C100.084 146.52 99.2283 145.968 98.4763 145.328C97.7403 144.688 97.1083 143.968 96.5803 143.168C96.0683 142.368 95.6763 141.512 95.4043 140.6C95.1483 139.688 95.0203 138.752 95.0203 137.792V136.184ZM86.1403 151.808H106.276V154.424H86.1403V151.808ZM108.218 144.872H128.33V147.176H108.218V144.872ZM110.474 148.304H125.954V153.584H113.666V155.48H110.498V151.568H122.81V150.464H110.474V148.304ZM110.498 154.784H126.578V156.944H110.498V154.784ZM110.666 135.272H125.882V140.528H113.858V142.328H110.714V138.512H122.738V137.432H110.666V135.272ZM110.714 141.68H126.29V143.84H110.714V141.68ZM151.396 134.864H154.588V157.16H151.396V134.864ZM142.612 136.424C143.748 136.424 144.756 136.752 145.636 137.408C146.516 138.048 147.204 138.968 147.7 140.168C148.212 141.352 148.468 142.752 148.468 144.368C148.468 146 148.212 147.416 147.7 148.616C147.204 149.8 146.516 150.72 145.636 151.376C144.756 152.016 143.748 152.336 142.612 152.336C141.492 152.336 140.492 152.016 139.612 151.376C138.732 150.72 138.036 149.8 137.524 148.616C137.028 147.416 136.78 146 136.78 144.368C136.78 142.752 137.028 141.352 137.524 140.168C138.036 138.968 138.732 138.048 139.612 137.408C140.492 136.752 141.492 136.424 142.612 136.424ZM142.612 139.328C142.068 139.328 141.588 139.52 141.172 139.904C140.756 140.288 140.428 140.856 140.188 141.608C139.964 142.344 139.852 143.264 139.852 144.368C139.852 145.456 139.964 146.384 140.188 147.152C140.428 147.904 140.756 148.472 141.172 148.856C141.588 149.24 142.068 149.432 142.612 149.432C143.172 149.432 143.66 149.24 144.076 148.856C144.492 148.472 144.812 147.904 145.036 147.152C145.276 146.384 145.396 145.456 145.396 144.368C145.396 143.264 145.276 142.344 145.036 141.608C144.812 140.856 144.492 140.288 144.076 139.904C143.66 139.52 143.172 139.328 142.612 139.328ZM162.746 142.328H165.914V146.408H162.746V142.328ZM170.546 142.328H173.738V146.408H170.546V142.328ZM158.21 145.448H178.322V147.944H158.21V145.448ZM168.218 149.072C170.618 149.072 172.506 149.424 173.882 150.128C175.258 150.816 175.946 151.808 175.946 153.104C175.946 154.384 175.258 155.376 173.882 156.08C172.506 156.784 170.618 157.136 168.218 157.136C165.818 157.136 163.93 156.784 162.554 156.08C161.194 155.376 160.514 154.384 160.514 153.104C160.514 151.808 161.194 150.816 162.554 150.128C163.93 149.424 165.818 149.072 168.218 149.072ZM168.218 151.472C167.226 151.472 166.394 151.536 165.722 151.664C165.066 151.776 164.57 151.952 164.234 152.192C163.898 152.432 163.73 152.736 163.73 153.104C163.73 153.472 163.898 153.784 164.234 154.04C164.57 154.28 165.066 154.456 165.722 154.568C166.394 154.68 167.226 154.736 168.218 154.736C169.21 154.736 170.034 154.68 170.69 154.568C171.362 154.456 171.866 154.28 172.202 154.04C172.538 153.784 172.706 153.472 172.706 153.104C172.706 152.736 172.538 152.432 172.202 152.192C171.866 151.952 171.362 151.776 170.69 151.664C170.034 151.536 169.21 151.472 168.218 151.472ZM168.266 135.224C169.914 135.224 171.338 135.4 172.538 135.752C173.754 136.088 174.69 136.576 175.346 137.216C176.002 137.856 176.33 138.616 176.33 139.496C176.33 140.376 176.002 141.136 175.346 141.776C174.69 142.4 173.754 142.888 172.538 143.24C171.338 143.576 169.914 143.744 168.266 143.744C166.65 143.744 165.234 143.576 164.018 143.24C162.802 142.888 161.866 142.4 161.21 141.776C160.554 141.136 160.226 140.376 160.226 139.496C160.226 138.616 160.554 137.856 161.21 137.216C161.866 136.576 162.802 136.088 164.018 135.752C165.234 135.4 166.65 135.224 168.266 135.224ZM168.266 137.648C167.274 137.648 166.418 137.72 165.698 137.864C164.978 137.992 164.434 138.192 164.066 138.464C163.714 138.736 163.538 139.08 163.538 139.496C163.538 139.896 163.714 140.232 164.066 140.504C164.434 140.776 164.978 140.984 165.698 141.128C166.418 141.256 167.274 141.32 168.266 141.32C169.29 141.32 170.154 141.256 170.858 141.128C171.562 140.984 172.098 140.776 172.466 140.504C172.834 140.232 173.018 139.896 173.018 139.496C173.018 139.08 172.834 138.736 172.466 138.464C172.098 138.192 171.562 137.992 170.858 137.864C170.154 137.72 169.29 137.648 168.266 137.648ZM194.544 134.912H197.736V157.136H194.544V134.912ZM197.016 143.576H200.928V146.216H197.016V143.576ZM180.192 138.176H193.152V140.72H180.192V138.176ZM186.72 141.992C187.792 141.992 188.752 142.224 189.6 142.688C190.448 143.136 191.112 143.752 191.592 144.536C192.088 145.32 192.336 146.232 192.336 147.272C192.336 148.312 192.088 149.232 191.592 150.032C191.112 150.816 190.448 151.44 189.6 151.904C188.768 152.352 187.808 152.576 186.72 152.576C185.648 152.576 184.68 152.352 183.816 151.904C182.968 151.44 182.296 150.816 181.8 150.032C181.32 149.232 181.08 148.312 181.08 147.272C181.08 146.232 181.32 145.32 181.8 144.536C182.296 143.752 182.968 143.136 183.816 142.688C184.68 142.224 185.648 141.992 186.72 141.992ZM186.72 144.584C186.208 144.584 185.76 144.688 185.376 144.896C184.992 145.104 184.688 145.408 184.464 145.808C184.24 146.208 184.128 146.696 184.128 147.272C184.128 147.832 184.24 148.32 184.464 148.736C184.688 149.136 184.992 149.448 185.376 149.672C185.76 149.88 186.208 149.984 186.72 149.984C187.216 149.984 187.656 149.88 188.04 149.672C188.424 149.448 188.728 149.136 188.952 148.736C189.176 148.32 189.288 147.832 189.288 147.272C189.288 146.696 189.176 146.208 188.952 145.808C188.728 145.408 188.424 145.104 188.04 144.896C187.656 144.688 187.216 144.584 186.72 144.584ZM185.088 135.272H188.304V139.16H185.088V135.272ZM217.702 134.888H220.894V157.112H217.702V134.888ZM211.15 137.192H214.294C214.294 138.888 214.126 140.512 213.79 142.064C213.47 143.6 212.926 145.048 212.158 146.408C211.406 147.768 210.366 149.032 209.038 150.2C207.726 151.352 206.086 152.408 204.118 153.368L202.438 150.848C204.582 149.808 206.286 148.664 207.55 147.416C208.83 146.152 209.75 144.728 210.31 143.144C210.87 141.544 211.15 139.752 211.15 137.768V137.192ZM203.638 137.192H212.638V139.736H203.638V137.192ZM237.528 135.776C238.648 135.776 239.648 135.984 240.528 136.4C241.408 136.8 242.096 137.36 242.592 138.08C243.104 138.784 243.36 139.6 243.36 140.528C243.36 141.456 243.104 142.28 242.592 143C242.096 143.704 241.408 144.264 240.528 144.68C239.648 145.08 238.648 145.28 237.528 145.28C236.408 145.28 235.408 145.08 234.528 144.68C233.648 144.264 232.952 143.704 232.44 143C231.944 142.28 231.696 141.456 231.696 140.528C231.696 139.6 231.944 138.784 232.44 138.08C232.952 137.36 233.648 136.8 234.528 136.4C235.408 135.984 236.408 135.776 237.528 135.776ZM237.528 138.368C237 138.368 236.528 138.456 236.112 138.632C235.696 138.792 235.368 139.032 235.128 139.352C234.888 139.672 234.768 140.064 234.768 140.528C234.768 140.992 234.888 141.384 235.128 141.704C235.368 142.008 235.696 142.248 236.112 142.424C236.528 142.584 237 142.664 237.528 142.664C238.072 142.664 238.552 142.584 238.968 142.424C239.384 142.248 239.712 142.008 239.952 141.704C240.192 141.384 240.312 140.992 240.312 140.528C240.312 140.064 240.192 139.672 239.952 139.352C239.712 139.032 239.384 138.792 238.968 138.632C238.552 138.456 238.072 138.368 237.528 138.368ZM236.016 147.512H239.232V156.44H236.016V147.512ZM245.736 134.888H248.928V157.112H245.736V134.888ZM230.76 149.192L230.4 146.6C231.68 146.6 233.112 146.592 234.696 146.576C236.296 146.544 237.936 146.472 239.616 146.36C241.296 146.248 242.92 146.072 244.488 145.832L244.68 148.16C243.08 148.48 241.456 148.712 239.808 148.856C238.16 149 236.56 149.088 235.008 149.12C233.456 149.152 232.04 149.176 230.76 149.192ZM252.382 138.248H263.014V140.768H252.382V138.248ZM257.734 141.776C258.678 141.776 259.51 142 260.23 142.448C260.966 142.896 261.542 143.52 261.958 144.32C262.39 145.104 262.606 146.016 262.606 147.056C262.606 148.096 262.39 149.016 261.958 149.816C261.542 150.6 260.966 151.216 260.23 151.664C259.51 152.112 258.678 152.336 257.734 152.336C256.79 152.336 255.95 152.112 255.214 151.664C254.478 151.216 253.902 150.6 253.486 149.816C253.07 149.016 252.862 148.096 252.862 147.056C252.862 146.016 253.07 145.104 253.486 144.32C253.902 143.52 254.478 142.896 255.214 142.448C255.966 142 256.806 141.776 257.734 141.776ZM257.734 144.416C257.35 144.416 256.998 144.52 256.678 144.728C256.358 144.936 256.11 145.24 255.934 145.64C255.758 146.024 255.67 146.496 255.67 147.056C255.67 147.616 255.758 148.096 255.934 148.496C256.11 148.896 256.358 149.2 256.678 149.408C256.998 149.6 257.35 149.696 257.734 149.696C258.134 149.696 258.486 149.6 258.79 149.408C259.094 149.2 259.334 148.896 259.51 148.496C259.686 148.096 259.774 147.616 259.774 147.056C259.774 146.496 259.686 146.024 259.51 145.64C259.334 145.24 259.094 144.936 258.79 144.728C258.486 144.52 258.134 144.416 257.734 144.416ZM268.462 134.888H271.486V157.112H268.462V134.888ZM265.798 143.936H269.446V146.504H265.798V143.936ZM263.782 135.296H266.758V156.176H263.782V135.296ZM256.174 135.488H259.318V139.832H256.174V135.488ZM285.692 141.848H291.548V144.416H285.692V141.848ZM279.644 136.592H282.212V139.832C282.212 141.224 282.092 142.576 281.852 143.888C281.612 145.2 281.244 146.424 280.748 147.56C280.252 148.696 279.62 149.696 278.852 150.56C278.1 151.424 277.204 152.12 276.164 152.648L274.172 150.104C275.116 149.656 275.924 149.072 276.596 148.352C277.284 147.632 277.852 146.816 278.3 145.904C278.764 144.976 279.1 144 279.308 142.976C279.532 141.936 279.644 140.888 279.644 139.832V136.592ZM280.292 136.592H282.836V139.832C282.836 140.872 282.94 141.904 283.148 142.928C283.356 143.936 283.668 144.88 284.084 145.76C284.516 146.64 285.068 147.424 285.74 148.112C286.412 148.784 287.212 149.328 288.14 149.744L286.22 152.288C285.18 151.776 284.284 151.104 283.532 150.272C282.78 149.424 282.164 148.456 281.684 147.368C281.22 146.28 280.868 145.096 280.628 143.816C280.404 142.536 280.292 141.208 280.292 139.832V136.592ZM289.94 134.864H293.132V157.16H289.94V134.864ZM299.034 140.888H314.442V143.432H299.034V140.888ZM296.562 145.736H316.674V148.28H296.562V145.736ZM299.034 135.68H302.226V142.16H299.034V135.68ZM298.842 154.088H314.562V156.656H298.842V154.088ZM298.842 150.032H302.034V154.784H298.842V150.032ZM150.34 160.864H153.556V183.088H150.34V160.864ZM152.74 169.384H156.652V172H152.74V169.384ZM144.508 163.168H147.652C147.652 165.392 147.332 167.496 146.692 169.48C146.068 171.464 145.028 173.288 143.572 174.952C142.132 176.6 140.18 178.04 137.716 179.272L135.916 176.848C137.868 175.84 139.476 174.704 140.74 173.44C142.02 172.176 142.964 170.744 143.572 169.144C144.196 167.528 144.508 165.728 144.508 163.744V163.168ZM137.14 163.168H146.164V165.736H137.14V163.168ZM179.405 160.912H182.621V172.288H179.405V160.912ZM167.573 173.176H182.621V179.176H170.765V181.84H167.597V176.872H179.429V175.624H167.573V173.176ZM167.597 180.496H183.221V182.992H167.597V180.496ZM165.029 162.232H177.005V164.704H165.029V162.232ZM164.789 171.904L164.477 169.36C165.773 169.36 167.181 169.352 168.701 169.336C170.221 169.304 171.765 169.248 173.333 169.168C174.917 169.088 176.421 168.96 177.845 168.784L178.013 171.04C176.541 171.296 175.029 171.48 173.477 171.592C171.941 171.704 170.429 171.784 168.941 171.832C167.453 171.864 166.069 171.888 164.789 171.904ZM166.805 163.36H169.853V170.632H166.805V163.36ZM172.181 163.36H175.253V170.632H172.181V163.36ZM190.588 172.192H193.78V178.408H190.588V172.192ZM198.652 172.192H201.844V178.408H198.652V172.192ZM186.172 177.952H206.308V180.544H186.172V177.952ZM196.204 161.992C197.804 161.992 199.228 162.24 200.476 162.736C201.74 163.232 202.724 163.928 203.428 164.824C204.148 165.704 204.508 166.752 204.508 167.968C204.508 169.168 204.148 170.216 203.428 171.112C202.724 171.992 201.74 172.68 200.476 173.176C199.228 173.672 197.804 173.92 196.204 173.92C194.62 173.92 193.196 173.672 191.932 173.176C190.684 172.68 189.7 171.992 188.98 171.112C188.26 170.216 187.9 169.168 187.9 167.968C187.9 166.752 188.26 165.704 188.98 164.824C189.7 163.928 190.684 163.232 191.932 162.736C193.196 162.24 194.62 161.992 196.204 161.992ZM196.204 164.464C195.18 164.464 194.276 164.608 193.492 164.896C192.724 165.168 192.124 165.56 191.692 166.072C191.26 166.584 191.044 167.216 191.044 167.968C191.044 168.688 191.26 169.312 191.692 169.84C192.124 170.352 192.724 170.752 193.492 171.04C194.276 171.312 195.18 171.448 196.204 171.448C197.244 171.448 198.148 171.312 198.916 171.04C199.7 170.752 200.3 170.352 200.716 169.84C201.148 169.312 201.364 168.688 201.364 167.968C201.364 167.216 201.148 166.584 200.716 166.072C200.3 165.56 199.7 165.168 198.916 164.896C198.148 164.608 197.244 164.464 196.204 164.464ZM208.226 164.248H218.858V166.768H208.226V164.248ZM213.578 167.776C214.522 167.776 215.354 168 216.074 168.448C216.81 168.896 217.386 169.52 217.802 170.32C218.234 171.104 218.45 172.016 218.45 173.056C218.45 174.096 218.234 175.016 217.802 175.816C217.386 176.6 216.81 177.216 216.074 177.664C215.354 178.112 214.522 178.336 213.578 178.336C212.634 178.336 211.794 178.112 211.058 177.664C210.322 177.216 209.746 176.6 209.33 175.816C208.914 175.016 208.706 174.096 208.706 173.056C208.706 172.016 208.914 171.104 209.33 170.32C209.746 169.52 210.322 168.896 211.058 168.448C211.81 168 212.65 167.776 213.578 167.776ZM213.578 170.416C213.194 170.416 212.842 170.52 212.522 170.728C212.202 170.936 211.954 171.24 211.778 171.64C211.602 172.024 211.514 172.496 211.514 173.056C211.514 173.616 211.602 174.096 211.778 174.496C211.954 174.896 212.202 175.2 212.522 175.408C212.842 175.6 213.194 175.696 213.578 175.696C213.978 175.696 214.33 175.6 214.634 175.408C214.938 175.2 215.178 174.896 215.354 174.496C215.53 174.096 215.618 173.616 215.618 173.056C215.618 172.496 215.53 172.024 215.354 171.64C215.178 171.24 214.938 170.936 214.634 170.728C214.33 170.52 213.978 170.416 213.578 170.416ZM224.306 160.888H227.33V183.112H224.306V160.888ZM221.642 169.936H225.29V172.504H221.642V169.936ZM219.626 161.296H222.602V182.176H219.626V161.296ZM212.018 161.488H215.162V165.832H212.018V161.488ZM234.744 172.192H237.936V178.408H234.744V172.192ZM242.808 172.192H246V178.408H242.808V172.192ZM230.328 177.952H250.464V180.544H230.328V177.952ZM240.36 161.992C241.96 161.992 243.384 162.24 244.632 162.736C245.896 163.232 246.88 163.928 247.584 164.824C248.304 165.704 248.664 166.752 248.664 167.968C248.664 169.168 248.304 170.216 247.584 171.112C246.88 171.992 245.896 172.68 244.632 173.176C243.384 173.672 241.96 173.92 240.36 173.92C238.776 173.92 237.352 173.672 236.088 173.176C234.84 172.68 233.856 171.992 233.136 171.112C232.416 170.216 232.056 169.168 232.056 167.968C232.056 166.752 232.416 165.704 233.136 164.824C233.856 163.928 234.84 163.232 236.088 162.736C237.352 162.24 238.776 161.992 240.36 161.992ZM240.36 164.464C239.336 164.464 238.432 164.608 237.648 164.896C236.88 165.168 236.28 165.56 235.848 166.072C235.416 166.584 235.2 167.216 235.2 167.968C235.2 168.688 235.416 169.312 235.848 169.84C236.28 170.352 236.88 170.752 237.648 171.04C238.432 171.312 239.336 171.448 240.36 171.448C241.4 171.448 242.304 171.312 243.072 171.04C243.856 170.752 244.456 170.352 244.872 169.84C245.304 169.312 245.52 168.688 245.52 167.968C245.52 167.216 245.304 166.584 244.872 166.072C244.456 165.56 243.856 165.168 243.072 164.896C242.304 164.608 241.4 164.464 240.36 164.464ZM255.91 175.648H253.318L252.814 163.864H256.438L255.91 175.648ZM252.742 179.464C252.742 178.792 252.918 178.32 253.27 178.048C253.638 177.76 254.078 177.616 254.59 177.616C255.102 177.616 255.534 177.752 255.886 178.024C256.254 178.296 256.438 178.776 256.438 179.464C256.438 180.12 256.254 180.592 255.886 180.88C255.534 181.168 255.102 181.312 254.59 181.312C254.078 181.312 253.638 181.168 253.27 180.88C252.918 180.592 252.742 180.12 252.742 179.464Z" fill="black"/>
<path d="M57.296 160.888H60.488V183.112H57.296V160.888ZM50.744 163.192H53.888C53.888 164.888 53.72 166.512 53.384 168.064C53.064 169.6 52.52 171.048 51.752 172.408C51 173.768 49.96 175.032 48.632 176.2C47.32 177.352 45.68 178.408 43.712 179.368L42.032 176.848C44.176 175.808 45.88 174.664 47.144 173.416C48.424 172.152 49.344 170.728 49.904 169.144C50.464 167.544 50.744 165.752 50.744 163.768V163.192ZM43.232 163.192H52.232V165.736H43.232V163.192ZM66.6061 161.704H69.7501V163.864H78.4381V161.704H81.6061V170.752H66.6061V161.704ZM69.7501 166.336V168.256H78.4381V166.336H69.7501ZM64.0381 172.648H84.1501V175.168H64.0381V172.648ZM72.4861 169.432H75.6541V173.704H72.4861V169.432ZM66.4861 180.184H81.8941V182.752H66.4861V180.184ZM66.4861 176.488H69.6781V181.144H66.4861V176.488ZM104.048 166.264H108.272V168.856H104.048V166.264ZM107.384 160.912H110.6V174.112H107.384V160.912ZM103.064 174.592C104.632 174.592 105.984 174.76 107.12 175.096C108.256 175.432 109.128 175.92 109.736 176.56C110.36 177.2 110.672 177.968 110.672 178.864C110.672 180.24 109.992 181.296 108.632 182.032C107.272 182.784 105.416 183.16 103.064 183.16C100.712 183.16 98.8556 182.784 97.4956 182.032C96.1356 181.296 95.4556 180.24 95.4556 178.864C95.4556 177.968 95.7596 177.2 96.3676 176.56C96.9916 175.92 97.8716 175.432 99.0076 175.096C100.144 174.76 101.496 174.592 103.064 174.592ZM103.064 177.016C102.104 177.016 101.296 177.088 100.64 177.232C99.9836 177.36 99.4796 177.56 99.1276 177.832C98.7916 178.104 98.6236 178.448 98.6236 178.864C98.6236 179.28 98.7916 179.632 99.1276 179.92C99.4796 180.192 99.9836 180.4 100.64 180.544C101.296 180.672 102.104 180.736 103.064 180.736C104.024 180.736 104.832 180.672 105.488 180.544C106.144 180.4 106.64 180.192 106.976 179.92C107.312 179.632 107.48 179.28 107.48 178.864C107.48 178.448 107.312 178.104 106.976 177.832C106.64 177.56 106.144 177.36 105.488 177.232C104.832 177.088 104.024 177.016 103.064 177.016ZM97.1356 163.12H99.7276V164.536C99.7276 165.944 99.5036 167.288 99.0556 168.568C98.6076 169.848 97.9196 170.976 96.9916 171.952C96.0796 172.912 94.9116 173.632 93.4876 174.112L91.8796 171.592C92.7916 171.288 93.5756 170.88 94.2316 170.368C94.9036 169.856 95.4476 169.288 95.8636 168.664C96.2956 168.024 96.6156 167.352 96.8236 166.648C97.0316 165.944 97.1356 165.24 97.1356 164.536V163.12ZM97.8076 163.12H100.352V164.512C100.352 165.392 100.528 166.256 100.88 167.104C101.232 167.952 101.776 168.72 102.512 169.408C103.264 170.096 104.224 170.64 105.392 171.04L103.832 173.536C102.456 173.072 101.32 172.392 100.424 171.496C99.5436 170.584 98.8876 169.528 98.4556 168.328C98.0236 167.112 97.8076 165.84 97.8076 164.512V163.12ZM92.7436 162.256H104.696V164.776H92.7436V162.256ZM114.078 177.952H134.214V180.544H114.078V177.952ZM122.526 173.2H125.694V178.576H122.526V173.2ZM116.19 162.304H119.382V165.736H128.838V162.304H132.006V173.872H116.19V162.304ZM119.382 168.232V171.328H128.838V168.232H119.382Z" fill="#1E59DA"/>
<path d="M42.636 679.388C43.188 679.388 43.68 679.492 44.112 679.7C44.544 679.908 44.884 680.2 45.132 680.576C45.38 680.944 45.504 681.372 45.504 681.86C45.504 682.34 45.38 682.764 45.132 683.132C44.884 683.5 44.544 683.788 44.112 683.996C43.68 684.204 43.188 684.308 42.636 684.308C42.084 684.308 41.592 684.204 41.16 683.996C40.728 683.788 40.384 683.5 40.128 683.132C39.88 682.764 39.756 682.34 39.756 681.86C39.756 681.372 39.88 680.944 40.128 680.576C40.384 680.2 40.728 679.908 41.16 679.7C41.592 679.492 42.084 679.388 42.636 679.388ZM42.636 680.408C42.316 680.408 42.032 680.468 41.784 680.588C41.536 680.708 41.34 680.876 41.196 681.092C41.052 681.308 40.98 681.56 40.98 681.848C40.98 682.144 41.052 682.4 41.196 682.616C41.34 682.832 41.536 683 41.784 683.12C42.032 683.232 42.316 683.288 42.636 683.288C42.956 683.288 43.24 683.232 43.488 683.12C43.736 683 43.932 682.832 44.076 682.616C44.22 682.4 44.292 682.144 44.292 681.848C44.292 681.56 44.22 681.308 44.076 681.092C43.932 680.876 43.732 680.708 43.476 680.588C43.228 680.468 42.948 680.408 42.636 680.408ZM47.328 679.028H48.588V684.584H47.328V679.028ZM41.4 685.076H48.588V687.896H42.66V689.396H41.424V686.972H47.352V686.06H41.4V685.076ZM41.424 688.868H48.924V689.852H41.424V688.868ZM53.6751 679.388C54.2271 679.388 54.7191 679.492 55.1511 679.7C55.5831 679.908 55.9231 680.2 56.1711 680.576C56.4191 680.944 56.5431 681.372 56.5431 681.86C56.5431 682.34 56.4191 682.764 56.1711 683.132C55.9231 683.5 55.5831 683.788 55.1511 683.996C54.7191 684.204 54.2271 684.308 53.6751 684.308C53.1231 684.308 52.6311 684.204 52.1991 683.996C51.7671 683.788 51.4231 683.5 51.1671 683.132C50.9191 682.764 50.7951 682.34 50.7951 681.86C50.7951 681.372 50.9191 680.944 51.1671 680.576C51.4231 680.2 51.7671 679.908 52.1991 679.7C52.6311 679.492 53.1231 679.388 53.6751 679.388ZM53.6751 680.408C53.3551 680.408 53.0711 680.468 52.8231 680.588C52.5751 680.708 52.3791 680.876 52.2351 681.092C52.0911 681.308 52.0191 681.56 52.0191 681.848C52.0191 682.144 52.0911 682.4 52.2351 682.616C52.3791 682.832 52.5751 683 52.8231 683.12C53.0711 683.232 53.3551 683.288 53.6751 683.288C53.9951 683.288 54.2791 683.232 54.5271 683.12C54.7751 683 54.9711 682.832 55.1151 682.616C55.2591 682.4 55.3311 682.144 55.3311 681.848C55.3311 681.56 55.2591 681.308 55.1151 681.092C54.9711 680.876 54.7711 680.708 54.5151 680.588C54.2671 680.468 53.9871 680.408 53.6751 680.408ZM58.3671 679.028H59.6271V684.584H58.3671V679.028ZM52.4391 685.076H59.6271V687.896H53.6991V689.396H52.4631V686.972H58.3911V686.06H52.4391V685.076ZM52.4631 688.868H59.9631V689.852H52.4631V688.868ZM65.9953 679.472H73.3993V683.264H65.9953V679.472ZM72.1513 680.456H67.2193V682.268H72.1513V680.456ZM64.7473 684.488H74.6593V685.496H64.7473V684.488ZM69.0673 683.024H70.3153V684.812H69.0673V683.024ZM65.8393 686.468H73.4473V689.996H72.1873V687.476H65.8393V686.468ZM78.4024 684.968H79.6504V688.028H78.4024V684.968ZM81.8104 684.98H83.0584V688.028H81.8104V684.98ZM75.7864 687.692H85.7224V688.712H75.7864V687.692ZM76.6024 679.964H84.8464V680.984H76.6024V679.964ZM76.6504 684.332H84.8224V685.34H76.6504V684.332ZM78.2224 680.804H79.4704V684.5H78.2224V680.804ZM81.9784 680.804H83.2264V684.5H81.9784V680.804ZM95.0214 680.624H96.9414V681.668H95.0214V680.624ZM95.0214 682.94H96.9414V683.972H95.0214V682.94ZM94.1334 679.028H95.3814V685.652H94.1334V679.028ZM87.2694 684.068H88.1574C88.8454 684.068 89.4694 684.06 90.0294 684.044C90.5894 684.02 91.1254 683.984 91.6374 683.936C92.1494 683.88 92.6734 683.808 93.2094 683.72L93.3294 684.74C92.7774 684.836 92.2374 684.912 91.7094 684.968C91.1894 685.016 90.6414 685.048 90.0654 685.064C89.4974 685.08 88.8614 685.088 88.1574 685.088H87.2694V684.068ZM87.2454 679.688H92.2134V682.808H88.5054V684.704H87.2694V681.86H90.9774V680.696H87.2454V679.688ZM91.8414 685.916C92.5934 685.916 93.2414 685.996 93.7854 686.156C94.3374 686.316 94.7574 686.548 95.0454 686.852C95.3414 687.148 95.4894 687.512 95.4894 687.944C95.4894 688.592 95.1614 689.092 94.5054 689.444C93.8574 689.804 92.9694 689.984 91.8414 689.984C91.0894 689.984 90.4374 689.904 89.8854 689.744C89.3414 689.584 88.9214 689.352 88.6254 689.048C88.3294 688.744 88.1814 688.376 88.1814 687.944C88.1814 687.512 88.3294 687.148 88.6254 686.852C88.9214 686.548 89.3414 686.316 89.8854 686.156C90.4374 685.996 91.0894 685.916 91.8414 685.916ZM91.8414 686.888C91.3294 686.888 90.8894 686.928 90.5214 687.008C90.1614 687.088 89.8854 687.208 89.6934 687.368C89.5094 687.52 89.4174 687.712 89.4174 687.944C89.4174 688.176 89.5094 688.372 89.6934 688.532C89.8854 688.692 90.1614 688.812 90.5214 688.892C90.8894 688.972 91.3294 689.012 91.8414 689.012C92.3534 689.012 92.7894 688.972 93.1494 688.892C93.5174 688.812 93.7934 688.692 93.9774 688.532C94.1694 688.372 94.2654 688.176 94.2654 687.944C94.2654 687.712 94.1694 687.52 93.9774 687.368C93.7934 687.208 93.5174 687.088 93.1494 687.008C92.7894 686.928 92.3534 686.888 91.8414 686.888ZM102.821 679.196C104.053 679.196 105.009 679.36 105.689 679.688C106.377 680.008 106.721 680.472 106.721 681.08C106.721 681.688 106.377 682.156 105.689 682.484C105.009 682.812 104.053 682.976 102.821 682.976C101.589 682.976 100.629 682.812 99.9405 682.484C99.2525 682.156 98.9085 681.688 98.9085 681.08C98.9085 680.472 99.2525 680.008 99.9405 679.688C100.629 679.36 101.589 679.196 102.821 679.196ZM102.809 680.132C102.249 680.132 101.773 680.168 101.381 680.24C100.997 680.312 100.705 680.42 100.505 680.564C100.313 680.7 100.217 680.872 100.217 681.08C100.217 681.288 100.313 681.464 100.505 681.608C100.705 681.752 100.997 681.86 101.381 681.932C101.773 682.004 102.249 682.04 102.809 682.04C103.385 682.04 103.865 682.004 104.249 681.932C104.633 681.86 104.925 681.752 105.125 681.608C105.325 681.464 105.425 681.288 105.425 681.08C105.425 680.872 105.325 680.7 105.125 680.564C104.925 680.42 104.633 680.312 104.249 680.24C103.865 680.168 103.385 680.132 102.809 680.132ZM97.8645 683.612H107.777V684.608H97.8645V683.612ZM99.0285 685.4H106.529V688.028H100.289V689.192H99.0525V687.14H105.293V686.348H99.0285V685.4ZM99.0525 688.928H106.841V689.888H99.0525V688.928ZM114.697 680.132H115.729V680.936C115.729 681.608 115.605 682.244 115.357 682.844C115.117 683.444 114.769 683.968 114.313 684.416C113.857 684.864 113.305 685.204 112.657 685.436L112.009 684.44C112.441 684.288 112.821 684.092 113.149 683.852C113.485 683.612 113.769 683.336 114.001 683.024C114.233 682.704 114.405 682.368 114.517 682.016C114.637 681.656 114.697 681.296 114.697 680.936V680.132ZM114.949 680.132H115.969V680.924C115.969 681.38 116.069 681.824 116.269 682.256C116.469 682.688 116.761 683.076 117.145 683.42C117.529 683.756 117.997 684.02 118.549 684.212L117.925 685.196C117.293 684.98 116.753 684.656 116.305 684.224C115.865 683.792 115.529 683.292 115.297 682.724C115.065 682.156 114.949 681.556 114.949 680.924V680.132ZM117.937 681.776H120.205V682.808H117.937V681.776ZM112.381 679.712H118.249V680.72H112.381V679.712ZM113.725 686.12H121.105V689.996H119.845V687.128H113.725V686.12ZM119.845 679.028H121.105V685.568H119.845V679.028ZM126.012 679.82C126.556 679.82 127.036 679.98 127.452 680.3C127.868 680.62 128.196 681.068 128.436 681.644C128.676 682.22 128.796 682.9 128.796 683.684C128.796 684.476 128.676 685.164 128.436 685.748C128.196 686.324 127.868 686.772 127.452 687.092C127.036 687.404 126.556 687.56 126.012 687.56C125.476 687.56 124.996 687.404 124.572 687.092C124.156 686.772 123.828 686.324 123.588 685.748C123.356 685.164 123.24 684.476 123.24 683.684C123.24 682.9 123.356 682.22 123.588 681.644C123.828 681.068 124.156 680.62 124.572 680.3C124.996 679.98 125.476 679.82 126.012 679.82ZM126.012 680.96C125.7 680.96 125.424 681.068 125.184 681.284C124.952 681.5 124.768 681.812 124.632 682.22C124.504 682.628 124.44 683.116 124.44 683.684C124.44 684.26 124.504 684.752 124.632 685.16C124.768 685.568 124.952 685.884 125.184 686.108C125.424 686.324 125.7 686.432 126.012 686.432C126.332 686.432 126.608 686.324 126.84 686.108C127.08 685.884 127.264 685.568 127.392 685.16C127.528 684.752 127.596 684.26 127.596 683.684C127.596 683.116 127.528 682.628 127.392 682.22C127.264 681.812 127.08 681.5 126.84 681.284C126.608 681.068 126.332 680.96 126.012 680.96ZM130.908 679.016H132.168V690.008H130.908V679.016ZM128.4 683.096H131.448V684.116H128.4V683.096ZM138.347 680.168H139.439V680.564C139.439 680.956 139.367 681.328 139.223 681.68C139.087 682.024 138.887 682.348 138.623 682.652C138.359 682.948 138.047 683.212 137.687 683.444C137.335 683.676 136.939 683.872 136.499 684.032C136.067 684.192 135.603 684.312 135.107 684.392L134.639 683.396C135.071 683.34 135.471 683.248 135.839 683.12C136.215 682.992 136.555 682.836 136.859 682.652C137.171 682.468 137.435 682.264 137.651 682.04C137.875 681.816 138.047 681.58 138.167 681.332C138.287 681.084 138.347 680.828 138.347 680.564V680.168ZM138.683 680.168H139.775V680.564C139.775 680.828 139.831 681.084 139.943 681.332C140.063 681.58 140.235 681.816 140.459 682.04C140.683 682.264 140.947 682.468 141.251 682.652C141.555 682.836 141.895 682.992 142.271 683.12C142.647 683.248 143.051 683.34 143.483 683.396L143.015 684.392C142.519 684.312 142.051 684.192 141.611 684.032C141.179 683.872 140.783 683.676 140.423 683.444C140.063 683.212 139.751 682.948 139.487 682.652C139.231 682.348 139.031 682.024 138.887 681.68C138.751 681.328 138.683 680.956 138.683 680.564V680.168ZM138.407 685.88H139.655V689.984H138.407V685.88ZM134.099 685.184H144.011V686.204H134.099V685.184ZM135.011 679.652H143.087V680.648H135.011V679.652ZM149.458 682.844H151.438V683.876H149.458V682.844ZM147.286 680.024H148.258V682.004C148.258 682.596 148.202 683.18 148.09 683.756C147.986 684.324 147.83 684.86 147.622 685.364C147.414 685.868 147.154 686.324 146.842 686.732C146.53 687.132 146.166 687.456 145.75 687.704L144.97 686.756C145.362 686.524 145.702 686.236 145.99 685.892C146.278 685.548 146.518 685.164 146.71 684.74C146.91 684.316 147.054 683.872 147.142 683.408C147.238 682.936 147.286 682.468 147.286 682.004V680.024ZM147.538 680.024H148.498V681.944C148.498 682.384 148.538 682.828 148.618 683.276C148.706 683.716 148.838 684.136 149.014 684.536C149.19 684.936 149.41 685.304 149.674 685.64C149.938 685.976 150.254 686.26 150.622 686.492L149.926 687.464C149.51 687.216 149.15 686.896 148.846 686.504C148.55 686.104 148.306 685.66 148.114 685.172C147.922 684.676 147.778 684.156 147.682 683.612C147.586 683.06 147.538 682.504 147.538 681.944V680.024ZM153.298 679.016H154.498V689.984H153.298V679.016ZM151.066 679.232H152.242V689.468H151.066V679.232ZM158.505 684.632H159.753V687.824H158.505V684.632ZM162.513 684.632H163.773V687.824H162.513V684.632ZM156.177 687.608H166.113V688.64H156.177V687.608ZM161.133 679.652C161.909 679.652 162.601 679.772 163.209 680.012C163.817 680.244 164.293 680.576 164.637 681.008C164.989 681.432 165.165 681.936 165.165 682.52C165.165 683.104 164.989 683.612 164.637 684.044C164.293 684.468 163.817 684.8 163.209 685.04C162.601 685.272 161.909 685.388 161.133 685.388C160.357 685.388 159.661 685.272 159.045 685.04C158.437 684.8 157.957 684.468 157.605 684.044C157.261 683.612 157.089 683.104 157.089 682.52C157.089 681.936 157.261 681.432 157.605 681.008C157.957 680.576 158.437 680.244 159.045 680.012C159.661 679.772 160.357 679.652 161.133 679.652ZM161.133 680.636C160.581 680.636 160.093 680.712 159.669 680.864C159.245 681.016 158.913 681.236 158.673 681.524C158.441 681.804 158.325 682.136 158.325 682.52C158.325 682.904 158.441 683.24 158.673 683.528C158.913 683.808 159.245 684.028 159.669 684.188C160.093 684.34 160.581 684.416 161.133 684.416C161.685 684.416 162.169 684.34 162.585 684.188C163.009 684.028 163.341 683.808 163.581 683.528C163.821 683.24 163.941 682.904 163.941 682.52C163.941 682.136 163.821 681.804 163.581 681.524C163.341 681.236 163.009 681.016 162.585 680.864C162.169 680.712 161.685 680.636 161.133 680.636ZM168.764 686.456H167.864L167.564 680.432H169.064L168.764 686.456ZM167.48 688.292C167.48 687.98 167.56 687.76 167.72 687.632C167.88 687.504 168.076 687.44 168.308 687.44C168.532 687.44 168.724 687.504 168.884 687.632C169.044 687.76 169.124 687.98 169.124 688.292C169.124 688.604 169.044 688.828 168.884 688.964C168.724 689.1 168.532 689.168 168.308 689.168C168.076 689.168 167.88 689.1 167.72 688.964C167.56 688.828 167.48 688.604 167.48 688.292Z" fill="#8E8E8E"/>
</g>
<defs>
<clipPath id="clip0_460_3670">
<rect width="402" height="874" fill="white"/>
</clipPath>
</defs>
</svg>
