<svg width="28" height="28" viewBox="0 0 28 28" fill="none" xmlns="http://www.w3.org/2000/svg">
<path d="M19.4993 2.48177C18.5239 1.98011 17.2569 2.78861 14.7218 4.40677L14.0661 4.82677C13.3451 5.28644 12.9846 5.51627 12.5809 5.58277C12.1761 5.64811 11.7736 5.54311 10.9686 5.33194L10.2359 5.14061C7.4021 4.39744 5.9846 4.02527 5.17493 4.81861C4.36526 5.61194 4.69426 7.04461 5.3581 9.90877L5.5296 10.6496C5.71743 11.4628 5.81193 11.8699 5.7361 12.2748C5.6591 12.6784 5.4211 13.0331 4.94276 13.7448L4.50876 14.3923C2.82993 16.8948 1.9911 18.1454 2.4636 19.1371C2.93726 20.1288 4.4096 20.2046 7.35426 20.3563L8.11726 20.3948C8.95376 20.4379 9.3726 20.4601 9.7296 20.6433C10.0866 20.8276 10.3409 21.1519 10.8519 21.8029L11.3163 22.3944C13.1118 24.6834 14.0101 25.8279 15.1138 25.6471C16.2163 25.4674 16.7949 24.0814 17.9523 21.3106L18.2521 20.5943C18.5811 19.8068 18.7444 19.4136 19.0419 19.1231C19.3394 18.8314 19.7361 18.6774 20.5283 18.3683L21.2493 18.0883C24.0376 16.9998 25.4329 16.4549 25.6418 15.3524C25.8506 14.2499 24.7353 13.3178 22.5058 11.4534L21.9283 10.9716C21.2948 10.4419 20.9774 10.1783 20.8048 9.81427C20.6321 9.45027 20.6204 9.03027 20.6006 8.18911L20.5819 7.42261C20.5096 4.46161 20.4734 2.98227 19.4993 2.48061" fill="#B0B8C1"/>
<path opacity="0.5" d="M18.585 19.8228C18.7331 19.5101 18.8638 19.2978 19.0423 19.1228C19.243 18.928 19.488 18.7938 19.8706 18.6328L25.1183 23.8816C25.2729 24.0475 25.357 24.2669 25.353 24.4936C25.349 24.7203 25.2572 24.9366 25.0969 25.0969C24.9365 25.2572 24.7203 25.349 24.4936 25.353C24.2669 25.357 24.0475 25.2729 23.8816 25.1183L18.585 19.8228Z" fill="#B0B8C1"/>
</svg>
