<svg width="28" height="28" viewBox="0 0 28 28" fill="none" xmlns="http://www.w3.org/2000/svg">
<path d="M25.6663 16.3327V13.9993C25.6663 13.0205 25.6663 12.1502 25.6512 11.3743H2.34817C2.33301 12.1502 2.33301 13.0205 2.33301 13.9993V16.3327C2.33301 20.7322 2.33301 22.9325 3.70034 24.2987C5.06767 25.6648 7.26684 25.666 11.6663 25.666H16.333C20.7325 25.666 22.9328 25.666 24.299 24.2987C25.6652 22.9313 25.6663 20.7322 25.6663 16.3327ZM9.04134 2.91602C9.04134 2.68395 8.94915 2.46139 8.78506 2.2973C8.62097 2.1332 8.39841 2.04102 8.16634 2.04102C7.93428 2.04102 7.71172 2.1332 7.54762 2.2973C7.38353 2.46139 7.29134 2.68395 7.29134 2.91602V4.75935C5.61134 4.89352 4.51001 5.22252 3.70034 6.03335C2.88951 6.84302 2.56051 7.94552 2.42517 9.62435H25.5742C25.4388 7.94435 25.1098 6.84302 24.299 6.03335C23.4893 5.22252 22.3868 4.89352 20.708 4.75818V2.91602C20.708 2.68395 20.6158 2.46139 20.4517 2.2973C20.2876 2.1332 20.0651 2.04102 19.833 2.04102C19.6009 2.04102 19.3784 2.1332 19.2143 2.2973C19.0502 2.46139 18.958 2.68395 18.958 2.91602V4.68118C18.1822 4.66602 17.3118 4.66602 16.333 4.66602H11.6663C10.6875 4.66602 9.81717 4.66602 9.04134 4.68118V2.91602Z" fill="#B0B8C1"/>
</svg>
