<svg width="24" height="24" viewBox="0 0 24 24" fill="none" xmlns="http://www.w3.org/2000/svg">
<path d="M4.76779 0.876342C4.24584 0.389985 3.55549 0.125205 2.84217 0.137791C2.12886 0.150376 1.44828 0.439345 0.943812 0.943812C0.439345 1.44828 0.150376 2.12886 0.137791 2.84217C0.125205 3.55549 0.389985 4.24584 0.876342 4.76779L8.10855 12L0.876342 19.2322C0.605825 19.4843 0.388849 19.7883 0.23836 20.126C0.0878714 20.4638 0.00695138 20.8283 0.000428499 21.198C-0.00609439 21.5677 0.0619137 21.935 0.200394 22.2778C0.338875 22.6207 0.544993 22.9321 0.806449 23.1936C1.06791 23.455 1.37934 23.6611 1.72219 23.7996C2.06503 23.9381 2.43226 24.0061 2.80195 23.9996C3.17165 23.993 3.53625 23.9121 3.87399 23.7616C4.21174 23.6112 4.51571 23.3942 4.76779 23.1237L12 15.8914L19.2322 23.1237C19.7542 23.61 20.4445 23.8748 21.1578 23.8622C21.8711 23.8496 22.5517 23.5607 23.0562 23.0562C23.5607 22.5517 23.8496 21.8711 23.8622 21.1578C23.8748 20.4445 23.61 19.7542 23.1237 19.2322L15.8914 12L23.1237 4.76779C23.3942 4.51571 23.6112 4.21174 23.7616 3.87399C23.9121 3.53625 23.993 3.17165 23.9996 2.80195C24.0061 2.43226 23.9381 2.06503 23.7996 1.72219C23.6611 1.37934 23.455 1.06791 23.1936 0.806449C22.9321 0.544993 22.6207 0.338875 22.2778 0.200394C21.935 0.0619137 21.5677 -0.00609439 21.198 0.000428499C20.8283 0.00695138 20.4638 0.0878714 20.126 0.23836C19.7883 0.388849 19.4843 0.605825 19.2322 0.876342L12 8.10855L4.76779 0.876342Z" fill="#B0B8C1"/>
</svg>
