<svg width="36" height="36" viewBox="0 0 36 36" fill="none" xmlns="http://www.w3.org/2000/svg">
<path d="M12.4786 18.297L18.2986 12.477M22.9546 17.133L17.1346 22.953M5.14809 23.43C3.79059 22.0725 3.11259 21.3945 3.01659 20.565C2.99512 20.3806 2.99512 20.1944 3.01659 20.01C3.11259 19.182 3.79059 18.504 5.14659 17.148C6.50409 15.7905 7.18209 15.1125 8.01009 15.0165C8.19609 14.9935 8.38109 14.9935 8.56509 15.0165C9.39459 15.1125 10.0726 15.7905 11.4301 17.1465L18.8521 24.5715C20.2096 25.9275 20.8876 26.6055 20.9836 27.4335C21.0066 27.6195 21.0066 27.805 20.9836 27.99C20.8876 28.818 20.2096 29.496 18.8536 30.852C17.4961 32.2095 16.8181 32.8875 15.9901 32.9835C15.8057 33.005 15.6195 33.005 15.4351 32.9835C14.6056 32.8875 13.9276 32.2095 12.5701 30.8535L5.14809 23.43ZM17.1481 11.43C15.7906 10.0725 15.1126 9.3945 15.0166 8.565C14.9951 8.38062 14.9951 8.19438 15.0166 8.01C15.1126 7.182 15.7906 6.504 17.1466 5.148C18.5041 3.7905 19.1821 3.1125 20.0101 3.0165C20.1961 2.9945 20.3811 2.9945 20.5651 3.0165C21.3946 3.1125 22.0726 3.7905 23.4301 5.1465L30.8521 12.5715C32.2096 13.9275 32.8876 14.6055 32.9836 15.4335C33.0066 15.6185 33.0066 15.804 32.9836 15.99C32.8876 16.818 32.2096 17.496 30.8536 18.852C29.4961 20.2095 28.8181 20.8875 27.9901 20.9835C27.8057 21.005 27.6195 21.005 27.4351 20.9835C26.6056 20.8875 25.9276 20.2095 24.5701 18.8535L17.1481 11.43Z" stroke="#B0B8C1" stroke-width="1.5"/>
<path d="M27.0286 3.74609L31.6846 8.40209M3.74707 27.0276L8.40307 31.6836" stroke="#B0B8C1" stroke-width="1.5" stroke-linecap="round" stroke-linejoin="round"/>
</svg>
