<svg width="27" height="18" viewBox="0 0 27 18" fill="none" xmlns="http://www.w3.org/2000/svg">
<path fill-rule="evenodd" clip-rule="evenodd" d="M0 1.125C0 0.826631 0.118526 0.540483 0.329505 0.329505C0.540483 0.118526 0.826631 0 1.125 0H25.125C25.4234 0 25.7095 0.118526 25.9205 0.329505C26.1315 0.540483 26.25 0.826631 26.25 1.125C26.25 1.42337 26.1315 1.70952 25.9205 1.9205C25.7095 2.13147 25.4234 2.25 25.125 2.25H1.125C0.826631 2.25 0.540483 2.13147 0.329505 1.9205C0.118526 1.70952 0 1.42337 0 1.125ZM0 8.625C0 8.32663 0.118526 8.04048 0.329505 7.82951C0.540483 7.61853 0.826631 7.5 1.125 7.5H17.625C17.9234 7.5 18.2095 7.61853 18.4205 7.82951C18.6315 8.04048 18.75 8.32663 18.75 8.625C18.75 8.92337 18.6315 9.20952 18.4205 9.42049C18.2095 9.63147 17.9234 9.75 17.625 9.75H1.125C0.826631 9.75 0.540483 9.63147 0.329505 9.42049C0.118526 9.20952 0 8.92337 0 8.625ZM0 16.125C0 15.8266 0.118526 15.5405 0.329505 15.3295C0.540483 15.1185 0.826631 15 1.125 15H8.625C8.92337 15 9.20952 15.1185 9.42049 15.3295C9.63147 15.5405 9.75 15.8266 9.75 16.125C9.75 16.4234 9.63147 16.7095 9.42049 16.9205C9.20952 17.1315 8.92337 17.25 8.625 17.25H1.125C0.826631 17.25 0.540483 17.1315 0.329505 16.9205C0.118526 16.7095 0 16.4234 0 16.125Z" fill="black"/>
</svg>
