<svg width="28" height="28" viewBox="0 0 28 28" fill="none" xmlns="http://www.w3.org/2000/svg">
<path fill-rule="evenodd" clip-rule="evenodd" d="M2.93967 9.12748C2.33301 10.2323 2.33301 11.5682 2.33301 14.2375V16.0132C2.33301 20.5632 2.33301 22.8393 3.70034 24.2533C5.06767 25.6673 7.26684 25.6673 11.6663 25.6673H16.333C20.7325 25.6673 22.9328 25.6673 24.299 24.2533C25.6652 22.8393 25.6663 20.5643 25.6663 16.0132V14.2387C25.6663 11.5682 25.6663 10.2335 25.0597 9.12748C24.4553 8.02032 23.3482 7.33432 21.135 5.95998L18.8017 4.51215C16.4625 3.05965 15.2923 2.33398 13.9997 2.33398C12.707 2.33398 11.538 3.05965 9.19767 4.51215L6.86434 5.95998C4.65117 7.33432 3.54517 8.02032 2.93967 9.12748ZM13.1247 21.0007C13.1247 21.2327 13.2169 21.4553 13.381 21.6194C13.5451 21.7835 13.7676 21.8757 13.9997 21.8757C14.2317 21.8757 14.4543 21.7835 14.6184 21.6194C14.7825 21.4553 14.8747 21.2327 14.8747 21.0007V17.5007C14.8747 17.2686 14.7825 17.046 14.6184 16.8819C14.4543 16.7178 14.2317 16.6257 13.9997 16.6257C13.7676 16.6257 13.5451 16.7178 13.381 16.8819C13.2169 17.046 13.1247 17.2686 13.1247 17.5007V21.0007Z" fill="#B0B8C1"/>
</svg>
