<svg width="58" height="22" viewBox="0 0 58 22" fill="none" xmlns="http://www.w3.org/2000/svg">
<rect x="0.35" y="0.35" width="57.3" height="21.3" rx="8.65" stroke="black" stroke-width="0.7"/>
<path d="M12.3358 5.46H13.2118V6.072C13.2118 6.488 13.1318 6.88 12.9718 7.248C12.8118 7.608 12.5918 7.94 12.3118 8.244C12.0398 8.548 11.7198 8.82 11.3518 9.06C10.9838 9.3 10.5838 9.5 10.1518 9.66C9.72775 9.82 9.29175 9.936 8.84375 10.008L8.43575 9.204C8.83575 9.148 9.22375 9.052 9.59975 8.916C9.98375 8.78 10.3398 8.616 10.6678 8.424C10.9958 8.224 11.2838 8 11.5318 7.752C11.7878 7.504 11.9838 7.24 12.1198 6.96C12.2638 6.672 12.3358 6.376 12.3358 6.072V5.46ZM12.5038 5.46H13.3678V6.072C13.3678 6.376 13.4398 6.668 13.5838 6.948C13.7278 7.228 13.9238 7.492 14.1718 7.74C14.4278 7.988 14.7198 8.212 15.0478 8.412C15.3758 8.612 15.7278 8.78 16.1038 8.916C16.4878 9.052 16.8758 9.148 17.2678 9.204L16.8718 10.008C16.4238 9.936 15.9878 9.82 15.5638 9.66C15.1398 9.492 14.7398 9.288 14.3638 9.048C13.9958 8.808 13.6718 8.536 13.3918 8.232C13.1198 7.928 12.9038 7.596 12.7438 7.236C12.5838 6.868 12.5038 6.48 12.5038 6.072V5.46ZM12.3358 11.808H13.3198V15.936H12.3358V11.808ZM7.94375 11.184H17.7478V12.012H7.94375V11.184ZM24.7788 7.896H27.2148V8.724H24.7788V7.896ZM26.9148 5.076H27.9108V11.544H26.9148V5.076ZM24.3348 11.88C25.0868 11.88 25.7308 11.96 26.2668 12.12C26.8108 12.28 27.2268 12.512 27.5148 12.816C27.8028 13.112 27.9468 13.476 27.9468 13.908C27.9468 14.548 27.6228 15.044 26.9748 15.396C26.3348 15.748 25.4548 15.924 24.3348 15.924C23.2148 15.924 22.3308 15.748 21.6828 15.396C21.0428 15.044 20.7228 14.548 20.7228 13.908C20.7228 13.476 20.8668 13.112 21.1548 12.816C21.4508 12.512 21.8668 12.28 22.4028 12.12C22.9468 11.96 23.5908 11.88 24.3348 11.88ZM24.3348 12.66C23.7908 12.66 23.3228 12.708 22.9308 12.804C22.5388 12.9 22.2348 13.04 22.0188 13.224C21.8108 13.408 21.7068 13.636 21.7068 13.908C21.7068 14.164 21.8108 14.384 22.0188 14.568C22.2348 14.752 22.5388 14.896 22.9308 15C23.3228 15.096 23.7908 15.144 24.3348 15.144C24.8868 15.144 25.3548 15.096 25.7388 15C26.1308 14.896 26.4308 14.752 26.6388 14.568C26.8548 14.384 26.9628 14.164 26.9628 13.908C26.9628 13.636 26.8548 13.408 26.6388 13.224C26.4308 13.04 26.1308 12.9 25.7388 12.804C25.3548 12.708 24.8868 12.66 24.3348 12.66ZM21.7428 6.18H22.5588V7.056C22.5588 7.72 22.4308 8.344 22.1748 8.928C21.9268 9.504 21.5748 10.012 21.1188 10.452C20.6628 10.884 20.1348 11.216 19.5348 11.448L19.0188 10.656C19.4268 10.512 19.7948 10.316 20.1228 10.068C20.4588 9.82 20.7468 9.536 20.9868 9.216C21.2348 8.896 21.4228 8.552 21.5508 8.184C21.6788 7.816 21.7428 7.44 21.7428 7.056V6.18ZM21.9348 6.18H22.7508V7.044C22.7508 7.508 22.8588 7.96 23.0748 8.4C23.2908 8.84 23.5988 9.228 23.9988 9.564C24.3988 9.9 24.8588 10.164 25.3788 10.356L24.8748 11.148C24.2828 10.932 23.7668 10.62 23.3268 10.212C22.8868 9.796 22.5428 9.316 22.2948 8.772C22.0548 8.228 21.9348 7.652 21.9348 7.044V6.18ZM19.3308 5.868H25.1268V6.684H19.3308V5.868ZM37.3779 5.076H38.3619V15.936H37.3779V5.076ZM38.1339 9.54H40.1379V10.38H38.1339V9.54ZM29.9619 6.816H36.3579V7.632H29.9619V6.816ZM33.2139 8.52C33.7259 8.52 34.1779 8.628 34.5699 8.844C34.9699 9.06 35.2819 9.356 35.5059 9.732C35.7379 10.1 35.8539 10.528 35.8539 11.016C35.8539 11.504 35.7379 11.936 35.5059 12.312C35.2819 12.688 34.9699 12.984 34.5699 13.2C34.1779 13.408 33.7259 13.512 33.2139 13.512C32.7019 13.512 32.2459 13.408 31.8459 13.2C31.4539 12.984 31.1419 12.688 30.9099 12.312C30.6779 11.936 30.5619 11.504 30.5619 11.016C30.5619 10.528 30.6779 10.1 30.9099 9.732C31.1419 9.356 31.4539 9.06 31.8459 8.844C32.2459 8.628 32.7019 8.52 33.2139 8.52ZM33.2139 9.348C32.8859 9.348 32.5939 9.42 32.3379 9.564C32.0819 9.708 31.8779 9.904 31.7259 10.152C31.5819 10.4 31.5099 10.688 31.5099 11.016C31.5099 11.344 31.5819 11.636 31.7259 11.892C31.8779 12.14 32.0819 12.336 32.3379 12.48C32.5939 12.616 32.8859 12.684 33.2139 12.684C33.5339 12.684 33.8219 12.616 34.0779 12.48C34.3339 12.336 34.5339 12.14 34.6779 11.892C34.8299 11.636 34.9059 11.344 34.9059 11.016C34.9059 10.688 34.8299 10.4 34.6779 10.152C34.5339 9.904 34.3339 9.708 34.0779 9.564C33.8219 9.42 33.5339 9.348 33.2139 9.348ZM32.6979 5.208H33.6939V7.176H32.6979V5.208ZM48.9689 5.076H49.9649V15.936H48.9689V5.076ZM45.7889 6.252H46.7729C46.7729 7.036 46.6769 7.792 46.4849 8.52C46.3009 9.248 46.0089 9.94 45.6089 10.596C45.2089 11.244 44.6889 11.848 44.0489 12.408C43.4089 12.968 42.6329 13.468 41.7209 13.908L41.1929 13.104C42.2409 12.6 43.1049 12.012 43.7849 11.34C44.4649 10.668 44.9689 9.92 45.2969 9.096C45.6249 8.264 45.7889 7.368 45.7889 6.408V6.252ZM41.6969 6.252H46.2089V7.056H41.6969V6.252Z" fill="black"/>
</svg>
