<svg width="28" height="28" viewBox="0 0 28 28" fill="none" xmlns="http://www.w3.org/2000/svg">
<path fill-rule="evenodd" clip-rule="evenodd" d="M19.2497 25.4785L19.2054 25.4878H19.2007C19.1828 25.4933 19.1646 25.4972 19.1459 25.4995L19.1436 25.5007L19.2019 25.489L19.2497 25.4785Z" fill="#B0B8C1"/>
<path d="M25.6667 17.5C24.9853 17.5 24.4113 17.5 23.9167 17.5093C22.834 17.528 22.134 17.5898 21.5308 17.7858C20.6554 18.0703 19.8597 18.5579 19.2088 19.2088C18.5579 19.8597 18.0703 20.6554 17.7858 21.5308C17.5898 22.134 17.5292 22.834 17.5093 23.9167C17.5 24.4113 17.5 24.9853 17.5 25.6667C18.0639 25.6659 18.6122 25.6107 19.145 25.501L19.201 25.4893H19.2057L19.25 25.4777C20.7743 25.1422 22.1707 24.3775 23.2744 23.274C24.3781 22.1705 25.1431 20.7742 25.4788 19.25C25.6033 18.6853 25.6659 18.102 25.6667 17.5Z" fill="#B0B8C1"/>
<path fill-rule="evenodd" clip-rule="evenodd" d="M2.33301 14.0007C2.33301 19.5003 2.33301 22.2502 4.04101 23.9582C5.75134 25.6673 8.50001 25.6673 13.9997 25.6673H15.7497V25.364C15.7485 23.4892 15.7473 22.1382 16.1207 20.9902C16.2016 20.7428 16.2945 20.5005 16.3995 20.2633C15.6339 20.5587 14.8203 20.7098 13.9997 20.709C12.5501 20.7076 11.1396 20.2382 9.97818 19.3708C9.7916 19.2325 9.6676 19.0257 9.63347 18.796C9.59934 18.5663 9.65787 18.3324 9.79618 18.1458C9.93449 17.9592 10.1412 17.8352 10.371 17.8011C10.6007 17.767 10.8346 17.8255 11.0212 17.9638C11.8705 18.5938 12.896 18.959 13.9997 18.959C15.1033 18.959 16.1288 18.5938 16.9782 17.965C17.1246 17.8562 17.3014 17.7959 17.4838 17.7926C17.6663 17.7892 17.8452 17.843 17.9955 17.9463C18.8372 17.1126 19.8625 16.4877 20.9892 16.1217C22.1372 15.7483 23.4882 15.7495 25.3642 15.7507H25.6663V14.0007C25.6663 8.50098 25.6663 5.75115 23.9572 4.04198C22.2503 2.33398 19.4993 2.33398 13.9997 2.33398C8.50001 2.33398 5.75017 2.33398 4.04101 4.04198C2.33301 5.75232 2.33301 8.50098 2.33301 14.0007ZM17.4997 14.0007C18.1437 14.0007 18.6663 13.2167 18.6663 12.2507C18.6663 11.2847 18.1437 10.5007 17.4997 10.5007C16.8557 10.5007 16.333 11.2847 16.333 12.2507C16.333 13.2167 16.8557 14.0007 17.4997 14.0007ZM10.4997 14.0007C11.1437 14.0007 11.6663 13.2167 11.6663 12.2507C11.6663 11.2847 11.1437 10.5007 10.4997 10.5007C9.85568 10.5007 9.33301 11.2847 9.33301 12.2507C9.33301 13.2167 9.85568 14.0007 10.4997 14.0007Z" fill="#B0B8C1"/>
</svg>
