<svg width="35" height="34" viewBox="0 0 35 34" fill="none" xmlns="http://www.w3.org/2000/svg">
<path d="M0 5C0 2.23858 2.23858 0 5 0H30C32.7614 0 35 2.23858 35 5V29C35 31.7614 32.7614 34 30 34H5C2.23858 34 0 31.7614 0 29V5Z" fill="#BFE8F8"/>
<path d="M30.625 21.25V26.9167C30.625 27.6681 30.3177 28.3888 29.7707 28.9201C29.2237 29.4515 28.4819 29.75 27.7083 29.75H7.29167C6.51812 29.75 5.77625 29.4515 5.22927 28.9201C4.68229 28.3888 4.375 27.6681 4.375 26.9167V21.25M24.7917 11.3333L17.5 4.25M17.5 4.25L10.2083 11.3333M17.5 4.25V21.25" stroke="#002738" stroke-width="2" stroke-linecap="round" stroke-linejoin="round"/>
</svg>
