<svg width="36" height="36" viewBox="0 0 36 36" fill="none" xmlns="http://www.w3.org/2000/svg">
<rect width="36" height="36" rx="5" fill="#E9EAEF"/>
<path d="M21 31.8751H15V34.1251H21V31.8751ZM4.125 21.0001V15.0001H1.875V21.0001H4.125ZM31.875 20.3446V21.0001H34.125V20.3446H31.875ZM22.3365 6.91658L28.275 12.2611L29.7795 10.5871L23.8425 5.24258L22.3365 6.91658ZM34.125 20.3446C34.125 17.8111 34.1475 16.2061 33.51 14.7721L31.4535 15.6886C31.8525 16.5856 31.875 17.6131 31.875 20.3446H34.125ZM28.275 12.2611C30.3045 14.0881 31.0545 14.7931 31.4535 15.6886L33.51 14.7721C32.871 13.3366 31.6635 12.2821 29.7795 10.5871L28.275 12.2611ZM15.045 4.12508C17.418 4.12508 18.3135 4.14308 19.11 4.44908L19.917 2.34908C18.639 1.85708 17.247 1.87508 15.045 1.87508V4.12508ZM23.8425 5.24408C22.2135 3.77858 21.195 2.83808 19.917 2.34908L19.1115 4.44908C19.9095 4.75508 20.5815 5.33708 22.3365 6.91658L23.8425 5.24408ZM15 31.8751C12.1395 31.8751 10.1085 31.8721 8.565 31.6651C7.0575 31.4626 6.1875 31.0816 5.553 30.4471L3.963 32.0371C5.085 33.1621 6.5085 33.6586 8.2665 33.8956C9.9915 34.1281 12.204 34.1251 15 34.1251V31.8751ZM1.875 21.0001C1.875 23.7961 1.872 26.0071 2.1045 27.7336C2.3415 29.4916 2.8395 30.9151 3.9615 32.0386L5.5515 30.4486C4.9185 29.8126 4.5375 28.9426 4.335 27.4336C4.128 25.8931 4.125 23.8606 4.125 21.0001H1.875ZM21 34.1251C23.796 34.1251 26.007 34.1281 27.7335 33.8956C29.4915 33.6586 30.915 33.1606 32.0385 32.0386L30.4485 30.4486C29.8125 31.0816 28.9425 31.4626 27.4335 31.6651C25.893 31.8721 23.8605 31.8751 21 31.8751V34.1251ZM31.875 21.0001C31.875 23.8606 31.872 25.8931 31.665 27.4351C31.4625 28.9426 31.0815 29.8126 30.447 30.4471L32.037 32.0371C33.162 30.9151 33.6585 29.4916 33.8955 27.7336C34.128 26.0086 34.125 23.7961 34.125 21.0001H31.875ZM4.125 15.0001C4.125 12.1396 4.128 10.1086 4.335 8.56508C4.5375 7.05758 4.9185 6.18758 5.553 5.55308L3.963 3.96308C2.838 5.08508 2.3415 6.50858 2.1045 8.26658C1.872 9.99158 1.875 12.2041 1.875 15.0001H4.125ZM15.045 1.87508C12.2325 1.87508 10.011 1.87208 8.2785 2.10458C6.513 2.34158 5.085 2.83958 3.9615 3.96158L5.5515 5.55158C6.1875 4.91858 7.059 4.53758 8.577 4.33508C10.1265 4.12808 12.1695 4.12508 15.045 4.12508V1.87508Z" fill="#333333"/>
<path d="M19.5 3.75V7.5C19.5 11.0355 19.5 12.804 20.598 13.902C21.696 15 23.4645 15 27 15H33" stroke="#333333" stroke-width="1.5"/>
<path d="M12.75 27.75V20.25M12.75 20.25L9.75 23.0625M12.75 20.25L15.75 23.0625" stroke="#333333" stroke-width="1.5" stroke-linecap="round" stroke-linejoin="round"/>
</svg>
